quattrocento_regular.sfdir
StartChar: exclam
Encoding: 33 33 4
Width: 246
GlyphClass: 2
Flags: W
LayerCount: 2
Back
Fore
SplineSet
163 686 m 1,0,-1
 168 683 l 1,1,2
 168 676 168 676 167.5 666 c 128,-1,3
 167 656 167 656 167 654 c 0,4,5
 167 651 167 651 164 619.5 c 128,-1,6
 161 588 161 588 158.5 553 c 128,-1,7
 156 518 156 518 152 417 c 128,-1,8
 148 316 148 316 145 172 c 1,9,-1
 140 165 l 1,10,-1
 105 149 l 1,11,-1
 99 153 l 1,12,13
 92 440 92 440 77 651 c 1,14,-1
 81 660 l 1,15,-1
 163 686 l 1,0,-1
75 35 m 128,-1,17
 75 54 75 54 89 68.5 c 128,-1,18
 103 83 103 83 122 83 c 0,19,20
 140 83 140 83 154.5 68.5 c 128,-1,21
 169 54 169 54 169 35 c 0,22,23
 169 17 169 17 154.5 3 c 128,-1,24
 140 -11 140 -11 122 -11 c 0,25,26
 103 -11 103 -11 89 2.5 c 128,-1,16
 75 16 75 16 75 35 c 128,-1,17
EndSplineSet
EndChar
StartChar: quotedbl
Encoding: 34 34 180
Width: 306
Flags: W
LayerCount: 2
Back
Fore
SplineSet
67 516 m 1,0,-1
 65 521 l 1,1,2
 64 569 64 569 61.5 619.5 c 128,-1,3
 59 670 59 670 53 717 c 1,4,-1
 54 721 l 1,5,-1
 121 730 l 1,6,-1
 123 726 l 1,7,8
 116 683 116 683 113.5 632 c 128,-1,9
 111 581 111 581 111 530 c 1,10,-1
 109 526 l 1,11,-1
 67 516 l 1,0,-1
200 516 m 1,12,-1
 198 521 l 1,13,14
 197 569 197 569 194.5 619.5 c 128,-1,15
 192 670 192 670 186 717 c 1,16,-1
 188 721 l 1,17,-1
 254 730 l 1,18,-1
 256 726 l 1,19,20
 249 683 249 683 247 632 c 128,-1,21
 245 581 245 581 244 530 c 1,22,-1
 242 526 l 1,23,-1
 200 516 l 1,12,-1
EndSplineSet
EndChar
StartChar: numbersign
Encoding: 35 35 6
Width: 619
GlyphClass: 2
Flags: W
LayerCount: 2
Back
Fore
SplineSet
293 0 m 1,0,-1
 292 4 l 1,1,2
 318 81 318 81 350 222 c 1,3,-1
 216 222 l 1,4,5
 190 91 190 91 182 4 c 1,6,-1
 179 0 l 1,7,-1
 103 0 l 1,8,-1
 102 4 l 1,9,10
 128 81 128 81 160 222 c 1,11,-1
 40 222 l 1,12,-1
 49 275 l 1,13,-1
 172 275 l 1,14,-1
 197 394 l 1,15,-1
 69 394 l 1,16,-1
 78 446 l 1,17,-1
 208 446 l 1,18,19
 234 573 234 573 240 650 c 1,20,-1
 242 654 l 1,21,-1
 318 654 l 1,22,-1
 320 650 l 1,23,24
 290 566 290 566 264 446 c 1,25,-1
 398 446 l 1,26,27
 424 573 424 573 430 650 c 1,28,-1
 432 654 l 1,29,-1
 508 654 l 1,30,-1
 510 650 l 1,31,32
 480 566 480 566 454 446 c 1,33,-1
 580 446 l 1,34,-1
 571 394 l 1,35,-1
 443 394 l 1,36,-1
 418 275 l 1,37,-1
 549 275 l 1,38,-1
 540 222 l 1,39,-1
 406 222 l 1,40,41
 380 91 380 91 372 4 c 1,42,-1
 369 0 l 1,43,-1
 293 0 l 1,0,-1
252 394 m 1,44,-1
 228 275 l 1,45,-1
 362 275 l 1,46,-1
 387 394 l 1,47,-1
 252 394 l 1,44,-1
EndSplineSet
EndChar
StartChar: dollar
Encoding: 36 36 104
Width: 533
Flags: W
LayerCount: 2
Back
Fore
SplineSet
238 -93 m 1,0,1
 240 -71 240 -71 241.5 -47 c 128,-1,2
 243 -23 243 -23 245 2 c 1,3,4
 187 3 187 3 139 16 c 128,-1,5
 91 29 91 29 53 49 c 1,6,-1
 49 63 l 1,7,-1
 66 164 l 1,8,-1
 91 164 l 1,9,-1
 96 159 l 1,10,11
 101 104 101 104 139 76.5 c 128,-1,12
 177 49 177 49 246 47 c 1,13,14
 248 85 248 85 248 123 c 128,-1,15
 248 161 248 161 248 198 c 2,16,-1
 248 309 l 2,17,18
 246 309 246 309 245 310 c 0,19,20
 205 322 205 322 171 336.5 c 128,-1,21
 137 351 137 351 112 372 c 128,-1,22
 87 393 87 393 73 421 c 128,-1,23
 59 449 59 449 59 488 c 0,24,25
 59 530 59 530 73 559.5 c 128,-1,26
 87 589 87 589 111.5 608.5 c 128,-1,27
 136 628 136 628 170 638.5 c 128,-1,28
 204 649 204 649 245 651 c 1,29,30
 244 676 244 676 242 700.5 c 128,-1,31
 240 725 240 725 238 747 c 1,32,-1
 240 750 l 1,33,-1
 301 750 l 1,34,-1
 303 747 l 1,35,36
 300 725 300 725 298.5 700.5 c 128,-1,37
 297 676 297 676 295 651 c 1,38,39
 341 649 341 649 380.5 639.5 c 128,-1,40
 420 630 420 630 446 619 c 1,41,-1
 450 608 l 1,42,-1
 436 523 l 1,43,-1
 408 523 l 1,44,-1
 404 528 l 1,45,46
 402 549 402 549 391.5 563 c 128,-1,47
 381 577 381 577 365 586 c 128,-1,48
 349 595 349 595 330.5 599 c 128,-1,49
 312 603 312 603 294 605 c 1,50,51
 293 573 293 573 293 544.5 c 128,-1,52
 293 516 293 516 293 493 c 2,53,-1
 293 379 l 2,54,55
 294 378 294 378 296 378 c 0,56,57
 333 367 333 367 368.5 352 c 128,-1,58
 404 337 404 337 432 314.5 c 128,-1,59
 460 292 460 292 476.5 259.5 c 128,-1,60
 493 227 493 227 493 181 c 0,61,62
 493 137 493 137 477.5 105.5 c 128,-1,63
 462 74 462 74 435.5 52.5 c 128,-1,64
 409 31 409 31 373 19 c 128,-1,65
 337 7 337 7 296 4 c 1,66,67
 297 -22 297 -22 299 -46 c 128,-1,68
 301 -70 301 -70 303 -93 c 1,69,-1
 301 -96 l 1,70,-1
 240 -96 l 1,71,-1
 238 -93 l 1,0,1
293 198 m 2,72,73
 293 162 293 162 293 124 c 128,-1,74
 293 86 293 86 294 48 c 1,75,76
 357 56 357 56 386.5 88 c 128,-1,77
 416 120 416 120 416 168 c 0,78,79
 416 195 416 195 406 215 c 128,-1,80
 396 235 396 235 379.5 250 c 128,-1,81
 363 265 363 265 340.5 275.5 c 128,-1,82
 318 286 318 286 293 295 c 1,83,-1
 293 198 l 2,72,73
132 500 m 0,84,85
 132 477 132 477 139 461 c 128,-1,86
 146 445 146 445 160 433 c 128,-1,87
 174 421 174 421 196 411.5 c 128,-1,88
 218 402 218 402 248 393 c 1,89,-1
 248 493 l 2,90,91
 248 516 248 516 248 544.5 c 128,-1,92
 248 573 248 573 247 605 c 1,93,94
 192 600 192 600 162 573.5 c 128,-1,95
 132 547 132 547 132 500 c 0,84,85
EndSplineSet
EndChar
StartChar: percent
Encoding: 37 37 8
Width: 780
GlyphClass: 2
Flags: W
LayerCount: 2
Back
Fore
SplineSet
121 19 m 1,0,-1
 122 23 l 1,1,2
 214 132 214 132 319 278 c 2,3,-1
 439 443 l 2,4,5
 555 604 555 604 591 669 c 1,6,-1
 596 673 l 1,7,-1
 672 673 l 1,8,-1
 671 669 l 1,9,10
 611 602 611 602 495 443 c 2,11,-1
 375 278 l 2,12,13
 261 120 261 120 202 23 c 1,14,-1
 197 19 l 1,15,-1
 121 19 l 1,0,-1
594 357 m 0,16,17
 661 357 661 357 700.5 304 c 128,-1,18
 740 251 740 251 740 174 c 128,-1,19
 740 97 740 97 700 43 c 128,-1,20
 660 -11 660 -11 591 -11 c 0,21,22
 524 -11 524 -11 487 41 c 128,-1,23
 450 93 450 93 450 170 c 0,24,25
 450 250 450 250 489 303.5 c 128,-1,26
 528 357 528 357 594 357 c 0,16,17
594 27 m 0,27,28
 639 27 639 27 665 69 c 128,-1,29
 691 111 691 111 691 174 c 128,-1,30
 691 237 691 237 664 278 c 128,-1,31
 637 319 637 319 592 319 c 0,32,33
 548 319 548 319 523.5 278.5 c 128,-1,34
 499 238 499 238 499 174 c 0,35,36
 499 107 499 107 525.5 67 c 128,-1,37
 552 27 552 27 594 27 c 0,27,28
187 665 m 0,38,39
 254 665 254 665 293 612 c 128,-1,40
 332 559 332 559 332 482 c 128,-1,41
 332 405 332 405 292.5 351 c 128,-1,42
 253 297 253 297 184 297 c 0,43,44
 117 297 117 297 79.5 349 c 128,-1,45
 42 401 42 401 42 478 c 0,46,47
 42 558 42 558 81.5 611.5 c 128,-1,48
 121 665 121 665 187 665 c 0,38,39
187 335 m 0,49,50
 231 335 231 335 257 377 c 128,-1,51
 283 419 283 419 283 482 c 128,-1,52
 283 545 283 545 256 586 c 128,-1,53
 229 627 229 627 185 627 c 128,-1,54
 141 627 141 627 116 586.5 c 128,-1,55
 91 546 91 546 91 482 c 0,56,57
 91 415 91 415 117.5 375 c 128,-1,58
 144 335 144 335 187 335 c 0,49,50
EndSplineSet
EndChar
StartChar: ampersand
Encoding: 38 38 9
Width: 742
GlyphClass: 2
Flags: W
LayerCount: 2
Back
Fore
SplineSet
706 424 m 1,0,1
 706 417 706 417 698 400 c 128,-1,2
 690 383 690 383 668 365 c 128,-1,3
 646 347 646 347 616 347 c 0,4,5
 610 347 610 347 594 348 c 2,6,-1
 556 350 l 1,7,-1
 519 353 l 1,8,9
 549 308 549 308 549 239 c 0,10,11
 549 160 549 160 511 104 c 1,12,13
 552 63 552 63 590 42.5 c 128,-1,14
 628 22 628 22 679 20 c 1,15,-1
 685 16 l 1,16,-1
 688 -2 l 1,17,-1
 685 -6 l 1,18,19
 670 -6 670 -6 628 -8 c 128,-1,20
 586 -10 586 -10 580 -10 c 0,21,22
 532 -10 532 -10 466 54 c 1,23,24
 388 -10 388 -10 276 -10 c 0,25,26
 182 -10 182 -10 115 38.5 c 128,-1,27
 48 87 48 87 48 172 c 0,28,29
 48 234 48 234 84 290 c 128,-1,30
 120 346 120 346 180 370 c 1,31,32
 147 414 147 414 133.5 445.5 c 128,-1,33
 120 477 120 477 120 513 c 0,34,35
 120 582 120 582 162.5 622.5 c 128,-1,36
 205 663 205 663 273 663 c 0,37,38
 321 663 321 663 359 644 c 128,-1,39
 397 625 397 625 405 584 c 1,40,-1
 408 574 l 1,41,-1
 396 503 l 1,42,-1
 363 503 l 1,43,-1
 359 507 l 1,44,45
 354 563 354 563 332 587.5 c 128,-1,46
 310 612 310 612 271 612 c 0,47,48
 229 612 229 612 209 588 c 128,-1,49
 189 564 189 564 189 528 c 0,50,51
 189 490 189 490 205 455 c 128,-1,52
 221 420 221 420 275 357 c 128,-1,53
 329 294 329 294 467 148 c 1,54,55
 492 195 492 195 492 242 c 0,56,57
 492 297 492 297 455 356 c 1,58,59
 434 355 434 355 423.5 349.5 c 128,-1,60
 413 344 413 344 404 331 c 1,61,-1
 390 338 l 1,62,63
 390 358 390 358 416.5 386 c 128,-1,64
 443 414 443 414 485 414 c 0,65,66
 494 414 494 414 546 410 c 128,-1,67
 598 406 598 406 627 406 c 0,68,69
 675 406 675 406 693 432 c 1,70,-1
 706 424 l 1,0,1
426 96 m 1,71,-1
 336 194 l 2,72,73
 260 276 260 276 217 325 c 1,74,75
 171 311 171 311 145.5 267.5 c 128,-1,76
 120 224 120 224 120 179 c 0,77,78
 120 115 120 115 170.5 79 c 128,-1,79
 221 43 221 43 285 43 c 0,80,81
 367 43 367 43 426 96 c 1,71,-1
EndSplineSet
EndChar
StartChar: quotesingle
Encoding: 39 39 187
Width: 172
Flags: W
LayerCount: 2
Back
Fore
SplineSet
67 516 m 1,0,-1
 65 521 l 1,1,2
 64 569 64 569 61.5 619.5 c 128,-1,3
 59 670 59 670 53 717 c 1,4,-1
 54 721 l 1,5,-1
 121 730 l 1,6,-1
 123 726 l 1,7,8
 116 683 116 683 113.5 632 c 128,-1,9
 111 581 111 581 111 530 c 1,10,-1
 109 526 l 1,11,-1
 67 516 l 1,0,-1
EndSplineSet
EndChar
StartChar: parenleft
Encoding: 40 40 11
Width: 283
GlyphClass: 2
Flags: W
LayerCount: 2
Back
Fore
SplineSet
242 771 m 1,0,-1
 257 760 l 1,1,-1
 257 755 l 1,2,3
 170 646 170 646 140 523 c 0,4,5
 120 442 120 442 120 327 c 0,6,7
 120 276 120 276 124 234.5 c 128,-1,8
 128 193 128 193 140 134.5 c 128,-1,9
 152 76 152 76 182 16 c 128,-1,10
 212 -44 212 -44 257 -101 c 1,11,-1
 257 -106 l 1,12,-1
 242 -117 l 1,13,14
 146 -31 146 -31 93 84.5 c 128,-1,15
 40 200 40 200 40 327 c 0,16,17
 40 453 40 453 93 568 c 128,-1,18
 146 683 146 683 242 771 c 1,0,-1
EndSplineSet
EndChar
StartChar: parenright
Encoding: 41 41 12
Width: 283
GlyphClass: 2
Flags: W
LayerCount: 2
Back
Fore
SplineSet
26 760 m 1,0,-1
 41 771 l 1,1,2
 137 684 137 684 190 568.5 c 128,-1,3
 243 453 243 453 243 327 c 128,-1,4
 243 201 243 201 189.5 84.5 c 128,-1,5
 136 -32 136 -32 41 -117 c 1,6,-1
 26 -106 l 1,7,-1
 26 -101 l 1,8,9
 71 -44 71 -44 100.5 16 c 128,-1,10
 130 76 130 76 142 134.5 c 128,-1,11
 154 193 154 193 158 234.5 c 128,-1,12
 162 276 162 276 162 327 c 0,13,14
 162 441 162 441 142 523 c 0,15,16
 112 645 112 645 26 755 c 1,17,-1
 26 760 l 1,0,-1
EndSplineSet
EndChar
StartChar: asterisk
Encoding: 42 42 13
Width: 413
GlyphClass: 2
Flags: W
LayerCount: 2
Back
Fore
SplineSet
362 486 m 1,0,-1
 364 481 l 1,1,2
 342 455 342 455 335 431 c 0,3,4
 334 431 334 431 332 430 c 2,5,-1
 330 430 l 1,6,7
 287 467 287 467 222 509 c 1,8,9
 230 416 230 416 239 377 c 1,10,-1
 235 374 l 1,11,12
 222 375 222 375 208 375 c 0,13,14
 192 375 192 375 180 374 c 1,15,-1
 177 377 l 1,16,17
 182 406 182 406 192 510 c 1,18,19
 126 465 126 465 85 429 c 0,20,21
 84 429 84 429 82.5 429.5 c 128,-1,22
 81 430 81 430 80 430 c 0,23,24
 68 456 68 456 52 476 c 1,25,-1
 52 479 l 2,26,27
 53 482 53 482 53 483 c 0,28,29
 119 507 119 507 176 538 c 1,30,31
 112 571 112 571 57 589 c 1,32,-1
 55 596 l 1,33,34
 76 623 76 623 85 644 c 1,35,-1
 89 645 l 1,36,37
 108 627 108 627 194 565 c 1,38,39
 185 639 185 639 169 698 c 1,40,-1
 172 702 l 1,41,42
 184 700 184 700 201 700 c 0,43,44
 219 700 219 700 229 702 c 1,45,-1
 232 699 l 1,46,47
 222 656 222 656 222 565 c 1,48,49
 284 613 284 613 321 651 c 1,50,51
 322 648 322 648 326 648 c 0,52,53
 340 620 340 620 354 601 c 0,54,55
 353 599 353 599 353 594 c 1,56,57
 284 567 284 567 232 539 c 1,58,59
 294 505 294 505 362 486 c 1,0,-1
EndSplineSet
EndChar
StartChar: plus
Encoding: 43 43 14
Width: 483
GlyphClass: 2
Flags: W
LayerCount: 2
Back
Fore
SplineSet
267 427 m 1,0,-1
 267 265 l 1,1,-1
 439 265 l 1,2,-1
 429 213 l 1,3,-1
 267 213 l 1,4,-1
 267 41 l 1,5,-1
 215 41 l 1,6,-1
 215 213 l 1,7,-1
 44 213 l 1,8,-1
 53 265 l 1,9,-1
 215 265 l 1,10,-1
 215 427 l 1,11,-1
 267 427 l 1,0,-1
EndSplineSet
EndChar
StartChar: comma
Encoding: 44 44 95
Width: 213
Flags: W
LayerCount: 2
Back
Fore
SplineSet
57 -97 m 1,0,-1
 51 -91 l 1,1,-1
 51 -87 l 1,2,3
 65 -58 65 -58 69.5 -35 c 128,-1,4
 74 -12 74 -12 74 1 c 0,5,6
 74 12 74 12 68.5 23 c 128,-1,7
 63 34 63 34 63 50 c 0,8,9
 63 58 63 58 69 64.5 c 128,-1,10
 75 71 75 71 83.5 75 c 128,-1,11
 92 79 92 79 102.5 81 c 128,-1,12
 113 83 113 83 122 83 c 0,13,14
 130 83 130 83 135 78.5 c 128,-1,15
 140 74 140 74 142.5 67 c 128,-1,16
 145 60 145 60 146 53 c 128,-1,17
 147 46 147 46 147 40 c 0,18,19
 147 17 147 17 137.5 -5.5 c 128,-1,20
 128 -28 128 -28 115 -46.5 c 128,-1,21
 102 -65 102 -65 87.5 -78.5 c 128,-1,22
 73 -92 73 -92 63 -97 c 1,23,-1
 57 -97 l 1,0,-1
EndSplineSet
EndChar
StartChar: period
Encoding: 46 46 172
Width: 217
Flags: W
LayerCount: 2
Back
Fore
SplineSet
62 35 m 256,0,1
 62 54 62 54 75 68.5 c 128,-1,2
 88 83 88 83 108 83 c 0,3,4
 127 83 127 83 141.5 68.5 c 128,-1,5
 156 54 156 54 156 35 c 256,6,7
 156 16 156 16 141.5 2.5 c 128,-1,8
 127 -11 127 -11 108 -11 c 0,9,10
 88 -11 88 -11 75 2.5 c 128,-1,11
 62 16 62 16 62 35 c 256,0,1
EndSplineSet
EndChar
StartChar: slash
Encoding: 47 47 18
Width: 430
GlyphClass: 2
Flags: W
LayerCount: 2
Back
Fore
SplineSet
37 -57 m 1,0,-1
 37 -53 l 1,1,2
 83 40 83 40 159 249 c 2,3,-1
 226 433 l 2,4,5
 291 609 291 609 310 698 c 1,6,-1
 313 702 l 1,7,-1
 391 702 l 1,8,-1
 392 698 l 1,9,10
 361 640 361 640 284 433 c 2,11,-1
 216 249 l 2,12,13
 143 55 143 55 118 -53 c 1,14,-1
 115 -57 l 1,15,-1
 37 -57 l 1,0,-1
EndSplineSet
EndChar
StartChar: zero
Encoding: 48 48 225
Width: 646
Flags: W
LayerCount: 2
Back
Fore
SplineSet
323 665 m 256,0,1
 386 665 386 665 435.5 638 c 128,-1,2
 485 611 485 611 519 564.5 c 128,-1,3
 553 518 553 518 571 457 c 128,-1,4
 589 396 589 396 589 329 c 0,5,6
 589 263 589 263 571.5 201.5 c 128,-1,7
 554 140 554 140 520 93 c 128,-1,8
 486 46 486 46 435 17.5 c 128,-1,9
 384 -11 384 -11 318 -11 c 0,10,11
 253 -11 253 -11 204.5 16 c 128,-1,12
 156 43 156 43 123.5 88.5 c 128,-1,13
 91 134 91 134 74.5 194.5 c 128,-1,14
 58 255 58 255 58 322 c 0,15,16
 58 393 58 393 76 455.5 c 128,-1,17
 94 518 94 518 128 564.5 c 128,-1,18
 162 611 162 611 211 638 c 128,-1,19
 260 665 260 665 323 665 c 256,0,1
322 42 m 0,20,21
 367 42 367 42 402.5 64.5 c 128,-1,22
 438 87 438 87 462 126 c 128,-1,23
 486 165 486 165 499 217 c 128,-1,24
 512 269 512 269 512 328 c 0,25,26
 512 388 512 388 498.5 440 c 128,-1,27
 485 492 485 492 460 530.5 c 128,-1,28
 435 569 435 569 399.5 590.5 c 128,-1,29
 364 612 364 612 319 612 c 256,30,31
 274 612 274 612 240 590.5 c 128,-1,32
 206 569 206 569 183 531 c 128,-1,33
 160 493 160 493 148 441.5 c 128,-1,34
 136 390 136 390 136 329 c 0,35,36
 136 262 136 262 149.5 209 c 128,-1,37
 163 156 163 156 188 119 c 128,-1,38
 213 82 213 82 247 62 c 128,-1,39
 281 42 281 42 322 42 c 0,20,21
EndSplineSet
EndChar
StartChar: one
Encoding: 49 49 20
Width: 365
GlyphClass: 2
Flags: W
LayerCount: 2
Back
Fore
SplineSet
45 541 m 1,0,-1
 45 554 l 1,1,-1
 48 560 l 1,2,3
 152 611 152 611 207 663 c 1,4,-1
 214 663 l 1,5,-1
 236 654 l 1,6,7
 235 645 235 645 234 629.5 c 128,-1,8
 233 614 233 614 232.5 598 c 128,-1,9
 232 582 232 582 232 577 c 0,10,11
 229 534 229 534 229 399 c 2,12,-1
 229 258 l 2,13,14
 229 128 229 128 233 82 c 0,15,16
 235 53 235 53 257 33 c 0,17,18
 277 18 277 18 319 18 c 1,19,-1
 324 13 l 1,20,-1
 326 0 l 1,21,-1
 324 -4 l 1,22,23
 248 0 248 0 222 0 c 2,24,-1
 165 0 l 2,25,26
 139 0 139 0 63 -4 c 1,27,-1
 61 0 l 1,28,-1
 63 14 l 1,29,-1
 66 18 l 1,30,31
 114 18 114 18 131 33 c 0,32,33
 153 53 153 53 155 82 c 0,34,35
 159 127 159 127 159 234 c 2,36,-1
 159 397 l 2,37,38
 159 521 159 521 155 564 c 1,39,-1
 48 537 l 1,40,-1
 45 541 l 1,0,-1
EndSplineSet
EndChar
StartChar: two
Encoding: 50 50 207
Width: 536
Flags: W
LayerCount: 2
Back
Fore
SplineSet
60 546 m 1,0,-1
 63 555 l 1,1,2
 75 576 75 576 93 596 c 128,-1,3
 111 616 111 616 136.5 631 c 128,-1,4
 162 646 162 646 194.5 655.5 c 128,-1,5
 227 665 227 665 268 665 c 0,6,7
 373 665 373 665 419 618.5 c 128,-1,8
 465 572 465 572 465 493 c 0,9,10
 465 446 465 446 442.5 407 c 128,-1,11
 420 368 420 368 387 323 c 0,12,13
 359 285 359 285 321.5 242 c 128,-1,14
 284 199 284 199 250.5 160 c 128,-1,15
 217 121 217 121 193.5 91.5 c 128,-1,16
 170 62 170 62 170 51 c 1,17,-1
 172 48 l 1,18,-1
 250 48 l 2,19,20
 310 48 310 48 346 49.5 c 128,-1,21
 382 51 382 51 402 59 c 128,-1,22
 422 67 422 67 431.5 82.5 c 128,-1,23
 441 98 441 98 448 127 c 1,24,-1
 453 133 l 1,25,-1
 480 133 l 1,26,-1
 462 4 l 1,27,-1
 453 -6 l 1,28,29
 446 -6 446 -6 419.5 -5 c 128,-1,30
 393 -4 393 -4 361.5 -3 c 128,-1,31
 330 -2 330 -2 300.5 -1 c 128,-1,32
 271 0 271 0 258 0 c 2,33,-1
 159 0 l 2,34,35
 137 0 137 0 109.5 -2 c 128,-1,36
 82 -4 82 -4 56 -6 c 1,37,-1
 46 5 l 1,38,-1
 46 28 l 1,39,40
 68 56 68 56 105.5 98.5 c 128,-1,41
 143 141 143 141 185 188.5 c 128,-1,42
 227 236 227 236 268 284.5 c 128,-1,43
 309 333 309 333 338 373 c 0,44,45
 361 405 361 405 376.5 437 c 128,-1,46
 392 469 392 469 392 505 c 0,47,48
 392 555 392 555 354.5 583.5 c 128,-1,49
 317 612 317 612 262 612 c 0,50,51
 196 612 196 612 155 578.5 c 128,-1,52
 114 545 114 545 110 478 c 1,53,-1
 106 474 l 1,54,-1
 72 474 l 1,55,-1
 60 546 l 1,0,-1
EndSplineSet
Substitution2: "'sups' Superscript in Latin lookup 4 subtable" twosuperior
Substitution2: "'aalt' Access All Alternates in Latin lookup 0 subtable" twosuperior
EndChar
StartChar: three
Encoding: 51 51 202
Width: 544
Flags: W
LayerCount: 2
Back
Fore
SplineSet
101 147 m 1,0,1
 102 127 102 127 112.5 108 c 128,-1,2
 123 89 123 89 142.5 74.5 c 128,-1,3
 162 60 162 60 190.5 51 c 128,-1,4
 219 42 219 42 256 42 c 0,5,6
 301 42 301 42 331 55.5 c 128,-1,7
 361 69 361 69 379 90 c 128,-1,8
 397 111 397 111 404.5 136 c 128,-1,9
 412 161 412 161 412 185 c 0,10,11
 412 212 412 212 403.5 238.5 c 128,-1,12
 395 265 395 265 378 285.5 c 128,-1,13
 361 306 361 306 335 319 c 128,-1,14
 309 332 309 332 274 332 c 2,15,-1
 242 332 l 1,16,-1
 237 336 l 1,17,-1
 234 364 l 1,18,-1
 239 369 l 1,19,-1
 257 369 l 2,20,21
 286 369 286 369 308.5 380.5 c 128,-1,22
 331 392 331 392 346.5 410.5 c 128,-1,23
 362 429 362 429 370 453.5 c 128,-1,24
 378 478 378 478 378 504 c 0,25,26
 378 525 378 525 372 544.5 c 128,-1,27
 366 564 366 564 352 579 c 128,-1,28
 338 594 338 594 313.5 603 c 128,-1,29
 289 612 289 612 253 612 c 256,30,31
 217 612 217 612 193.5 602.5 c 128,-1,32
 170 593 170 593 155 575.5 c 128,-1,33
 140 558 140 558 132 533.5 c 128,-1,34
 124 509 124 509 120 478 c 1,35,-1
 116 474 l 1,36,-1
 83 474 l 1,37,-1
 71 546 l 1,38,-1
 73 555 l 1,39,40
 83 574 83 574 100.5 594 c 128,-1,41
 118 614 118 614 142.5 629.5 c 128,-1,42
 167 645 167 645 199 655 c 128,-1,43
 231 665 231 665 271 665 c 0,44,45
 305 665 305 665 338 655.5 c 128,-1,46
 371 646 371 646 396.5 627 c 128,-1,47
 422 608 422 608 438 579 c 128,-1,48
 454 550 454 550 454 511 c 0,49,50
 454 480 454 480 445 455 c 128,-1,51
 436 430 436 430 422 411 c 128,-1,52
 408 392 408 392 390.5 379.5 c 128,-1,53
 373 367 373 367 357 361 c 1,54,-1
 357 357 l 1,55,56
 417 346 417 346 452.5 299 c 128,-1,57
 488 252 488 252 488 189 c 0,58,59
 488 145 488 145 470.5 108 c 128,-1,60
 453 71 453 71 421.5 44.5 c 128,-1,61
 390 18 390 18 345 3.5 c 128,-1,62
 300 -11 300 -11 246 -11 c 0,63,64
 118 -11 118 -11 55 80 c 1,65,-1
 54 89 l 1,66,-1
 65 151 l 1,67,-1
 98 151 l 1,68,-1
 101 147 l 1,0,1
EndSplineSet
Substitution2: "'sups' Superscript in Latin lookup 4 subtable" threesuperior
Substitution2: "'aalt' Access All Alternates in Latin lookup 0 subtable" threesuperior
EndChar
StartChar: four
Encoding: 52 52 23
Width: 512
GlyphClass: 2
Flags: W
LayerCount: 2
Back
Fore
SplineSet
43 218 m 1,0,-1
 34 223 l 1,1,-1
 23 245 l 1,2,3
 74 334 74 334 167 473.5 c 128,-1,4
 260 613 260 613 293 656 c 1,5,-1
 358 665 l 1,6,-1
 366 665 l 1,7,-1
 378 654 l 1,8,9
 377 645 377 645 376 629.5 c 128,-1,10
 375 614 375 614 374.5 598 c 128,-1,11
 374 582 374 582 374 577 c 0,12,13
 371 534 371 534 371 399 c 2,14,-1
 371 270 l 1,15,-1
 436 270 l 1,16,-1
 440 264 l 1,17,-1
 429 223 l 1,18,-1
 422 218 l 1,19,-1
 371 218 l 1,20,21
 371 121 371 121 375 82 c 0,22,23
 377 52 377 52 400 33 c 0,24,25
 418 18 418 18 462 18 c 1,26,-1
 466 13 l 1,27,-1
 468 0 l 1,28,-1
 466 -4 l 1,29,30
 390 0 390 0 365 0 c 2,31,-1
 309 0 l 2,32,33
 272 0 272 0 196 -4 c 1,34,-1
 195 0 l 1,35,-1
 199 14 l 1,36,-1
 203 18 l 1,37,38
 258 18 258 18 274 33 c 0,39,40
 296 53 296 53 298 82 c 0,41,42
 302 126 302 126 302 218 c 1,43,-1
 43 218 l 1,0,-1
299 581 m 1,44,45
 261 537 261 537 197 440 c 128,-1,46
 133 343 133 343 98 270 c 1,47,-1
 302 270 l 1,48,-1
 302 397 l 2,49,50
 302 508 302 508 299 581 c 1,44,45
EndSplineSet
EndChar
StartChar: five
Encoding: 53 53 24
Width: 546
GlyphClass: 2
Flags: W
LayerCount: 2
Back
Fore
SplineSet
417 201 m 0,0,1
 417 338 417 338 270 338 c 0,2,3
 192 338 192 338 120 302 c 1,4,-1
 86 327 l 1,5,-1
 118 646 l 1,6,-1
 124 654 l 1,7,-1
 214 654 l 2,8,9
 311 654 311 654 416 662 c 1,10,-1
 425 654 l 1,11,-1
 440 546 l 1,12,-1
 434 539 l 1,13,-1
 416 539 l 1,14,-1
 410 544 l 1,15,16
 406 564 406 564 401.5 573.5 c 128,-1,17
 397 583 397 583 389.5 591 c 128,-1,18
 382 599 382 599 360.5 601.5 c 128,-1,19
 339 604 339 604 315 605 c 128,-1,20
 291 606 291 606 241 606 c 2,21,-1
 181 606 l 2,22,23
 175 606 175 606 175 601 c 2,24,-1
 155 377 l 1,25,26
 207 397 207 397 279 397 c 0,27,28
 323 397 323 397 359 387.5 c 128,-1,29
 395 378 395 378 425.5 357 c 128,-1,30
 456 336 456 336 473 298.5 c 128,-1,31
 490 261 490 261 490 209 c 0,32,33
 490 105 490 105 423 47 c 128,-1,34
 356 -11 356 -11 245 -11 c 0,35,36
 121 -11 121 -11 61 70 c 1,37,-1
 60 80 l 1,38,-1
 71 151 l 1,39,-1
 107 151 l 1,40,-1
 110 147 l 1,41,42
 112 100 112 100 149.5 71 c 128,-1,43
 187 42 187 42 255 42 c 0,44,45
 340 42 340 42 378.5 87 c 128,-1,46
 417 132 417 132 417 201 c 0,0,1
EndSplineSet
EndChar
StartChar: six
Encoding: 54 54 196
Width: 544
Flags: W
LayerCount: 2
Back
Fore
SplineSet
141 336 m 1,0,1
 157 358 157 358 175.5 370.5 c 128,-1,2
 194 383 194 383 213 390 c 128,-1,3
 232 397 232 397 250.5 399 c 128,-1,4
 269 401 269 401 284 401 c 0,5,6
 351 401 351 401 392.5 379.5 c 128,-1,7
 434 358 434 358 457 327.5 c 128,-1,8
 480 297 480 297 487.5 262 c 128,-1,9
 495 227 495 227 495 200 c 0,10,11
 495 163 495 163 483.5 125.5 c 128,-1,12
 472 88 472 88 446.5 57.5 c 128,-1,13
 421 27 421 27 380.5 8 c 128,-1,14
 340 -11 340 -11 283 -11 c 0,15,16
 223 -11 223 -11 181.5 11.5 c 128,-1,17
 140 34 140 34 114.5 75 c 128,-1,18
 89 116 89 116 78 174 c 128,-1,19
 67 232 67 232 67 303 c 0,20,21
 67 364 67 364 76 428.5 c 128,-1,22
 85 493 85 493 110.5 545.5 c 128,-1,23
 136 598 136 598 181 631.5 c 128,-1,24
 226 665 226 665 298 665 c 0,25,26
 314 665 314 665 335 663 c 128,-1,27
 356 661 356 661 378 655.5 c 128,-1,28
 400 650 400 650 421 641 c 128,-1,29
 442 632 442 632 457 618 c 1,30,-1
 442 555 l 1,31,-1
 424 555 l 1,32,33
 414 572 414 572 400 583 c 128,-1,34
 386 594 386 594 370 600.5 c 128,-1,35
 354 607 354 607 337 609.5 c 128,-1,36
 320 612 320 612 305 612 c 0,37,38
 257 612 257 612 225 590 c 128,-1,39
 193 568 193 568 173 534 c 128,-1,40
 153 500 153 500 144.5 458.5 c 128,-1,41
 136 417 136 417 136 377 c 0,42,43
 136 366 136 366 136.5 356.5 c 128,-1,44
 137 347 137 347 138 337 c 1,45,-1
 141 336 l 1,0,1
289 346 m 0,46,47
 217 346 217 346 181.5 307 c 128,-1,48
 146 268 146 268 146 203 c 0,49,50
 146 179 146 179 152 151 c 128,-1,51
 158 123 158 123 173 99 c 128,-1,52
 188 75 188 75 214.5 58.5 c 128,-1,53
 241 42 241 42 282 42 c 0,54,55
 351 42 351 42 389 87 c 128,-1,56
 427 132 427 132 427 202 c 0,57,58
 427 225 427 225 421.5 250.5 c 128,-1,59
 416 276 416 276 401 297 c 128,-1,60
 386 318 386 318 359 332 c 128,-1,61
 332 346 332 346 289 346 c 0,46,47
EndSplineSet
EndChar
StartChar: seven
Encoding: 55 55 195
Width: 512
Flags: W
LayerCount: 2
Back
Fore
SplineSet
199 0 m 1,0,1
 175 0 175 0 144 -2 c 128,-1,2
 113 -4 113 -4 93 -6 c 1,3,-1
 86 4 l 1,4,5
 124 71 124 71 162 139.5 c 128,-1,6
 200 208 200 208 234 272 c 128,-1,7
 268 336 268 336 297 393 c 128,-1,8
 326 450 326 450 347.5 494 c 128,-1,9
 369 538 369 538 381 566 c 128,-1,10
 393 594 393 594 393 602 c 1,11,-1
 388 606 l 1,12,-1
 252 606 l 2,13,14
 193 606 193 606 157.5 604 c 128,-1,15
 122 602 122 602 103 596 c 128,-1,16
 84 590 84 590 76.5 577.5 c 128,-1,17
 69 565 69 565 65 544 c 1,18,-1
 59 539 l 1,19,-1
 41 539 l 1,20,-1
 36 546 l 1,21,-1
 51 654 l 1,22,-1
 59 662 l 1,23,24
 139 658 139 658 219 656 c 128,-1,25
 299 654 299 654 364 654 c 2,26,-1
 501 654 l 1,27,-1
 506 651 l 1,28,-1
 501 626 l 1,29,30
 494 618 494 618 477.5 590 c 128,-1,31
 461 562 461 562 440 523.5 c 128,-1,32
 419 485 419 485 395 439.5 c 128,-1,33
 371 394 371 394 349 351.5 c 128,-1,34
 327 309 327 309 309 273.5 c 128,-1,35
 291 238 291 238 283 219 c 0,36,37
 260 168 260 168 241 118.5 c 128,-1,38
 222 69 222 69 204 7 c 1,39,-1
 199 0 l 1,0,1
EndSplineSet
EndChar
StartChar: eight
Encoding: 56 56 27
Width: 572
GlyphClass: 2
Flags: W
LayerCount: 2
Back
Fore
SplineSet
283 665 m 128,-1,1
 366 665 366 665 419.5 621.5 c 128,-1,2
 473 578 473 578 473 500 c 0,3,4
 473 401 473 401 386 367 c 1,5,6
 448 346 448 346 477.5 296.5 c 128,-1,7
 507 247 507 247 507 186 c 0,8,9
 507 104 507 104 454 46.5 c 128,-1,10
 401 -11 401 -11 285 -11 c 0,11,12
 170 -11 170 -11 117.5 46 c 128,-1,13
 65 103 65 103 65 186 c 0,14,15
 65 250 65 250 95.5 298 c 128,-1,16
 126 346 126 346 186 367 c 1,17,18
 99 403 99 403 99 501 c 0,19,20
 99 578 99 578 149.5 621.5 c 128,-1,0
 200 665 200 665 283 665 c 128,-1,1
284 335 m 0,21,22
 211 335 211 335 176 287.5 c 128,-1,23
 141 240 141 240 141 181 c 0,24,25
 141 129 141 129 176.5 85.5 c 128,-1,26
 212 42 212 42 286 42 c 0,27,28
 361 42 361 42 396 82.5 c 128,-1,29
 431 123 431 123 431 179 c 0,30,31
 431 241 431 241 394.5 288 c 128,-1,32
 358 335 358 335 284 335 c 0,21,22
397 504 m 0,33,34
 397 612 397 612 284 612 c 0,35,36
 175 612 175 612 175 506 c 0,37,38
 175 447 175 447 205 415.5 c 128,-1,39
 235 384 235 384 286 384 c 0,40,41
 334 384 334 384 365.5 419 c 128,-1,42
 397 454 397 454 397 504 c 0,33,34
EndSplineSet
EndChar
StartChar: nine
Encoding: 57 57 150
Width: 544
Flags: W
LayerCount: 2
Back
Fore
SplineSet
403 318 m 1,0,1
 386 296 386 296 367.5 283 c 128,-1,2
 349 270 349 270 330 263.5 c 128,-1,3
 311 257 311 257 293 255 c 128,-1,4
 275 253 275 253 260 253 c 0,5,6
 192 253 192 253 151 274.5 c 128,-1,7
 110 296 110 296 87 326.5 c 128,-1,8
 64 357 64 357 56.5 392 c 128,-1,9
 49 427 49 427 49 454 c 0,10,11
 49 491 49 491 60.5 528.5 c 128,-1,12
 72 566 72 566 97.5 596.5 c 128,-1,13
 123 627 123 627 163 646 c 128,-1,14
 203 665 203 665 261 665 c 0,15,16
 321 665 321 665 362.5 642.5 c 128,-1,17
 404 620 404 620 429.5 579 c 128,-1,18
 455 538 455 538 466 480 c 128,-1,19
 477 422 477 422 477 351 c 0,20,21
 477 289 477 289 467.5 225 c 128,-1,22
 458 161 458 161 432.5 108.5 c 128,-1,23
 407 56 407 56 362 22.5 c 128,-1,24
 317 -11 317 -11 245 -11 c 0,25,26
 229 -11 229 -11 208 -9 c 128,-1,27
 187 -7 187 -7 165 -2 c 128,-1,28
 143 3 143 3 122.5 12.5 c 128,-1,29
 102 22 102 22 87 36 c 1,30,-1
 102 99 l 1,31,-1
 120 99 l 1,32,33
 140 65 140 65 174 53.5 c 128,-1,34
 208 42 208 42 239 42 c 0,35,36
 287 42 287 42 319.5 62.5 c 128,-1,37
 352 83 352 83 371.5 117.5 c 128,-1,38
 391 152 391 152 399.5 196.5 c 128,-1,39
 408 241 408 241 408 288 c 2,40,-1
 408 296 l 2,41,42
 408 300 408 300 407.5 305.5 c 128,-1,43
 407 311 407 311 406 317 c 1,44,-1
 403 318 l 1,0,1
255 308 m 0,45,46
 327 308 327 308 362 347 c 128,-1,47
 397 386 397 386 397 451 c 0,48,49
 397 475 397 475 391 503 c 128,-1,50
 385 531 385 531 370 555 c 128,-1,51
 355 579 355 579 328.5 595.5 c 128,-1,52
 302 612 302 612 261 612 c 0,53,54
 193 612 193 612 155 567 c 128,-1,55
 117 522 117 522 117 452 c 0,56,57
 117 429 117 429 122.5 403.5 c 128,-1,58
 128 378 128 378 143 357 c 128,-1,59
 158 336 158 336 185 322 c 128,-1,60
 212 308 212 308 255 308 c 0,45,46
EndSplineSet
EndChar
StartChar: colon
Encoding: 58 58 29
Width: 227
GlyphClass: 2
Flags: W
LayerCount: 2
Back
Fore
SplineSet
67 35 m 128,-1,1
 67 54 67 54 80.5 68.5 c 128,-1,2
 94 83 94 83 113 83 c 128,-1,3
 132 83 132 83 146.5 68.5 c 128,-1,4
 161 54 161 54 161 35 c 128,-1,5
 161 16 161 16 146.5 2.5 c 128,-1,6
 132 -11 132 -11 113 -11 c 128,-1,7
 94 -11 94 -11 80.5 2.5 c 128,-1,0
 67 16 67 16 67 35 c 128,-1,1
67 408 m 0,8,9
 67 427 67 427 80.5 441 c 128,-1,10
 94 455 94 455 113 455 c 128,-1,11
 132 455 132 455 146.5 441 c 128,-1,12
 161 427 161 427 161 408 c 128,-1,13
 161 389 161 389 146.5 375 c 128,-1,14
 132 361 132 361 113 361 c 128,-1,15
 94 361 94 361 80.5 374.5 c 128,-1,16
 67 388 67 388 67 408 c 0,8,9
EndSplineSet
EndChar
StartChar: semicolon
Encoding: 59 59 30
Width: 237
GlyphClass: 2
Flags: W
LayerCount: 2
Back
Fore
SplineSet
73 408 m 0,0,1
 73 427 73 427 86.5 441 c 128,-1,2
 100 455 100 455 119 455 c 128,-1,3
 138 455 138 455 152.5 441 c 128,-1,4
 167 427 167 427 167 408 c 128,-1,5
 167 389 167 389 152.5 375 c 128,-1,6
 138 361 138 361 119 361 c 128,-1,7
 100 361 100 361 86.5 374.5 c 128,-1,8
 73 388 73 388 73 408 c 0,0,1
78 -77 m 1,9,-1
 73 -77 l 1,10,-1
 66 -71 l 1,11,-1
 66 -67 l 1,12,13
 90 -31 90 -31 90 1 c 0,14,15
 90 7 90 7 84 23 c 128,-1,16
 78 39 78 39 78 50 c 0,17,18
 78 65 78 65 97 74 c 128,-1,19
 116 83 116 83 137 83 c 0,20,21
 163 83 163 83 163 40 c 0,22,23
 163 5 163 5 133.5 -31 c 128,-1,24
 104 -67 104 -67 78 -77 c 1,9,-1
EndSplineSet
EndChar
StartChar: less
Encoding: 60 60 144
Width: 414
Flags: W
LayerCount: 2
Back
Fore
SplineSet
124 238 m 1,0,1
 175 203 175 203 231.5 168 c 128,-1,2
 288 133 288 133 342 101 c 1,3,-1
 342 94 l 1,4,-1
 333 56 l 1,5,-1
 329 52 l 1,6,7
 260 103 260 103 188 149.5 c 128,-1,8
 116 196 116 196 44 238 c 1,9,-1
 44 243 l 1,10,11
 116 285 116 285 188 331.5 c 128,-1,12
 260 378 260 378 329 429 c 1,13,-1
 333 425 l 1,14,-1
 342 387 l 1,15,-1
 342 380 l 1,16,17
 288 349 288 349 231.5 313.5 c 128,-1,18
 175 278 175 278 124 243 c 1,19,-1
 124 238 l 1,0,1
EndSplineSet
EndChar
StartChar: equal
Encoding: 61 61 32
Width: 488
GlyphClass: 2
Flags: W
LayerCount: 2
Back
Fore
SplineSet
84 189 m 1,0,-1
 413 189 l 1,1,-1
 403 137 l 1,2,-1
 75 137 l 1,3,-1
 84 189 l 1,0,-1
84 341 m 1,4,-1
 413 341 l 1,5,-1
 403 289 l 1,6,-1
 75 289 l 1,7,-1
 84 341 l 1,4,-1
EndSplineSet
EndChar
StartChar: greater
Encoding: 62 62 33
Width: 416
GlyphClass: 2
Flags: W
LayerCount: 2
Back
Fore
SplineSet
293 238 m 1,0,-1
 293 243 l 1,1,2
 196 311 196 311 75 380 c 1,3,-1
 75 387 l 1,4,-1
 84 425 l 1,5,-1
 88 429 l 1,6,7
 229 327 229 327 373 243 c 1,8,-1
 373 238 l 1,9,10
 229 154 229 154 88 52 c 1,11,-1
 84 56 l 1,12,-1
 75 94 l 1,13,-1
 75 101 l 1,14,15
 210 180 210 180 293 238 c 1,0,-1
EndSplineSet
EndChar
StartChar: question
Encoding: 63 63 178
Width: 424
Flags: W
LayerCount: 2
Back
Fore
SplineSet
220 172 m 1,0,-1
 214 165 l 1,1,-1
 179 149 l 1,2,-1
 173 153 l 1,3,4
 172 178 172 178 171 207 c 128,-1,5
 170 236 170 236 170 250 c 0,6,7
 170 290 170 290 191 324.5 c 128,-1,8
 212 359 212 359 237 393 c 128,-1,9
 262 427 262 427 283 463 c 128,-1,10
 304 499 304 499 304 543 c 0,11,12
 304 569 304 569 294.5 588 c 128,-1,13
 285 607 285 607 270.5 619.5 c 128,-1,14
 256 632 256 632 238.5 638 c 128,-1,15
 221 644 221 644 204 644 c 0,16,17
 177 644 177 644 155.5 635 c 128,-1,18
 134 626 134 626 117.5 610.5 c 128,-1,19
 101 595 101 595 91 574.5 c 128,-1,20
 81 554 81 554 78 532 c 1,21,-1
 76 529 l 1,22,-1
 58 529 l 1,23,-1
 46 622 l 1,24,-1
 48 631 l 1,25,26
 57 645 57 645 76.5 655.5 c 128,-1,27
 96 666 96 666 119.5 672.5 c 128,-1,28
 143 679 143 679 166.5 682.5 c 128,-1,29
 190 686 190 686 207 686 c 0,30,31
 228 686 228 686 256.5 679 c 128,-1,32
 285 672 285 672 310.5 654 c 128,-1,33
 336 636 336 636 353.5 605 c 128,-1,34
 371 574 371 574 371 526 c 0,35,36
 371 495 371 495 360.5 466.5 c 128,-1,37
 350 438 350 438 334 411.5 c 128,-1,38
 318 385 318 385 299.5 361 c 128,-1,39
 281 337 281 337 264.5 314.5 c 128,-1,40
 248 292 248 292 236.5 272 c 128,-1,41
 225 252 225 252 224 234 c 2,42,-1
 220 172 l 1,0,-1
150 36 m 0,43,44
 150 56 150 56 163.5 69.5 c 128,-1,45
 177 83 177 83 196 83 c 256,46,47
 215 83 215 83 229.5 69.5 c 128,-1,48
 244 56 244 56 244 36 c 0,49,50
 244 17 244 17 229.5 3 c 128,-1,51
 215 -11 215 -11 196 -11 c 256,52,53
 177 -11 177 -11 163.5 3 c 128,-1,54
 150 17 150 17 150 36 c 0,43,44
EndSplineSet
EndChar
StartChar: at
Encoding: 64 64 35
Width: 718
GlyphClass: 2
Flags: W
LayerCount: 2
Back
Fore
SplineSet
414 229 m 2,0,-1
 439 354 l 1,1,2
 433 360 433 360 414 360 c 0,3,4
 354 360 354 360 321.5 301.5 c 128,-1,5
 289 243 289 243 289 180 c 0,6,7
 289 116 289 116 321 116 c 0,8,9
 346 116 346 116 376 153 c 128,-1,10
 406 190 406 190 414 229 c 2,0,-1
592 11 m 1,11,-1
 575 -23 l 1,12,13
 549 -48 549 -48 484.5 -74.5 c 128,-1,14
 420 -101 420 -101 347 -101 c 0,15,16
 224 -101 224 -101 139 -23 c 128,-1,17
 54 55 54 55 54 180 c 0,18,19
 54 227 54 227 66.5 276.5 c 128,-1,20
 79 326 79 326 107.5 375 c 128,-1,21
 136 424 136 424 176 462.5 c 128,-1,22
 216 501 216 501 275.5 524.5 c 128,-1,23
 335 548 335 548 406 548 c 0,24,25
 474 548 474 548 527.5 526.5 c 128,-1,26
 581 505 581 505 613 469 c 128,-1,27
 645 433 645 433 661.5 390 c 128,-1,28
 678 347 678 347 678 301 c 0,29,30
 678 209 678 209 620.5 141.5 c 128,-1,31
 563 74 563 74 474 74 c 0,32,33
 429 74 429 74 415 92 c 128,-1,34
 401 110 401 110 401 147 c 1,35,36
 385 114 385 114 359 93.5 c 128,-1,37
 333 73 333 73 307 73 c 0,38,39
 274 73 274 73 248.5 105 c 128,-1,40
 223 137 223 137 223 193 c 0,41,42
 223 278 223 278 282.5 333.5 c 128,-1,43
 342 389 342 389 414 389 c 0,44,45
 480 389 480 389 512 356 c 1,46,-1
 475 178 l 2,47,48
 471 148 471 148 471 143 c 0,49,50
 471 115 471 115 500 115 c 0,51,52
 552 115 552 115 587.5 170.5 c 128,-1,53
 623 226 623 226 623 297 c 0,54,55
 623 381 623 381 567.5 444 c 128,-1,56
 512 507 512 507 405 507 c 0,57,58
 314 507 314 507 245 457 c 128,-1,59
 176 407 176 407 143.5 334 c 128,-1,60
 111 261 111 261 111 180 c 0,61,62
 111 61 111 61 181.5 1 c 128,-1,63
 252 -59 252 -59 357 -59 c 0,64,65
 430 -59 430 -59 488.5 -33.5 c 128,-1,66
 547 -8 547 -8 579 21 c 1,67,-1
 592 11 l 1,11,-1
EndSplineSet
EndChar
StartChar: A
Encoding: 65 65 36
Width: 675
GlyphClass: 2
Flags: W
LayerCount: 2
Back
Fore
SplineSet
361 665 m 1,0,-1
 372 665 l 1,1,-1
 536 211 l 2,2,3
 569 119 569 119 583 87 c 0,4,5
 597 56 597 56 614.5 40.5 c 128,-1,6
 632 25 632 25 644.5 22.5 c 128,-1,7
 657 20 657 20 679 20 c 1,8,-1
 684 16 l 1,9,-1
 687 -2 l 1,10,-1
 685 -6 l 2,11,12
 683 -6 683 -6 640 -3 c 128,-1,13
 597 0 597 0 586 0 c 2,14,-1
 553 0 l 2,15,16
 545 0 545 0 521.5 -1 c 128,-1,17
 498 -2 498 -2 471 -4 c 128,-1,18
 444 -6 444 -6 440 -6 c 2,19,-1
 438 -2 l 1,20,-1
 441 16 l 1,21,-1
 445 20 l 1,22,23
 477 20 477 20 491.5 28 c 128,-1,24
 506 36 506 36 506 62 c 0,25,26
 506 71 506 71 503.5 82.5 c 128,-1,27
 501 94 501 94 495.5 111.5 c 128,-1,28
 490 129 490 129 484 144 c 2,29,-1
 469 186 l 1,30,-1
 452 231 l 1,31,-1
 435 279 l 1,32,-1
 211 279 l 1,33,-1
 194 231 l 1,34,-1
 177 186 l 1,35,-1
 162 144 l 2,36,37
 156 129 156 129 150.5 111.5 c 128,-1,38
 145 94 145 94 142.5 82.5 c 128,-1,39
 140 71 140 71 140 62 c 0,40,41
 140 36 140 36 154.5 28 c 128,-1,42
 169 20 169 20 201 20 c 1,43,-1
 206 16 l 1,44,-1
 209 -2 l 1,45,-1
 207 -6 l 1,46,47
 201 -6 201 -6 176.5 -4 c 128,-1,48
 152 -2 152 -2 130 -1 c 128,-1,49
 108 0 108 0 100 0 c 2,50,-1
 81 0 l 2,51,52
 70 0 70 0 27 -3 c 128,-1,53
 -16 -6 -16 -6 -18 -6 c 2,54,-1
 -19 -2 l 1,55,-1
 -17 16 l 1,56,-1
 -12 20 l 1,57,58
 4 20 4 20 13.5 21.5 c 128,-1,59
 23 23 23 23 36.5 28.5 c 128,-1,60
 50 34 50 34 61.5 48.5 c 128,-1,61
 73 63 73 63 84 87 c 0,62,63
 95 109 95 109 214 414 c 2,64,-1
 265 543 l 1,65,-1
 302 635 l 1,66,-1
 361 665 l 1,0,-1
324 579 m 1,67,-1
 228 322 l 1,68,-1
 419 322 l 1,69,-1
 324 579 l 1,67,-1
EndSplineSet
EndChar
StartChar: B
Encoding: 66 66 9
Width: 587
Flags: W
LayerCount: 2
Back
Fore
SplineSet
157 0 m 2,0,1
 150 0 150 0 134 -1 c 128,-1,2
 118 -2 118 -2 101 -3 c 128,-1,3
 84 -4 84 -4 68 -5 c 128,-1,4
 52 -6 52 -6 45 -6 c 1,5,-1
 43 -2 l 1,6,-1
 46 16 l 1,7,-1
 51 20 l 1,8,9
 63 20 63 20 79 21.5 c 128,-1,10
 95 23 95 23 104 29 c 0,11,12
 112 35 112 35 119 48 c 128,-1,13
 126 61 126 61 129 87 c 0,14,15
 130 102 130 102 130.5 132 c 128,-1,16
 131 162 131 162 131 221 c 2,17,-1
 131 471 l 2,18,19
 131 491 131 491 131 516.5 c 128,-1,20
 131 542 131 542 129 567 c 0,21,22
 127 594 127 594 119.5 606 c 128,-1,23
 112 618 112 618 104 624 c 0,24,25
 95 629 95 629 85.5 631.5 c 128,-1,26
 76 634 76 634 51 634 c 1,27,-1
 46 638 l 1,28,-1
 43 656 l 1,29,-1
 45 660 l 1,30,31
 52 660 52 660 63.5 659 c 128,-1,32
 75 658 75 658 87.5 657 c 128,-1,33
 100 656 100 656 113 655 c 128,-1,34
 126 654 126 654 137 654 c 2,35,-1
 173 654 l 2,36,37
 184 654 184 654 198 654 c 128,-1,38
 212 654 212 654 226.5 654.5 c 128,-1,39
 241 655 241 655 253 655 c 128,-1,40
 265 655 265 655 272 655 c 0,41,42
 380 655 380 655 427 613.5 c 128,-1,43
 474 572 474 572 474 504 c 0,44,45
 474 474 474 474 466.5 451 c 128,-1,46
 459 428 459 428 446 410.5 c 128,-1,47
 433 393 433 393 417 380.5 c 128,-1,48
 401 368 401 368 383 359 c 1,49,50
 456 346 456 346 495.5 304 c 128,-1,51
 535 262 535 262 535 188 c 0,52,53
 535 138 535 138 517 102.5 c 128,-1,54
 499 67 499 67 466.5 44.5 c 128,-1,55
 434 22 434 22 389 11 c 128,-1,56
 344 0 344 0 290 0 c 2,57,-1
 157 0 l 2,0,1
202 332 m 1,58,59
 202 304 202 304 202 266 c 128,-1,60
 202 228 202 228 202.5 191.5 c 128,-1,61
 203 155 203 155 203.5 126 c 128,-1,62
 204 97 204 97 205 87 c 0,63,64
 207 60 207 60 216 54 c 128,-1,65
 225 48 225 48 240 48 c 2,66,-1
 301 48 l 2,67,68
 325 48 325 48 353.5 54 c 128,-1,69
 382 60 382 60 407 75 c 128,-1,70
 432 90 432 90 449 117 c 128,-1,71
 466 144 466 144 466 186 c 0,72,73
 466 222 466 222 453 249.5 c 128,-1,74
 440 277 440 277 417 295 c 128,-1,75
 394 313 394 313 363.5 322.5 c 128,-1,76
 333 332 333 332 297 332 c 2,77,-1
 202 332 l 1,58,59
249 369 m 2,78,79
 281 369 281 369 310 373 c 128,-1,80
 339 377 339 377 362 394 c 0,81,82
 384 408 384 408 398 434.5 c 128,-1,83
 412 461 412 461 412 497 c 0,84,85
 412 550 412 550 382 578 c 128,-1,86
 352 606 352 606 297 606 c 2,87,-1
 207 606 l 1,88,89
 205 577 205 577 204.5 557 c 128,-1,90
 204 537 204 537 203 522 c 128,-1,91
 202 507 202 507 202 495 c 128,-1,92
 202 483 202 483 202 472 c 2,93,-1
 202 410 l 2,94,95
 202 387 202 387 204 378 c 128,-1,96
 206 369 206 369 219 369 c 2,97,-1
 249 369 l 2,78,79
EndSplineSet
EndChar
StartChar: C
Encoding: 67 67 10
Width: 650
Flags: W
LayerCount: 2
Back
Fore
SplineSet
551 535 m 1,0,1
 548 557 548 557 532 572 c 128,-1,2
 516 587 516 587 492.5 596 c 128,-1,3
 469 605 469 605 440.5 608.5 c 128,-1,4
 412 612 412 612 384 612 c 0,5,6
 285 612 285 612 228 567 c 0,7,8
 181 529 181 529 157.5 466 c 128,-1,9
 134 403 134 403 134 328 c 0,10,11
 134 257 134 257 154.5 203.5 c 128,-1,12
 175 150 175 150 211 114 c 128,-1,13
 247 78 247 78 296.5 59.5 c 128,-1,14
 346 41 346 41 404 41 c 0,15,16
 445 41 445 41 498.5 52.5 c 128,-1,17
 552 64 552 64 600 97 c 1,18,-1
 610 86 l 1,19,-1
 588 41 l 1,20,21
 538 14 538 14 488.5 1.5 c 128,-1,22
 439 -11 439 -11 386 -11 c 0,23,24
 311 -11 311 -11 250 13 c 128,-1,25
 189 37 189 37 145.5 81.5 c 128,-1,26
 102 126 102 126 78 187.5 c 128,-1,27
 54 249 54 249 54 324 c 0,28,29
 54 394 54 394 75.5 456.5 c 128,-1,30
 97 519 97 519 139.5 565 c 128,-1,31
 182 611 182 611 244.5 638 c 128,-1,32
 307 665 307 665 390 665 c 0,33,34
 408 665 408 665 432.5 663.5 c 128,-1,35
 457 662 457 662 484 658 c 128,-1,36
 511 654 511 654 539 647.5 c 128,-1,37
 567 641 567 641 593 631 c 1,38,-1
 596 622 l 1,39,-1
 583 531 l 1,40,-1
 554 531 l 1,41,-1
 551 535 l 1,0,1
EndSplineSet
EndChar
StartChar: D
Encoding: 68 68 39
Width: 734
GlyphClass: 2
Flags: W
LayerCount: 2
Back
Fore
SplineSet
129 567 m 0,0,1
 125 608 125 608 104 624 c 0,2,3
 87 634 87 634 51 634 c 1,4,-1
 46 638 l 1,5,-1
 43 656 l 1,6,-1
 45 660 l 1,7,8
 51 660 51 660 72 658 c 128,-1,9
 93 656 93 656 114 655 c 128,-1,10
 135 654 135 654 148 654 c 2,11,-1
 205 654 l 2,12,13
 223 654 223 654 278 656 c 128,-1,14
 333 658 333 658 349 658 c 0,15,16
 500 658 500 658 589.5 563 c 128,-1,17
 679 468 679 468 679 328 c 0,18,19
 679 189 679 189 590 93.5 c 128,-1,20
 501 -2 501 -2 343 -2 c 0,21,22
 332 -2 332 -2 278.5 -1 c 128,-1,23
 225 0 225 0 210 0 c 2,24,-1
 157 0 l 2,25,26
 149 0 149 0 126 -1 c 128,-1,27
 103 -2 103 -2 76.5 -4 c 128,-1,28
 50 -6 50 -6 45 -6 c 1,29,-1
 43 -2 l 1,30,-1
 46 16 l 1,31,-1
 51 20 l 1,32,33
 90 20 90 20 104 29 c 0,34,35
 124 43 124 43 129 87 c 0,36,37
 131 127 131 127 131 211 c 2,38,-1
 131 414 l 2,39,40
 131 534 131 534 129 567 c 0,0,1
254 48 m 2,41,-1
 350 48 l 2,42,43
 466 48 466 48 532 127 c 128,-1,44
 598 206 598 206 598 328 c 0,45,46
 598 451 598 451 530 528.5 c 128,-1,47
 462 606 462 606 345 606 c 2,48,-1
 207 606 l 1,49,50
 202 511 202 511 202 415 c 2,51,-1
 202 231 l 2,52,53
 202 110 202 110 205 87 c 0,54,55
 208 62 208 62 217.5 55 c 128,-1,56
 227 48 227 48 254 48 c 2,41,-1
EndSplineSet
EndChar
StartChar: E
Encoding: 69 69 40
Width: 561
GlyphClass: 2
Flags: W
LayerCount: 2
Back
Fore
SplineSet
167 654 m 2,0,-1
 331 654 l 2,1,2
 351 654 351 654 423.5 656 c 128,-1,3
 496 658 496 658 499 658 c 2,4,-1
 504 648 l 1,5,-1
 500 539 l 1,6,-1
 475 539 l 1,7,-1
 471 543 l 1,8,9
 468 589 468 589 445.5 597.5 c 128,-1,10
 423 606 423 606 303 606 c 2,11,-1
 207 606 l 1,12,-1
 205 567 l 2,13,14
 202 512 202 512 202 415 c 2,15,-1
 202 366 l 1,16,17
 218 366 218 366 249 366.5 c 128,-1,18
 280 367 280 367 296.5 367.5 c 128,-1,19
 313 368 313 368 333.5 369.5 c 128,-1,20
 354 371 354 371 365.5 374.5 c 128,-1,21
 377 378 377 378 381 383 c 0,22,23
 401 405 401 405 401 422 c 1,24,-1
 406 427 l 1,25,-1
 423 429 l 1,26,-1
 427 427 l 1,27,28
 422 352 422 352 422 348 c 0,29,30
 422 339 422 339 427 259 c 1,31,-1
 423 257 l 1,32,-1
 405 259 l 1,33,-1
 401 262 l 1,34,35
 401 292 401 292 381 314 c 0,36,37
 376 319 376 319 365.5 322 c 128,-1,38
 355 325 355 325 334.5 326 c 128,-1,39
 314 327 314 327 298 327.5 c 128,-1,40
 282 328 282 328 250 328 c 2,41,-1
 202 328 l 1,42,-1
 202 231 l 2,43,44
 202 118 202 118 207 67 c 0,45,46
 207 48 207 48 227 48 c 2,47,-1
 312 48 l 2,48,49
 396 48 396 48 430 54 c 128,-1,50
 464 60 464 60 476.5 74.5 c 128,-1,51
 489 89 489 89 499 129 c 1,52,-1
 503 133 l 1,53,-1
 529 133 l 1,54,-1
 511 6 l 1,55,-1
 503 -4 l 2,56,57
 500 -4 500 -4 439.5 -2 c 128,-1,58
 379 0 379 0 359 0 c 2,59,-1
 157 0 l 2,60,61
 149 0 149 0 126 -1 c 128,-1,62
 103 -2 103 -2 76.5 -4 c 128,-1,63
 50 -6 50 -6 45 -6 c 1,64,-1
 43 -2 l 1,65,-1
 46 16 l 1,66,-1
 51 20 l 1,67,68
 91 20 91 20 104 30 c 0,69,70
 126 50 126 50 129 87 c 0,71,72
 131 127 131 127 131 211 c 2,73,-1
 131 414 l 2,74,75
 131 536 131 536 129 567 c 0,76,77
 127 603 127 603 104 624 c 0,78,79
 91 634 91 634 51 634 c 1,80,-1
 46 638 l 1,81,-1
 43 656 l 1,82,-1
 45 660 l 1,83,84
 159 654 159 654 167 654 c 2,0,-1
EndSplineSet
EndChar
StartChar: F
Encoding: 70 70 20
Width: 529
Flags: W
LayerCount: 2
Back
Fore
SplineSet
129 567 m 0,0,1
 127 595 127 595 119.5 606 c 128,-1,2
 112 617 112 617 104 624 c 0,3,4
 95 631 95 631 81 632.5 c 128,-1,5
 67 634 67 634 51 634 c 1,6,-1
 46 638 l 1,7,-1
 43 656 l 1,8,-1
 45 660 l 1,9,10
 52 660 52 660 68 659 c 128,-1,11
 84 658 84 658 101 657 c 128,-1,12
 118 656 118 656 134 655 c 128,-1,13
 150 654 150 654 157 654 c 2,14,-1
 331 654 l 2,15,16
 344 654 344 654 370.5 654.5 c 128,-1,17
 397 655 397 655 424 656 c 128,-1,18
 451 657 451 657 472.5 657.5 c 128,-1,19
 494 658 494 658 499 658 c 1,20,-1
 504 648 l 1,21,-1
 500 539 l 1,22,-1
 475 539 l 1,23,-1
 471 543 l 1,24,25
 469 566 469 566 465.5 579 c 128,-1,26
 462 592 462 592 445.5 598 c 128,-1,27
 429 604 429 604 396 605 c 128,-1,28
 363 606 363 606 303 606 c 2,29,-1
 207 606 l 1,30,-1
 205 567 l 2,31,32
 204 553 204 553 203.5 541 c 128,-1,33
 203 529 203 529 202.5 513 c 128,-1,34
 202 497 202 497 202 474 c 128,-1,35
 202 451 202 451 202 366 c 1,36,37
 232 367 232 367 262 367 c 128,-1,38
 292 367 292 367 316.5 368 c 128,-1,39
 341 369 341 369 358 372.5 c 128,-1,40
 375 376 375 376 381 383 c 0,41,42
 389 391 389 391 395 399 c 128,-1,43
 401 407 401 407 401 422 c 1,44,-1
 406 427 l 1,45,-1
 423 429 l 1,46,-1
 427 427 l 1,47,48
 425 404 425 404 423.5 387 c 128,-1,49
 422 370 422 370 422 348 c 0,50,51
 422 324 422 324 423.5 303.5 c 128,-1,52
 425 283 425 283 427 259 c 1,53,-1
 423 257 l 1,54,-1
 405 259 l 1,55,-1
 401 262 l 1,56,57
 401 278 401 278 395 291.5 c 128,-1,58
 389 305 389 305 381 314 c 0,59,60
 375 320 375 320 358 323 c 128,-1,61
 341 326 341 326 317 327 c 128,-1,62
 293 328 293 328 263 328 c 128,-1,63
 233 328 233 328 202 328 c 1,64,-1
 202 231 l 2,65,66
 202 195 202 195 202 172.5 c 128,-1,67
 202 150 202 150 202.5 135 c 128,-1,68
 203 120 203 120 203.5 109.5 c 128,-1,69
 204 99 204 99 205 87 c 0,70,71
 207 59 207 59 215.5 48 c 128,-1,72
 224 37 224 37 232 30 c 0,73,74
 241 23 241 23 258.5 21.5 c 128,-1,75
 276 20 276 20 292 20 c 1,76,-1
 297 16 l 1,77,-1
 300 -2 l 1,78,-1
 298 -6 l 1,79,80
 291 -6 291 -6 273.5 -5 c 128,-1,81
 256 -4 256 -4 237 -3 c 128,-1,82
 218 -2 218 -2 200.5 -1 c 128,-1,83
 183 0 183 0 176 0 c 2,84,-1
 157 0 l 2,85,86
 150 0 150 0 134 -1 c 128,-1,87
 118 -2 118 -2 101 -3 c 128,-1,88
 84 -4 84 -4 68 -5 c 128,-1,89
 52 -6 52 -6 45 -6 c 1,90,-1
 43 -2 l 1,91,-1
 46 16 l 1,92,-1
 51 20 l 1,93,94
 67 20 67 20 81 21.5 c 128,-1,95
 95 23 95 23 104 30 c 0,96,97
 112 37 112 37 119.5 48 c 128,-1,98
 127 59 127 59 129 87 c 0,99,100
 129 94 129 94 129.5 103.5 c 128,-1,101
 130 113 130 113 130.5 127 c 128,-1,102
 131 141 131 141 131 161 c 128,-1,103
 131 181 131 181 131 211 c 2,104,-1
 131 414 l 2,105,106
 131 449 131 449 131 473 c 128,-1,107
 131 497 131 497 130.5 514 c 128,-1,108
 130 531 130 531 129.5 543 c 128,-1,109
 129 555 129 555 129 567 c 0,0,1
EndSplineSet
EndChar
StartChar: G
Encoding: 71 71 21
Width: 708
Flags: W
LayerCount: 2
Back
Fore
SplineSet
607 25 m 1,0,1
 559 10 559 10 506.5 -0.5 c 128,-1,2
 454 -11 454 -11 397 -11 c 0,3,4
 310 -11 310 -11 245.5 15.5 c 128,-1,5
 181 42 181 42 138.5 88 c 128,-1,6
 96 134 96 134 75 195 c 128,-1,7
 54 256 54 256 54 324 c 0,8,9
 54 396 54 396 76.5 458 c 128,-1,10
 99 520 99 520 143 566 c 128,-1,11
 187 612 187 612 252 638.5 c 128,-1,12
 317 665 317 665 403 665 c 0,13,14
 421 665 421 665 446.5 663.5 c 128,-1,15
 472 662 472 662 500 658 c 128,-1,16
 528 654 528 654 557 647.5 c 128,-1,17
 586 641 586 641 612 631 c 1,18,-1
 614 622 l 1,19,-1
 597 525 l 1,20,-1
 569 525 l 1,21,-1
 565 528 l 1,22,23
 558 568 558 568 518.5 590 c 128,-1,24
 479 612 479 612 398 612 c 0,25,26
 285 612 285 612 226 565 c 0,27,28
 202 546 202 546 185 520 c 128,-1,29
 168 494 168 494 156.5 463 c 128,-1,30
 145 432 145 432 139.5 397.5 c 128,-1,31
 134 363 134 363 134 329 c 0,32,33
 134 262 134 262 153.5 209 c 128,-1,34
 173 156 173 156 207 119.5 c 128,-1,35
 241 83 241 83 288 63.5 c 128,-1,36
 335 44 335 44 390 44 c 0,37,38
 407 44 407 44 428.5 45.5 c 128,-1,39
 450 47 450 47 470.5 50 c 128,-1,40
 491 53 491 53 507 57 c 128,-1,41
 523 61 523 61 529 65 c 0,42,43
 537 70 537 70 537 86 c 0,44,45
 537 93 537 93 537 105 c 128,-1,46
 537 117 537 117 537 130.5 c 128,-1,47
 537 144 537 144 536.5 157.5 c 128,-1,48
 536 171 536 171 535 181 c 0,49,50
 533 207 533 207 524.5 220.5 c 128,-1,51
 516 234 516 234 510 238 c 0,52,53
 501 245 501 245 483 246.5 c 128,-1,54
 465 248 465 248 449 248 c 1,55,-1
 444 252 l 1,56,-1
 441 274 l 1,57,-1
 443 278 l 1,58,59
 450 278 450 278 465.5 277 c 128,-1,60
 481 276 481 276 497.5 275 c 128,-1,61
 514 274 514 274 529.5 273 c 128,-1,62
 545 272 545 272 552 272 c 2,63,-1
 582 272 l 2,64,65
 589 272 589 272 601 273 c 128,-1,66
 613 274 613 274 626 275 c 128,-1,67
 639 276 639 276 651 277 c 128,-1,68
 663 278 663 278 670 278 c 1,69,-1
 672 274 l 1,70,-1
 670 250 l 1,71,-1
 665 246 l 1,72,73
 636 246 636 246 624.5 229.5 c 128,-1,74
 613 213 613 213 611 181 c 0,75,76
 609 156 609 156 608.5 127.5 c 128,-1,77
 608 99 608 99 608 85 c 0,78,79
 608 70 608 70 608.5 52.5 c 128,-1,80
 609 35 609 35 611 30 c 1,81,-1
 607 25 l 1,0,1
EndSplineSet
EndChar
StartChar: H
Encoding: 72 72 43
Width: 760
GlyphClass: 2
Flags: W
LayerCount: 2
Back
Fore
SplineSet
717 -2 m 1,0,-1
 715 -6 l 1,1,2
 710 -6 710 -6 683.5 -4 c 128,-1,3
 657 -2 657 -2 634 -1 c 128,-1,4
 611 0 611 0 603 0 c 2,5,-1
 584 0 l 2,6,7
 576 0 576 0 553 -1 c 128,-1,8
 530 -2 530 -2 503.5 -4 c 128,-1,9
 477 -6 477 -6 472 -6 c 1,10,-1
 470 -2 l 1,11,-1
 473 16 l 1,12,-1
 477 20 l 1,13,14
 518 20 518 20 531 30 c 0,15,16
 551 48 551 48 555 87 c 0,17,18
 558 117 558 117 558 211 c 2,19,-1
 558 326 l 1,20,-1
 202 326 l 1,21,-1
 202 231 l 2,22,23
 202 134 202 134 205 87 c 0,24,25
 207 50 207 50 229 30 c 0,26,27
 242 20 242 20 283 20 c 1,28,-1
 287 16 l 1,29,-1
 290 -2 l 1,30,-1
 288 -6 l 1,31,32
 283 -6 283 -6 256.5 -4 c 128,-1,33
 230 -2 230 -2 207 -1 c 128,-1,34
 184 0 184 0 176 0 c 2,35,-1
 157 0 l 2,36,37
 149 0 149 0 126 -1 c 128,-1,38
 103 -2 103 -2 76.5 -4 c 128,-1,39
 50 -6 50 -6 45 -6 c 1,40,-1
 43 -2 l 1,41,-1
 46 16 l 1,42,-1
 51 20 l 1,43,44
 91 20 91 20 104 30 c 0,45,46
 126 50 126 50 129 87 c 0,47,48
 131 127 131 127 131 211 c 2,49,-1
 131 414 l 2,50,51
 131 536 131 536 128 567 c 0,52,53
 125 605 125 605 104 624 c 0,54,55
 91 634 91 634 51 634 c 1,56,-1
 46 638 l 1,57,-1
 43 656 l 1,58,-1
 45 660 l 1,59,60
 50 660 50 660 76.5 658 c 128,-1,61
 103 656 103 656 126 655 c 128,-1,62
 149 654 149 654 157 654 c 2,63,-1
 176 654 l 2,64,65
 184 654 184 654 207 655 c 128,-1,66
 230 656 230 656 256.5 658 c 128,-1,67
 283 660 283 660 288 660 c 1,68,-1
 290 656 l 1,69,-1
 287 638 l 1,70,-1
 283 634 l 1,71,72
 242 634 242 634 229 624 c 0,73,74
 207 604 207 604 205 567 c 0,75,76
 202 530 202 530 202 415 c 2,77,-1
 202 370 l 1,78,-1
 558 370 l 1,79,-1
 558 414 l 2,80,81
 558 520 558 520 555 567 c 0,82,83
 553 604 553 604 531 624 c 0,84,85
 518 634 518 634 477 634 c 1,86,-1
 473 638 l 1,87,-1
 470 656 l 1,88,-1
 472 660 l 1,89,90
 477 660 477 660 503.5 658 c 128,-1,91
 530 656 530 656 553 655 c 128,-1,92
 576 654 576 654 584 654 c 2,93,-1
 603 654 l 2,94,95
 611 654 611 654 634 655 c 128,-1,96
 657 656 657 656 683.5 658 c 128,-1,97
 710 660 710 660 715 660 c 1,98,-1
 717 656 l 1,99,-1
 714 638 l 1,100,-1
 709 634 l 1,101,102
 669 634 669 634 656 624 c 0,103,104
 634 604 634 604 631 567 c 0,105,106
 629 530 629 530 629 415 c 2,107,-1
 629 231 l 2,108,109
 629 118 629 118 631 87 c 0,110,111
 633 51 633 51 656 30 c 0,112,113
 669 20 669 20 709 20 c 1,114,-1
 714 16 l 1,115,-1
 717 -2 l 1,0,-1
EndSplineSet
EndChar
StartChar: I
Encoding: 73 73 44
Width: 334
GlyphClass: 2
Flags: W
LayerCount: 2
Back
Fore
SplineSet
288 660 m 1,0,-1
 290 656 l 1,1,-1
 287 638 l 1,2,-1
 283 634 l 1,3,4
 242 634 242 634 229 624 c 0,5,6
 207 604 207 604 205 567 c 0,7,8
 202 530 202 530 202 415 c 2,9,-1
 202 231 l 2,10,11
 202 134 202 134 205 87 c 0,12,13
 207 50 207 50 229 30 c 0,14,15
 242 20 242 20 283 20 c 1,16,-1
 287 16 l 1,17,-1
 290 -2 l 1,18,-1
 288 -6 l 1,19,20
 283 -6 283 -6 256.5 -4 c 128,-1,21
 230 -2 230 -2 207 -1 c 128,-1,22
 184 0 184 0 176 0 c 2,23,-1
 157 0 l 2,24,25
 149 0 149 0 126 -1 c 128,-1,26
 103 -2 103 -2 76.5 -4 c 128,-1,27
 50 -6 50 -6 45 -6 c 1,28,-1
 43 -2 l 1,29,-1
 46 16 l 1,30,-1
 51 20 l 1,31,32
 91 20 91 20 104 30 c 0,33,34
 126 50 126 50 129 87 c 0,35,36
 131 127 131 127 131 211 c 2,37,-1
 131 414 l 2,38,39
 131 536 131 536 128 567 c 0,40,41
 125 605 125 605 104 624 c 0,42,43
 91 634 91 634 51 634 c 1,44,-1
 46 638 l 1,45,-1
 43 656 l 1,46,-1
 45 660 l 1,47,48
 50 660 50 660 76.5 658 c 128,-1,49
 103 656 103 656 126 655 c 128,-1,50
 149 654 149 654 157 654 c 2,51,-1
 176 654 l 2,52,53
 184 654 184 654 207 655 c 128,-1,54
 230 656 230 656 256.5 658 c 128,-1,55
 283 660 283 660 288 660 c 1,0,-1
EndSplineSet
EndChar
StartChar: J
Encoding: 74 74 28
Width: 318
Flags: W
LayerCount: 2
Back
Fore
SplineSet
283 656 m 1,0,-1
 280 638 l 1,1,-1
 276 634 l 1,2,3
 260 634 260 634 245.5 632.5 c 128,-1,4
 231 631 231 631 222 624 c 0,5,6
 214 617 214 617 207 606 c 128,-1,7
 200 595 200 595 198 567 c 0,8,9
 197 553 197 553 196.5 541 c 128,-1,10
 196 529 196 529 195.5 513 c 128,-1,11
 195 497 195 497 195 474 c 128,-1,12
 195 451 195 451 195 415 c 2,13,-1
 195 231 l 2,14,15
 195 195 195 195 195 170.5 c 128,-1,16
 195 146 195 146 194.5 129 c 128,-1,17
 194 112 194 112 194 99.5 c 128,-1,18
 194 87 194 87 194 76 c 0,19,20
 194 36 194 36 185 -3 c 128,-1,21
 176 -42 176 -42 159.5 -73.5 c 128,-1,22
 143 -105 143 -105 118.5 -126 c 128,-1,23
 94 -147 94 -147 63 -153 c 0,24,25
 55 -155 55 -155 45 -155.5 c 128,-1,26
 35 -156 35 -156 27 -156 c 2,27,-1
 19 -153 l 1,28,-1
 17 -131 l 1,29,-1
 21 -126 l 1,30,31
 34 -126 34 -126 44 -125.5 c 128,-1,32
 54 -125 54 -125 64 -121 c 0,33,34
 76 -114 76 -114 87 -103 c 0,35,36
 115 -75 115 -75 119.5 1 c 128,-1,37
 124 77 124 77 124 211 c 2,38,-1
 124 414 l 2,39,40
 124 449 124 449 124 473 c 128,-1,41
 124 497 124 497 123.5 514 c 128,-1,42
 123 531 123 531 122.5 543 c 128,-1,43
 122 555 122 555 121 567 c 0,44,45
 119 594 119 594 112 605.5 c 128,-1,46
 105 617 105 617 97 624 c 0,47,48
 88 631 88 631 74 632.5 c 128,-1,49
 60 634 60 634 44 634 c 1,50,-1
 39 638 l 1,51,-1
 36 656 l 1,52,-1
 38 660 l 1,53,54
 45 660 45 660 61 659 c 128,-1,55
 77 658 77 658 94 657 c 128,-1,56
 111 656 111 656 127 655 c 128,-1,57
 143 654 143 654 150 654 c 2,58,-1
 169 654 l 2,59,60
 176 654 176 654 192 655 c 128,-1,61
 208 656 208 656 225 657 c 128,-1,62
 242 658 242 658 258 659 c 128,-1,63
 274 660 274 660 281 660 c 1,64,-1
 283 656 l 1,0,-1
EndSplineSet
EndChar
StartChar: K
Encoding: 75 75 46
Width: 656
GlyphClass: 2
Flags: W
LayerCount: 2
Back
Fore
SplineSet
288 660 m 1,0,-1
 290 656 l 1,1,-1
 287 638 l 1,2,-1
 283 634 l 1,3,4
 242 634 242 634 229 624 c 0,5,6
 207 604 207 604 205 567 c 0,7,8
 202 530 202 530 202 415 c 2,9,-1
 202 347 l 1,10,11
 261 383 261 383 342 464 c 0,12,13
 385 507 385 507 414 545 c 128,-1,14
 443 583 443 583 443 596 c 0,15,16
 443 602 443 602 441.5 607 c 128,-1,17
 440 612 440 612 436.5 615.5 c 128,-1,18
 433 619 433 619 430 621.5 c 128,-1,19
 427 624 427 624 420.5 626 c 128,-1,20
 414 628 414 628 411 629 c 128,-1,21
 408 630 408 630 400 631.5 c 128,-1,22
 392 633 392 633 389 634 c 2,23,-1
 384 638 l 1,24,-1
 384 656 l 1,25,-1
 389 660 l 1,26,27
 430 654 430 654 477 654 c 2,28,-1
 526 654 l 2,29,30
 562 654 562 654 606 660 c 1,31,-1
 610 656 l 1,32,-1
 610 638 l 1,33,-1
 606 634 l 1,34,35
 546 620 546 620 534 612 c 0,36,37
 522 605 522 605 505 586 c 2,38,-1
 453 528 l 1,39,-1
 382 452 l 1,40,-1
 302 370 l 1,41,42
 385 244 385 244 486 125 c 0,43,44
 532 71 532 71 565 49 c 128,-1,45
 598 27 598 27 661 20 c 1,46,-1
 667 16 l 1,47,-1
 669 -2 l 1,48,-1
 667 -6 l 1,49,50
 652 -6 652 -6 617 -8 c 128,-1,51
 582 -10 582 -10 573 -10 c 0,52,53
 525 -10 525 -10 494.5 12 c 128,-1,54
 464 34 464 34 412 99 c 0,55,56
 386 131 386 131 249 330 c 1,57,-1
 245 330 l 2,58,59
 241 327 241 327 226 317 c 128,-1,60
 211 307 211 307 202 299 c 1,61,-1
 202 231 l 2,62,63
 202 134 202 134 205 87 c 0,64,65
 207 50 207 50 229 30 c 0,66,67
 242 20 242 20 283 20 c 1,68,-1
 287 16 l 1,69,-1
 290 -2 l 1,70,-1
 288 -6 l 1,71,72
 283 -6 283 -6 256.5 -4 c 128,-1,73
 230 -2 230 -2 207 -1 c 128,-1,74
 184 0 184 0 176 0 c 2,75,-1
 157 0 l 2,76,77
 149 0 149 0 126 -1 c 128,-1,78
 103 -2 103 -2 76.5 -4 c 128,-1,79
 50 -6 50 -6 45 -6 c 1,80,-1
 43 -2 l 1,81,-1
 46 16 l 1,82,-1
 51 20 l 1,83,84
 91 20 91 20 104 30 c 0,85,86
 126 50 126 50 129 87 c 0,87,88
 131 127 131 127 131 211 c 2,89,-1
 131 414 l 2,90,91
 131 536 131 536 129 567 c 0,92,93
 127 603 127 603 104 624 c 0,94,95
 91 634 91 634 51 634 c 1,96,-1
 46 638 l 1,97,-1
 43 656 l 1,98,-1
 45 660 l 1,99,100
 50 660 50 660 76.5 658 c 128,-1,101
 103 656 103 656 126 655 c 128,-1,102
 149 654 149 654 157 654 c 2,103,-1
 176 654 l 2,104,105
 184 654 184 654 207 655 c 128,-1,106
 230 656 230 656 256.5 658 c 128,-1,107
 283 660 283 660 288 660 c 1,0,-1
EndSplineSet
EndChar
StartChar: L
Encoding: 76 76 47
Width: 514
GlyphClass: 2
Flags: W
LayerCount: 2
Back
Fore
SplineSet
129 567 m 0,0,1
 126 604 126 604 104 624 c 0,2,3
 91 634 91 634 51 634 c 1,4,-1
 46 638 l 1,5,-1
 43 656 l 1,6,-1
 45 660 l 1,7,8
 50 660 50 660 76.5 658 c 128,-1,9
 103 656 103 656 126 655 c 128,-1,10
 149 654 149 654 157 654 c 2,11,-1
 176 654 l 2,12,13
 184 654 184 654 207 655 c 128,-1,14
 230 656 230 656 256.5 658 c 128,-1,15
 283 660 283 660 288 660 c 1,16,-1
 290 656 l 1,17,-1
 287 638 l 1,18,-1
 283 634 l 1,19,20
 242 634 242 634 229 624 c 0,21,22
 207 604 207 604 205 567 c 0,23,24
 202 530 202 530 202 415 c 2,25,-1
 202 231 l 2,26,27
 202 180 202 180 205 87 c 1,28,-1
 207 67 l 2,29,30
 207 48 207 48 227 48 c 2,31,-1
 312 48 l 1,32,-1
 360 48 l 2,33,34
 378 48 378 48 395 50 c 128,-1,35
 412 52 412 52 421.5 52.5 c 128,-1,36
 431 53 431 53 440 58 c 2,37,-1
 452 65 l 2,38,39
 455 67 455 67 459 76 c 128,-1,40
 463 85 463 85 464 89 c 128,-1,41
 465 93 465 93 468 107 c 128,-1,42
 471 121 471 121 473 129 c 2,43,-1
 476 133 l 1,44,-1
 502 133 l 1,45,-1
 484 6 l 1,46,-1
 476 -4 l 2,47,48
 473 -4 473 -4 426 -2 c 128,-1,49
 379 0 379 0 359 0 c 2,50,-1
 157 0 l 2,51,52
 149 0 149 0 126 -1 c 128,-1,53
 103 -2 103 -2 76.5 -4 c 128,-1,54
 50 -6 50 -6 45 -6 c 1,55,-1
 43 -2 l 1,56,-1
 46 16 l 1,57,-1
 51 20 l 1,58,59
 91 20 91 20 104 30 c 0,60,61
 125 49 125 49 129 87 c 0,62,63
 131 127 131 127 131 211 c 2,64,-1
 131 414 l 2,65,66
 131 505 131 505 129 567 c 0,0,1
EndSplineSet
EndChar
StartChar: M
Encoding: 77 77 48
Width: 893
GlyphClass: 2
Flags: W
LayerCount: 2
Back
Fore
SplineSet
871 -2 m 1,0,-1
 870 -6 l 1,1,2
 865 -6 865 -6 838.5 -4 c 128,-1,3
 812 -2 812 -2 789 -1 c 128,-1,4
 766 0 766 0 758 0 c 2,5,-1
 739 0 l 2,6,7
 731 0 731 0 708 -1 c 128,-1,8
 685 -2 685 -2 658.5 -4 c 128,-1,9
 632 -6 632 -6 627 -6 c 1,10,-1
 624 -2 l 1,11,-1
 627 16 l 1,12,-1
 631 20 l 1,13,14
 672 20 672 20 684 30 c 0,15,16
 704 50 704 50 704 87 c 0,17,18
 704 132 704 132 699 211 c 0,19,20
 679 489 679 489 672 551 c 1,21,-1
 454 13 l 1,22,-1
 412 13 l 1,23,-1
 209 549 l 1,24,25
 208 537 208 537 206.5 522 c 128,-1,26
 205 507 205 507 203 476 c 2,27,-1
 199 415 l 1,28,-1
 185 231 l 2,29,30
 178 141 178 141 178 87 c 0,31,32
 178 49 178 49 199 30 c 0,33,34
 210 20 210 20 244 20 c 1,35,-1
 248 16 l 1,36,-1
 251 -2 l 1,37,-1
 249 -6 l 2,38,39
 246 -6 246 -6 205 -3 c 128,-1,40
 164 0 164 0 153 0 c 2,41,-1
 134 0 l 2,42,43
 126 0 126 0 103 -1 c 128,-1,44
 80 -2 80 -2 54 -4 c 128,-1,45
 28 -6 28 -6 23 -6 c 1,46,-1
 21 -2 l 1,47,-1
 24 16 l 1,48,-1
 30 20 l 1,49,50
 69 20 69 20 83 30 c 0,51,52
 107 50 107 50 112 87 c 0,53,54
 117 122 117 122 124 211 c 2,55,-1
 138 414 l 2,56,57
 146 520 146 520 146 567 c 0,58,59
 146 606 146 606 121 624 c 0,60,61
 108 634 108 634 68 634 c 1,62,-1
 63 638 l 1,63,-1
 60 656 l 1,64,-1
 62 660 l 1,65,66
 67 660 67 660 93.5 658 c 128,-1,67
 120 656 120 656 143 655 c 128,-1,68
 166 654 166 654 174 654 c 2,69,-1
 209 654 l 2,70,71
 225 654 225 654 249 658 c 1,72,-1
 254 655 l 1,73,74
 255 645 255 645 259.5 629 c 128,-1,75
 264 613 264 613 271.5 590.5 c 128,-1,76
 279 568 279 568 286 548 c 2,77,-1
 306 500 l 2,78,79
 317 470 317 470 323 452 c 2,80,-1
 391 267 l 2,81,82
 410 214 410 214 448 128 c 1,83,84
 464 152 464 152 549 367.5 c 128,-1,85
 634 583 634 583 644 654 c 1,86,-1
 649 658 l 1,87,88
 671 654 671 654 683 654 c 2,89,-1
 719 654 l 2,90,91
 727 654 727 654 750 655 c 128,-1,92
 773 656 773 656 799.5 658 c 128,-1,93
 826 660 826 660 831 660 c 1,94,-1
 833 656 l 1,95,-1
 830 638 l 1,96,-1
 825 634 l 1,97,98
 784 634 784 634 772 624 c 0,99,100
 747 604 747 604 747 567 c 0,101,102
 747 525 747 525 755 415 c 2,103,-1
 767 231 l 2,104,105
 775 126 775 126 781 87 c 0,106,107
 786 49 786 49 809 30 c 0,108,109
 822 20 822 20 863 20 c 1,110,-1
 868 16 l 1,111,-1
 871 -2 l 1,0,-1
EndSplineSet
Substitution2: "'salt' Stylistic Alternatives in Latin lookup 2 subtable" M.salt
Substitution2: "'aalt' Access All Alternates in Latin lookup 0 subtable" M.salt
EndChar
StartChar: N
Encoding: 78 78 33
Width: 746
Flags: W
LayerCount: 2
Back
Fore
SplineSet
708 656 m 1,0,-1
 706 638 l 1,1,-1
 701 634 l 1,2,3
 685 634 685 634 670.5 632.5 c 128,-1,4
 656 631 656 631 648 624 c 256,5,6
 640 617 640 617 633.5 606 c 128,-1,7
 627 595 627 595 625 567 c 0,8,9
 624 553 624 553 623.5 541 c 128,-1,10
 623 529 623 529 622.5 513 c 128,-1,11
 622 497 622 497 622 474 c 128,-1,12
 622 451 622 451 622 415 c 2,13,-1
 622 239 l 2,14,15
 622 183 622 183 622.5 147 c 128,-1,16
 623 111 623 111 623.5 85.5 c 128,-1,17
 624 60 624 60 625.5 40 c 128,-1,18
 627 20 627 20 629 -4 c 1,19,-1
 621 -9 l 1,20,-1
 559 -5 l 1,21,-1
 549 7 l 1,22,-1
 193 540 l 1,23,24
 193 530 193 530 192.5 520 c 128,-1,25
 192 510 192 510 192 495.5 c 128,-1,26
 192 481 192 481 192 462 c 128,-1,27
 192 443 192 443 192 415 c 2,28,-1
 192 231 l 2,29,30
 192 219 192 219 192 199.5 c 128,-1,31
 192 180 192 180 192.5 159 c 128,-1,32
 193 138 193 138 193.5 118.5 c 128,-1,33
 194 99 194 99 195 87 c 0,34,35
 197 62 197 62 203.5 49.5 c 128,-1,36
 210 37 210 37 220 30 c 0,37,38
 228 24 228 24 241 22 c 128,-1,39
 254 20 254 20 274 20 c 1,40,-1
 279 16 l 1,41,-1
 282 -2 l 1,42,-1
 280 -6 l 1,43,44
 273 -6 273 -6 258.5 -5 c 128,-1,45
 244 -4 244 -4 228 -3 c 128,-1,46
 212 -2 212 -2 197.5 -1 c 128,-1,47
 183 0 183 0 176 0 c 2,48,-1
 157 0 l 2,49,50
 150 0 150 0 134 -1 c 128,-1,51
 118 -2 118 -2 101 -3 c 128,-1,52
 84 -4 84 -4 68 -5 c 128,-1,53
 52 -6 52 -6 45 -6 c 1,54,-1
 43 -2 l 1,55,-1
 46 16 l 1,56,-1
 51 20 l 1,57,58
 69 20 69 20 81.5 21.5 c 128,-1,59
 94 23 94 23 104 30 c 0,60,61
 111 35 111 35 118.5 46.5 c 128,-1,62
 126 58 126 58 129 87 c 0,63,64
 130 94 130 94 130.5 103.5 c 128,-1,65
 131 113 131 113 131 127 c 128,-1,66
 131 141 131 141 131 161 c 128,-1,67
 131 181 131 181 131 211 c 2,68,-1
 131 414 l 2,69,70
 131 449 131 449 131 473 c 128,-1,71
 131 497 131 497 131 514 c 128,-1,72
 131 531 131 531 130.5 543 c 128,-1,73
 130 555 130 555 129 567 c 0,74,75
 127 588 127 588 120 602.5 c 128,-1,76
 113 617 113 617 104 624 c 256,77,78
 95 631 95 631 81.5 632.5 c 128,-1,79
 68 634 68 634 51 634 c 1,80,-1
 46 638 l 1,81,-1
 43 656 l 1,82,-1
 45 660 l 1,83,84
 52 660 52 660 65.5 659 c 128,-1,85
 79 658 79 658 93 657 c 128,-1,86
 107 656 107 656 120.5 655 c 128,-1,87
 134 654 134 654 141 654 c 2,88,-1
 176 654 l 2,89,90
 184 654 184 654 198.5 655 c 128,-1,91
 213 656 213 656 222 658 c 1,92,-1
 227 655 l 1,93,94
 231 641 231 641 243.5 616.5 c 128,-1,95
 256 592 256 592 273.5 562 c 128,-1,96
 291 532 291 532 311.5 498 c 128,-1,97
 332 464 332 464 353 431 c 0,98,99
 429 309 429 309 485.5 232 c 128,-1,100
 542 155 542 155 558 132 c 1,101,102
 558 139 558 139 558.5 145 c 128,-1,103
 559 151 559 151 559 159 c 128,-1,104
 559 167 559 167 559 179 c 128,-1,105
 559 191 559 191 559 211 c 2,106,-1
 559 414 l 2,107,108
 559 449 559 449 559 473 c 128,-1,109
 559 497 559 497 558.5 514 c 128,-1,110
 558 531 558 531 557.5 543 c 128,-1,111
 557 555 557 555 556 567 c 0,112,113
 554 595 554 595 547 606 c 128,-1,114
 540 617 540 617 532 624 c 0,115,116
 523 631 523 631 508.5 632.5 c 128,-1,117
 494 634 494 634 478 634 c 1,118,-1
 474 638 l 1,119,-1
 471 656 l 1,120,-1
 473 660 l 1,121,122
 480 660 480 660 493 659 c 128,-1,123
 506 658 506 658 519.5 657 c 128,-1,124
 533 656 533 656 546 655 c 128,-1,125
 559 654 559 654 566 654 c 2,126,-1
 613 654 l 2,127,128
 620 654 620 654 633 654.5 c 128,-1,129
 646 655 646 655 660 656 c 128,-1,130
 674 657 674 657 687 658 c 128,-1,131
 700 659 700 659 707 660 c 1,132,-1
 708 656 l 1,0,-1
EndSplineSet
EndChar
StartChar: P
Encoding: 80 80 51
Width: 548
GlyphClass: 2
Flags: W
LayerCount: 2
Back
Fore
SplineSet
290 -2 m 1,0,-1
 288 -6 l 1,1,2
 283 -6 283 -6 256.5 -4 c 128,-1,3
 230 -2 230 -2 207 -1 c 128,-1,4
 184 0 184 0 176 0 c 2,5,-1
 157 0 l 2,6,7
 149 0 149 0 126 -1 c 128,-1,8
 103 -2 103 -2 76.5 -4 c 128,-1,9
 50 -6 50 -6 45 -6 c 1,10,-1
 43 -2 l 1,11,-1
 46 16 l 1,12,-1
 51 20 l 1,13,14
 90 20 90 20 104 29 c 0,15,16
 124 43 124 43 129 87 c 0,17,18
 131 127 131 127 131 211 c 2,19,-1
 131 471 l 2,20,21
 131 534 131 534 129 567 c 0,22,23
 127 605 127 605 104 624 c 0,24,25
 87 634 87 634 51 634 c 1,26,-1
 46 638 l 1,27,-1
 43 656 l 1,28,-1
 45 660 l 2,29,30
 47 660 47 660 83.5 657 c 128,-1,31
 120 654 120 654 137 654 c 2,32,-1
 173 654 l 2,33,34
 189 654 189 654 226.5 654.5 c 128,-1,35
 264 655 264 655 273 655 c 0,36,37
 518 655 518 655 518 474 c 0,38,39
 518 419 518 419 494.5 379 c 128,-1,40
 471 339 471 339 431.5 319 c 128,-1,41
 392 299 392 299 349.5 290.5 c 128,-1,42
 307 282 307 282 258 282 c 2,43,-1
 202 282 l 1,44,45
 202 129 202 129 205 87 c 0,46,47
 207 49 207 49 229 30 c 0,48,49
 246 20 246 20 283 20 c 1,50,-1
 287 16 l 1,51,-1
 290 -2 l 1,0,-1
240 326 m 2,52,-1
 293 326 l 2,53,54
 449 326 449 326 449 469 c 0,55,56
 449 536 449 536 408 571 c 128,-1,57
 367 606 367 606 294 606 c 2,58,-1
 207 606 l 1,59,60
 202 511 202 511 202 472 c 2,61,-1
 202 363 l 2,62,63
 202 338 202 338 208 332 c 128,-1,64
 214 326 214 326 240 326 c 2,52,-1
EndSplineSet
EndChar
StartChar: Q
Encoding: 81 81 52
Width: 763
GlyphClass: 2
Flags: W
LayerCount: 2
Back
Fore
SplineSet
382 665 m 128,-1,1
 532 665 532 665 620.5 567.5 c 128,-1,2
 709 470 709 470 709 329 c 0,3,4
 709 195 709 195 626.5 96.5 c 128,-1,5
 544 -2 544 -2 399 -10 c 1,6,7
 472 -11 472 -11 567.5 -46.5 c 128,-1,8
 663 -82 663 -82 714 -82 c 0,9,10
 757 -82 757 -82 789 -63 c 1,11,-1
 792 -65 l 1,12,-1
 796 -73 l 1,13,-1
 795 -77 l 1,14,15
 742 -138 742 -138 674 -138 c 0,16,17
 637 -138 637 -138 588 -116 c 128,-1,18
 539 -94 539 -94 480.5 -72 c 128,-1,19
 422 -50 422 -50 363 -50 c 0,20,21
 282 -50 282 -50 252 -71 c 1,22,-1
 249 -70 l 1,23,-1
 244 -56 l 1,24,-1
 245 -53 l 1,25,26
 299 -16 299 -16 369 -11 c 1,27,28
 220 -10 220 -10 137.5 85.5 c 128,-1,29
 55 181 55 181 55 322 c 0,30,31
 55 469 55 469 143.5 567 c 128,-1,0
 232 665 232 665 382 665 c 128,-1,1
381 42 m 0,32,33
 496 42 496 42 564 124 c 128,-1,34
 632 206 632 206 632 328 c 0,35,36
 632 452 632 452 562.5 532 c 128,-1,37
 493 612 493 612 376 612 c 0,38,39
 261 612 261 612 197 533.5 c 128,-1,40
 133 455 133 455 133 329 c 0,41,42
 133 197 133 197 201.5 119.5 c 128,-1,43
 270 42 270 42 381 42 c 0,32,33
EndSplineSet
EndChar
StartChar: R
Encoding: 82 82 53
Width: 634
GlyphClass: 2
Flags: W
LayerCount: 2
Back
Fore
SplineSet
291 -2 m 1,0,-1
 289 -6 l 1,1,2
 284 -6 284 -6 257.5 -4 c 128,-1,3
 231 -2 231 -2 208 -1 c 128,-1,4
 185 0 185 0 177 0 c 2,5,-1
 158 0 l 2,6,7
 150 0 150 0 127 -1 c 128,-1,8
 104 -2 104 -2 77.5 -4 c 128,-1,9
 51 -6 51 -6 46 -6 c 1,10,-1
 44 -2 l 1,11,-1
 47 16 l 1,12,-1
 52 20 l 1,13,14
 92 20 92 20 105 29 c 0,15,16
 125 43 125 43 130 87 c 0,17,18
 132 127 132 127 132 211 c 2,19,-1
 132 471 l 2,20,21
 132 518 132 518 129 567 c 0,22,23
 126 606 126 606 105 624 c 0,24,25
 88 634 88 634 52 634 c 1,26,-1
 47 638 l 1,27,-1
 44 656 l 1,28,-1
 46 660 l 2,29,30
 48 660 48 660 84.5 657 c 128,-1,31
 121 654 121 654 138 654 c 2,32,-1
 174 654 l 2,33,34
 190 654 190 654 227.5 654.5 c 128,-1,35
 265 655 265 655 274 655 c 0,36,37
 401 655 401 655 460 609 c 128,-1,38
 519 563 519 563 519 485 c 128,-1,39
 519 407 519 407 469.5 361.5 c 128,-1,40
 420 316 420 316 351 300 c 1,41,42
 420 204 420 204 487 125 c 0,43,44
 533 71 533 71 566 49 c 128,-1,45
 599 27 599 27 662 20 c 1,46,-1
 668 16 l 1,47,-1
 670 -2 l 1,48,-1
 668 -6 l 1,49,50
 652 -6 652 -6 618 -8 c 128,-1,51
 584 -10 584 -10 574 -10 c 0,52,53
 526 -10 526 -10 496 12 c 128,-1,54
 466 34 466 34 413 99 c 0,55,56
 402 110 402 110 276 293 c 1,57,-1
 203 293 l 1,58,59
 203 129 203 129 206 87 c 0,60,61
 208 49 208 49 230 30 c 0,62,63
 247 20 247 20 284 20 c 1,64,-1
 288 16 l 1,65,-1
 291 -2 l 1,0,-1
241 337 m 2,66,-1
 294 337 l 2,67,68
 450 337 450 337 450 479 c 0,69,70
 450 539 450 539 408.5 572.5 c 128,-1,71
 367 606 367 606 295 606 c 2,72,-1
 208 606 l 1,73,74
 203 511 203 511 203 472 c 2,75,-1
 203 374 l 2,76,77
 203 348 203 348 209 342.5 c 128,-1,78
 215 337 215 337 241 337 c 2,66,-1
EndSplineSet
EndChar
StartChar: S
Encoding: 83 83 54
Width: 550
GlyphClass: 2
Flags: W
LayerCount: 2
Back
Fore
SplineSet
138 508 m 0,0,1
 138 457 138 457 173 433.5 c 128,-1,2
 208 410 208 410 305 379 c 0,3,4
 349 365 349 365 379.5 351 c 128,-1,5
 410 337 410 337 441.5 314 c 128,-1,6
 473 291 473 291 489 256 c 128,-1,7
 505 221 505 221 505 175 c 0,8,9
 505 110 505 110 470.5 67 c 128,-1,10
 436 24 436 24 383.5 6.5 c 128,-1,11
 331 -11 331 -11 264 -11 c 0,12,13
 154 -11 154 -11 59 38 c 1,14,-1
 55 51 l 1,15,-1
 72 158 l 1,16,-1
 97 158 l 1,17,-1
 102 152 l 1,18,19
 112 34 112 34 271 34 c 0,20,21
 347 34 347 34 387.5 69 c 128,-1,22
 428 104 428 104 428 162 c 0,23,24
 428 185 428 185 422 203.5 c 128,-1,25
 416 222 416 222 401 236.5 c 128,-1,26
 386 251 386 251 374.5 260.5 c 128,-1,27
 363 270 363 270 336 280 c 2,28,-1
 298 296 l 2,29,30
 286 300 286 300 254 310 c 0,31,32
 162 339 162 339 113.5 380 c 128,-1,33
 65 421 65 421 65 494 c 0,34,35
 65 583 65 583 123.5 624 c 128,-1,36
 182 665 182 665 278 665 c 0,37,38
 382 665 382 665 458 631 c 1,39,-1
 462 620 l 1,40,-1
 448 531 l 1,41,-1
 420 531 l 1,42,-1
 415 536 l 1,43,44
 413 568 413 568 387 588 c 128,-1,45
 361 608 361 608 334 613 c 128,-1,46
 307 618 307 618 277 618 c 0,47,48
 212 618 212 618 175 589 c 128,-1,49
 138 560 138 560 138 508 c 0,0,1
EndSplineSet
EndChar
StartChar: T
Encoding: 84 84 55
Width: 589
GlyphClass: 2
Flags: W
LayerCount: 2
Back
Fore
SplineSet
433 -2 m 1,0,-1
 431 -6 l 1,1,2
 426 -6 426 -6 401 -4 c 128,-1,3
 376 -2 376 -2 353.5 -1 c 128,-1,4
 331 0 331 0 323 0 c 2,5,-1
 266 0 l 2,6,7
 258 0 258 0 236 -1 c 128,-1,8
 214 -2 214 -2 189.5 -4 c 128,-1,9
 165 -6 165 -6 159 -6 c 1,10,-1
 157 -2 l 1,11,-1
 160 16 l 1,12,-1
 165 20 l 1,13,14
 217 20 217 20 229 30 c 0,15,16
 254 50 254 50 257 87 c 0,17,18
 260 117 260 117 260 211 c 2,19,-1
 260 414 l 2,20,21
 260 504 260 504 257 606 c 1,22,-1
 246 606 l 2,23,24
 87 606 87 606 70 595 c 0,25,26
 48 583 48 583 43 543 c 1,27,-1
 39 539 l 1,28,-1
 16 539 l 1,29,-1
 23 653 l 1,30,-1
 27 662 l 1,31,-1
 33 665 l 1,32,33
 60 654 60 654 231 654 c 2,34,-1
 357 654 l 2,35,36
 529 654 529 654 555 665 c 1,37,-1
 561 662 l 1,38,-1
 565 653 l 1,39,-1
 573 539 l 1,40,-1
 549 539 l 1,41,-1
 545 543 l 1,42,43
 540 583 540 583 518 595 c 0,44,45
 501 606 501 606 343 606 c 2,46,-1
 332 606 l 1,47,48
 330 530 330 530 330 415 c 2,49,-1
 330 231 l 2,50,51
 330 134 330 134 333 87 c 0,52,53
 336 50 336 50 361 30 c 0,54,55
 373 20 373 20 425 20 c 1,56,-1
 430 16 l 1,57,-1
 433 -2 l 1,0,-1
EndSplineSet
EndChar
StartChar: U
Encoding: 85 85 56
Width: 723
GlyphClass: 2
Flags: W
LayerCount: 2
Back
Fore
SplineSet
695 660 m 1,0,-1
 697 656 l 1,1,-1
 694 638 l 1,2,-1
 690 634 l 1,3,4
 649 634 649 634 636 624 c 0,5,6
 614 604 614 604 612 567 c 0,7,8
 609 520 609 520 609 414 c 2,9,-1
 609 222 l 2,10,11
 609 119 609 119 547.5 54 c 128,-1,12
 486 -11 486 -11 368 -11 c 0,13,14
 235 -11 235 -11 174.5 52.5 c 128,-1,15
 114 116 114 116 114 222 c 2,16,-1
 114 414 l 2,17,18
 114 536 114 536 112 567 c 0,19,20
 110 603 110 603 87 624 c 0,21,22
 74 634 74 634 34 634 c 1,23,-1
 29 638 l 1,24,-1
 26 656 l 1,25,-1
 28 660 l 1,26,27
 33 660 33 660 59.5 658 c 128,-1,28
 86 656 86 656 109 655 c 128,-1,29
 132 654 132 654 140 654 c 2,30,-1
 159 654 l 2,31,32
 167 654 167 654 190 655 c 128,-1,33
 213 656 213 656 239.5 658 c 128,-1,34
 266 660 266 660 271 660 c 1,35,-1
 273 656 l 1,36,-1
 270 638 l 1,37,-1
 266 634 l 1,38,39
 225 634 225 634 212 624 c 0,40,41
 190 604 190 604 188 567 c 0,42,43
 185 530 185 530 185 415 c 2,44,-1
 185 250 l 2,45,46
 185 48 185 48 368 48 c 0,47,48
 552 48 552 48 552 250 c 2,49,-1
 552 415 l 2,50,51
 552 530 552 530 549 567 c 0,52,53
 546 606 546 606 524 624 c 0,54,55
 512 634 512 634 471 634 c 1,56,-1
 466 638 l 1,57,-1
 463 656 l 1,58,-1
 465 660 l 2,59,60
 466 660 466 660 510.5 657 c 128,-1,61
 555 654 555 654 566 654 c 2,62,-1
 588 654 l 2,63,64
 596 654 596 654 618 655 c 128,-1,65
 640 656 640 656 664.5 658 c 128,-1,66
 689 660 689 660 695 660 c 1,0,-1
EndSplineSet
EndChar
StartChar: V
Encoding: 86 86 57
Width: 674
GlyphClass: 2
Flags: W
LayerCount: 2
Back
Fore
SplineSet
314 -11 m 1,0,-1
 302 -11 l 1,1,-1
 139 443 l 2,2,3
 104 537 104 537 91 567 c 0,4,5
 77 598 77 598 59.5 614 c 128,-1,6
 42 630 42 630 30 632 c 128,-1,7
 18 634 18 634 -5 634 c 1,8,-1
 -10 638 l 1,9,-1
 -12 656 l 1,10,-1
 -11 660 l 2,11,12
 -9 660 -9 660 34 657 c 128,-1,13
 77 654 77 654 88 654 c 2,14,-1
 122 654 l 2,15,16
 130 654 130 654 153.5 655 c 128,-1,17
 177 656 177 656 204 658 c 128,-1,18
 231 660 231 660 235 660 c 2,19,-1
 237 656 l 1,20,-1
 234 638 l 1,21,-1
 229 634 l 1,22,23
 197 634 197 634 182.5 626 c 128,-1,24
 168 618 168 618 168 592 c 0,25,26
 168 583 168 583 170.5 571.5 c 128,-1,27
 173 560 173 560 178.5 542.5 c 128,-1,28
 184 525 184 525 190 510 c 2,29,-1
 205 468 l 1,30,-1
 222 423 l 1,31,-1
 290 239 l 2,32,33
 348 80 348 80 350 74 c 2,34,-1
 412 239 l 1,35,-1
 480 423 l 1,36,-1
 497 468 l 1,37,-1
 512 510 l 2,38,39
 518 525 518 525 523.5 542.5 c 128,-1,40
 529 560 529 560 531.5 571.5 c 128,-1,41
 534 583 534 583 534 592 c 0,42,43
 534 618 534 618 519.5 626 c 128,-1,44
 505 634 505 634 473 634 c 1,45,-1
 468 638 l 1,46,-1
 466 656 l 1,47,-1
 468 660 l 1,48,49
 474 660 474 660 498 658 c 128,-1,50
 522 656 522 656 544 655 c 128,-1,51
 566 654 566 654 574 654 c 2,52,-1
 593 654 l 2,53,54
 604 654 604 654 647 657 c 128,-1,55
 690 660 690 660 692 660 c 2,56,-1
 694 656 l 1,57,-1
 691 638 l 1,58,-1
 686 634 l 1,59,60
 664 634 664 634 652 631.5 c 128,-1,61
 640 629 640 629 622.5 613.5 c 128,-1,62
 605 598 605 598 590 567 c 0,63,64
 572 526 572 526 460 240 c 2,65,-1
 424 147 l 1,66,-1
 386 52 l 2,67,68
 370 13 370 13 366 0 c 1,69,-1
 314 -11 l 1,0,-1
EndSplineSet
EndChar
StartChar: W
Encoding: 87 87 58
Width: 1096
GlyphClass: 2
Flags: W
LayerCount: 2
Back
Fore
SplineSet
314 -11 m 1,0,-1
 302 -11 l 1,1,-1
 139 443 l 2,2,3
 104 537 104 537 91 567 c 0,4,5
 77 598 77 598 59.5 614 c 128,-1,6
 42 630 42 630 30 632 c 128,-1,7
 18 634 18 634 -5 634 c 1,8,-1
 -10 638 l 1,9,-1
 -12 656 l 1,10,-1
 -11 660 l 2,11,12
 -9 660 -9 660 34 657 c 128,-1,13
 77 654 77 654 88 654 c 2,14,-1
 122 654 l 2,15,16
 130 654 130 654 153.5 655 c 128,-1,17
 177 656 177 656 204 658 c 128,-1,18
 231 660 231 660 235 660 c 2,19,-1
 237 656 l 1,20,-1
 234 638 l 1,21,-1
 229 634 l 1,22,23
 197 634 197 634 182.5 626 c 128,-1,24
 168 618 168 618 168 592 c 0,25,26
 168 583 168 583 170.5 571.5 c 128,-1,27
 173 560 173 560 178.5 542.5 c 128,-1,28
 184 525 184 525 190 510 c 2,29,-1
 205 468 l 1,30,-1
 222 423 l 1,31,-1
 290 239 l 2,32,33
 348 80 348 80 350 74 c 2,34,-1
 412 239 l 1,35,-1
 480 423 l 1,36,-1
 497 468 l 1,37,-1
 514 514 l 1,38,-1
 525 546 l 2,39,40
 524 548 524 548 521 555.5 c 128,-1,41
 518 563 518 563 517 567 c 0,42,43
 503 602 503 602 486.5 618 c 128,-1,44
 470 634 470 634 436 634 c 1,45,-1
 431 638 l 1,46,-1
 429 656 l 1,47,-1
 430 660 l 2,48,49
 434 660 434 660 471.5 657 c 128,-1,50
 509 654 509 654 520 654 c 2,51,-1
 553 654 l 2,52,53
 554 654 554 654 668 660 c 1,54,-1
 670 656 l 1,55,-1
 667 638 l 1,56,-1
 662 634 l 1,57,58
 637 634 637 634 614.5 619 c 128,-1,59
 592 604 592 604 592 580 c 0,60,61
 592 570 592 570 594 566 c 0,62,63
 598 548 598 548 644 423 c 2,64,-1
 712 239 l 1,65,-1
 743 153 l 1,66,-1
 772 74 l 1,67,-1
 834 239 l 1,68,-1
 902 423 l 1,69,-1
 919 468 l 1,70,-1
 934 510 l 2,71,72
 940 525 940 525 945.5 542.5 c 128,-1,73
 951 560 951 560 953.5 571.5 c 128,-1,74
 956 583 956 583 956 592 c 0,75,76
 956 618 956 618 941.5 626 c 128,-1,77
 927 634 927 634 895 634 c 1,78,-1
 891 638 l 1,79,-1
 888 656 l 1,80,-1
 890 660 l 1,81,82
 896 660 896 660 920 658 c 128,-1,83
 944 656 944 656 966 655 c 128,-1,84
 988 654 988 654 996 654 c 2,85,-1
 1015 654 l 2,86,87
 1026 654 1026 654 1069 657 c 128,-1,88
 1112 660 1112 660 1114 660 c 2,89,-1
 1116 656 l 1,90,-1
 1113 638 l 1,91,-1
 1108 634 l 1,92,93
 1086 634 1086 634 1074 631.5 c 128,-1,94
 1062 629 1062 629 1044.5 613.5 c 128,-1,95
 1027 598 1027 598 1012 567 c 0,96,97
 994 526 994 526 882 240 c 2,98,-1
 846 147 l 1,99,-1
 808 52 l 2,100,101
 792 13 792 13 788 0 c 1,102,-1
 736 -11 l 1,103,-1
 724 -11 l 1,104,-1
 550 471 l 1,105,106
 537 440 537 440 460 240 c 2,107,-1
 406 104 l 2,108,109
 371 15 371 15 366 0 c 1,110,-1
 314 -11 l 1,0,-1
EndSplineSet
Substitution2: "'calt' Contextual Alternates in Latin lookup 3 subtable" W.calt
Substitution2: "'salt' Stylistic Alternatives in Latin lookup 2 subtable" W.salt
AlternateSubs2: "'aalt' Access All Alternates in Latin lookup 1 subtable" W.salt W.calt
EndChar
StartChar: X
Encoding: 88 88 59
Width: 662
GlyphClass: 2
Flags: W
LayerCount: 2
Back
Fore
SplineSet
215 622 m 0,0,1
 204 614 204 614 204 605 c 0,2,3
 204 594 204 594 213 581 c 0,4,5
 271 477 271 477 337 381 c 1,6,7
 414 480 414 480 451 566 c 0,8,9
 457 578 457 578 457 594 c 0,10,11
 457 603 457 603 453.5 610 c 128,-1,12
 450 617 450 617 441.5 620.5 c 128,-1,13
 433 624 433 624 426.5 626 c 128,-1,14
 420 628 420 628 408 630 c 2,15,-1
 390 634 l 1,16,-1
 385 638 l 1,17,-1
 385 656 l 1,18,-1
 390 660 l 1,19,20
 429 654 429 654 482 654 c 2,21,-1
 540 654 l 2,22,23
 587 654 587 654 631 660 c 1,24,-1
 635 656 l 1,25,-1
 635 638 l 1,26,-1
 631 634 l 1,27,28
 588 627 588 627 563.5 609.5 c 128,-1,29
 539 592 539 592 508 548 c 2,30,-1
 364 339 l 1,31,-1
 446 218 l 1,32,-1
 516 116 l 2,33,34
 538 83 538 83 543 77 c 0,35,36
 559 59 559 59 568.5 51 c 128,-1,37
 578 43 578 43 600 34 c 128,-1,38
 622 25 622 25 657 20 c 1,39,-1
 666 13 l 1,40,-1
 666 -1 l 1,41,-1
 660 -7 l 1,42,43
 596 1 596 1 555 1 c 2,44,-1
 515 1 l 2,45,46
 474 1 474 1 402 -7 c 1,47,-1
 397 -1 l 1,48,-1
 397 14 l 1,49,-1
 402 20 l 1,50,51
 427 22 427 22 445 32 c 128,-1,52
 463 42 463 42 463 58 c 0,53,54
 463 98 463 98 327 288 c 1,55,56
 209 136 209 136 181 78 c 0,57,58
 177 70 177 70 177 60 c 0,59,60
 177 42 177 42 190.5 34 c 128,-1,61
 204 26 204 26 252 20 c 1,62,-1
 258 14 l 1,63,-1
 258 0 l 1,64,-1
 252 -6 l 1,65,66
 214 0 214 0 146 0 c 2,67,-1
 99 0 l 2,68,69
 45 0 45 0 1 -6 c 1,70,-1
 -4 0 l 1,71,-1
 -4 13 l 1,72,-1
 4 20 l 1,73,74
 50 27 50 27 72.5 40.5 c 128,-1,75
 95 54 95 54 127 94 c 0,76,77
 171 150 171 150 297 330 c 1,78,79
 237 413 237 413 129 577 c 0,80,81
 110 604 110 604 96 615 c 0,82,83
 78 629 78 629 34 634 c 1,84,-1
 26 638 l 1,85,-1
 26 656 l 1,86,-1
 32 660 l 1,87,88
 78 654 78 654 120 654 c 2,89,-1
 163 654 l 2,90,91
 218 654 218 654 274 660 c 1,92,-1
 279 656 l 1,93,-1
 279 638 l 1,94,-1
 274 634 l 1,95,96
 231 632 231 632 215 622 c 0,0,1
EndSplineSet
EndChar
StartChar: Y
Encoding: 89 89 60
Width: 612
Flags: W
LayerCount: 2
Back
Fore
SplineSet
428 -6 m 1,0,1
 421 -6 421 -6 405 -5 c 128,-1,2
 389 -4 389 -4 372 -3 c 128,-1,3
 355 -2 355 -2 339 -1 c 128,-1,4
 323 0 323 0 316 0 c 2,5,-1
 297 0 l 2,6,7
 290 0 290 0 274 -1 c 128,-1,8
 258 -2 258 -2 240.5 -3 c 128,-1,9
 223 -4 223 -4 207 -5 c 128,-1,10
 191 -6 191 -6 184 -6 c 1,11,-1
 183 -2 l 1,12,-1
 185 16 l 1,13,-1
 190 20 l 1,14,15
 206 20 206 20 220.5 21.5 c 128,-1,16
 235 23 235 23 243 30 c 256,17,18
 251 37 251 37 258.5 48 c 128,-1,19
 266 59 266 59 268 87 c 0,20,21
 269 94 269 94 269.5 103.5 c 128,-1,22
 270 113 270 113 270.5 127 c 128,-1,23
 271 141 271 141 271 161 c 128,-1,24
 271 181 271 181 271 211 c 2,25,-1
 271 250 l 2,26,27
 271 278 271 278 263 295.5 c 128,-1,28
 255 313 255 313 247 327 c 0,29,30
 232 354 232 354 213.5 385 c 128,-1,31
 195 416 195 416 175 449 c 128,-1,32
 155 482 155 482 134 514.5 c 128,-1,33
 113 547 113 547 94 577 c 0,34,35
 87 588 87 588 78 598.5 c 128,-1,36
 69 609 69 609 62 615 c 0,37,38
 51 624 51 624 35.5 628 c 128,-1,39
 20 632 20 632 0 634 c 1,40,-1
 -8 638 l 1,41,-1
 -8 656 l 1,42,-1
 -3 660 l 1,43,44
 21 657 21 657 42 654.5 c 128,-1,45
 63 652 63 652 86 652 c 2,46,-1
 128 652 l 2,47,48
 151 652 151 652 181.5 654.5 c 128,-1,49
 212 657 212 657 240 660 c 1,50,-1
 244 656 l 1,51,-1
 244 638 l 1,52,-1
 240 634 l 1,53,54
 220 633 220 633 205 630.5 c 128,-1,55
 190 628 190 628 181 622 c 0,56,57
 169 613 169 613 169 605 c 0,58,59
 169 600 169 600 172.5 593 c 128,-1,60
 176 586 176 586 179 581 c 0,61,62
 215 515 215 515 247 456 c 128,-1,63
 279 397 279 397 317 332 c 1,64,65
 334 361 334 361 353.5 396.5 c 128,-1,66
 373 432 373 432 391 465.5 c 128,-1,67
 409 499 409 499 422.5 526 c 128,-1,68
 436 553 436 553 441 564 c 0,69,70
 443 569 443 569 447 580 c 128,-1,71
 451 591 451 591 451 599 c 0,72,73
 451 611 451 611 444 617 c 128,-1,74
 437 623 437 623 426.5 626 c 128,-1,75
 416 629 416 629 403.5 630 c 128,-1,76
 391 631 391 631 380 634 c 1,77,-1
 376 638 l 1,78,-1
 376 656 l 1,79,-1
 380 660 l 1,80,81
 409 655 409 655 428.5 654.5 c 128,-1,82
 448 654 448 654 472 654 c 2,83,-1
 530 654 l 2,84,85
 554 654 554 654 574 655 c 128,-1,86
 594 656 594 656 622 660 c 1,87,-1
 626 656 l 1,88,-1
 626 638 l 1,89,-1
 622 634 l 1,90,91
 599 631 599 631 583 626 c 128,-1,92
 567 621 567 621 553.5 612.5 c 128,-1,93
 540 604 540 604 528 590 c 128,-1,94
 516 576 516 576 501 554 c 0,95,96
 472 510 472 510 450.5 476 c 128,-1,97
 429 442 429 442 412 413.5 c 128,-1,98
 395 385 395 385 381.5 361 c 128,-1,99
 368 337 368 337 355 314 c 0,100,101
 351 308 351 308 346 293.5 c 128,-1,102
 341 279 341 279 341 264 c 2,103,-1
 341 229 l 2,104,105
 341 193 341 193 341 171 c 128,-1,106
 341 149 341 149 341.5 134 c 128,-1,107
 342 119 342 119 342.5 109 c 128,-1,108
 343 99 343 99 344 87 c 0,109,110
 346 59 346 59 353.5 48 c 128,-1,111
 361 37 361 37 369 30 c 256,112,113
 377 23 377 23 391.5 21.5 c 128,-1,114
 406 20 406 20 422 20 c 1,115,-1
 427 16 l 1,116,-1
 430 -2 l 1,117,-1
 428 -6 l 1,0,1
EndSplineSet
EndChar
StartChar: Z
Encoding: 90 90 63
Width: 614
Flags: W
LayerCount: 2
Back
Fore
SplineSet
56 546 m 1,0,-1
 72 654 l 1,1,-1
 80 662 l 1,2,3
 207 656 207 656 292.5 655 c 128,-1,4
 378 654 378 654 404 654 c 2,5,-1
 470 654 l 2,6,7
 476 654 476 654 486.5 654.5 c 128,-1,8
 497 655 497 655 508.5 656 c 128,-1,9
 520 657 520 657 531.5 658.5 c 128,-1,10
 543 660 543 660 552 662 c 1,11,-1
 560 651 l 1,12,-1
 555 626 l 1,13,14
 537 607 537 607 503 563 c 128,-1,15
 469 519 469 519 428 462.5 c 128,-1,16
 387 406 387 406 344 342 c 128,-1,17
 301 278 301 278 264 220.5 c 128,-1,18
 227 163 227 163 201 117.5 c 128,-1,19
 175 72 175 72 168 51 c 1,20,-1
 173 48 l 1,21,-1
 253 48 l 2,22,23
 342 48 342 48 395 49.5 c 128,-1,24
 448 51 448 51 477 59 c 128,-1,25
 506 67 506 67 518 82.5 c 128,-1,26
 530 98 530 98 537 127 c 1,27,-1
 543 133 l 1,28,-1
 570 133 l 1,29,-1
 552 4 l 1,30,-1
 543 -6 l 2,31,32
 539 -6 539 -6 522 -5.5 c 128,-1,33
 505 -5 505 -5 482 -4 c 128,-1,34
 459 -3 459 -3 432.5 -2.5 c 128,-1,35
 406 -2 406 -2 381.5 -1.5 c 128,-1,36
 357 -1 357 -1 337.5 -0.5 c 128,-1,37
 318 0 318 0 309 0 c 2,38,-1
 149 0 l 2,39,40
 127 0 127 0 99.5 -2 c 128,-1,41
 72 -4 72 -4 46 -6 c 1,42,-1
 36 5 l 1,43,-1
 36 28 l 1,44,45
 56 48 56 48 88.5 89 c 128,-1,46
 121 130 121 130 159 183 c 128,-1,47
 197 236 197 236 237 296 c 128,-1,48
 277 356 277 356 313 413 c 128,-1,49
 349 470 349 470 377.5 519.5 c 128,-1,50
 406 569 406 569 420 601 c 1,51,-1
 415 606 l 1,52,-1
 273 606 l 2,53,54
 217 606 217 606 182.5 604.5 c 128,-1,55
 148 603 148 603 128 597 c 128,-1,56
 108 591 108 591 99 578.5 c 128,-1,57
 90 566 90 566 86 544 c 1,58,-1
 80 539 l 1,59,-1
 62 539 l 1,60,-1
 56 546 l 1,0,-1
EndSplineSet
EndChar
StartChar: bracketleft
Encoding: 91 91 62
Width: 284
GlyphClass: 2
Flags: W
LayerCount: 2
Back
Fore
SplineSet
260 755 m 1,0,-1
 261 751 l 1,1,-1
 259 733 l 1,2,-1
 254 729 l 1,3,4
 194 729 194 729 182 719 c 0,5,6
 160 701 160 701 157 662 c 0,7,8
 154 625 154 625 154 482 c 2,9,-1
 154 231 l 2,10,11
 154 38 154 38 157 -8 c 0,12,13
 160 -47 160 -47 182 -65 c 0,14,15
 194 -75 194 -75 254 -75 c 1,16,-1
 259 -79 l 1,17,-1
 261 -97 l 1,18,-1
 260 -101 l 1,19,20
 254 -101 254 -101 230.5 -99 c 128,-1,21
 207 -97 207 -97 186 -96 c 128,-1,22
 165 -95 165 -95 157 -95 c 2,23,-1
 81 -95 l 1,24,-1
 79 -91 l 1,25,26
 91 6 91 6 91 211 c 2,27,-1
 91 481 l 2,28,29
 91 663 91 663 79 745 c 1,30,-1
 81 749 l 1,31,-1
 157 749 l 2,32,33
 165 749 165 749 186 750 c 128,-1,34
 207 751 207 751 230.5 753 c 128,-1,35
 254 755 254 755 260 755 c 1,0,-1
EndSplineSet
EndChar
StartChar: backslash
Encoding: 92 92 80
Width: 434
Flags: W
LayerCount: 2
Back
Fore
SplineSet
393 -57 m 1,0,-1
 315 -57 l 1,1,-1
 312 -53 l 1,2,3
 296 14 296 14 268.5 94 c 128,-1,4
 241 174 241 174 214 249 c 2,5,-1
 147 433 l 2,6,7
 138 458 138 458 125.5 491 c 128,-1,8
 113 524 113 524 99 559.5 c 128,-1,9
 85 595 85 595 70 631 c 128,-1,10
 55 667 55 667 39 698 c 1,11,-1
 39 702 l 1,12,-1
 117 702 l 1,13,-1
 120 698 l 1,14,15
 127 667 127 667 137.5 631 c 128,-1,16
 148 595 148 595 160 559.5 c 128,-1,17
 172 524 172 524 184 491 c 128,-1,18
 196 458 196 458 205 433 c 2,19,-1
 271 249 l 2,20,21
 298 174 298 174 329.5 94 c 128,-1,22
 361 14 361 14 394 -53 c 1,23,-1
 393 -57 l 1,0,-1
EndSplineSet
EndChar
StartChar: bracketright
Encoding: 93 93 64
Width: 284
GlyphClass: 2
Flags: W
LayerCount: 2
Back
Fore
SplineSet
23 751 m 1,0,-1
 24 755 l 1,1,2
 30 755 30 755 53.5 753 c 128,-1,3
 77 751 77 751 98 750 c 128,-1,4
 119 749 119 749 127 749 c 2,5,-1
 203 749 l 1,6,-1
 205 745 l 1,7,8
 193 663 193 663 193 481 c 2,9,-1
 193 211 l 2,10,11
 193 6 193 6 205 -91 c 1,12,-1
 203 -95 l 1,13,-1
 127 -95 l 2,14,15
 119 -95 119 -95 98 -96 c 128,-1,16
 77 -97 77 -97 53.5 -99 c 128,-1,17
 30 -101 30 -101 24 -101 c 1,18,-1
 23 -97 l 1,19,-1
 25 -79 l 1,20,-1
 30 -75 l 1,21,22
 90 -75 90 -75 102 -65 c 0,23,24
 124 -47 124 -47 127 -8 c 0,25,26
 130 38 130 38 130 231 c 2,27,-1
 130 482 l 2,28,29
 130 625 130 625 127 662 c 0,30,31
 124 701 124 701 102 719 c 0,32,33
 90 729 90 729 30 729 c 1,34,-1
 25 733 l 1,35,-1
 23 751 l 1,0,-1
EndSplineSet
EndChar
StartChar: asciicircum
Encoding: 94 94 74
Width: 348
Flags: W
LayerCount: 2
Back
Fore
SplineSet
178 673 m 1,0,-1
 288 574 l 1,1,-1
 291 567 l 1,2,-1
 285 548 l 1,3,-1
 278 545 l 1,4,-1
 174 606 l 1,5,-1
 70 545 l 1,6,-1
 63 548 l 1,7,-1
 57 567 l 1,8,-1
 60 574 l 1,9,-1
 170 673 l 1,10,-1
 178 673 l 1,0,-1
EndSplineSet
EndChar
StartChar: underscore
Encoding: 95 95 66
Width: 445
GlyphClass: 2
Flags: W
LayerCount: 2
Back
Fore
SplineSet
6 0 m 1,0,-1
 439 0 l 1,1,-1
 439 -52 l 1,2,-1
 6 -52 l 1,3,-1
 6 0 l 1,0,-1
EndSplineSet
EndChar
StartChar: grave
Encoding: 96 96 128
Width: 219
Flags: W
LayerCount: 2
Back
Fore
SplineSet
205 549 m 1,0,-1
 4 626 l 1,1,2
 0 635 0 635 0 645 c 0,3,4
 0 659 0 659 9 669 c 128,-1,5
 18 679 18 679 35 680 c 1,6,-1
 216 579 l 1,7,-1
 219 572 l 1,8,-1
 213 552 l 1,9,-1
 205 549 l 1,0,-1
EndSplineSet
EndChar
StartChar: b
Encoding: 98 98 69
Width: 598
GlyphClass: 2
Flags: W
LayerCount: 2
Back
Fore
SplineSet
178 7 m 1,0,-1
 171 0 l 1,1,-1
 125 0 l 2,2,3
 98 0 98 0 22 -4 c 1,4,-1
 21 0 l 1,5,-1
 22 14 l 1,6,-1
 26 18 l 1,7,8
 69 18 69 18 81 29 c 0,9,10
 92 39 92 39 96 78 c 2,11,-1
 97 87 l 2,12,13
 99 137 99 137 99 234 c 2,14,-1
 99 474 l 2,15,16
 99 596 99 596 96 662 c 0,17,18
 95 678 95 678 83 693 c 0,19,20
 68 710 68 710 27 710 c 1,21,-1
 23 714 l 1,22,-1
 23 727 l 1,23,-1
 27 731 l 1,24,-1
 45 731 l 2,25,26
 108 731 108 731 133 735 c 2,27,-1
 168 740 l 1,28,-1
 174 731 l 1,29,30
 166 713 166 713 166 654 c 0,31,32
 166 641 166 641 165.5 591 c 128,-1,33
 165 541 165 541 165 476 c 2,34,-1
 165 380 l 1,35,36
 229 475 229 475 331 475 c 0,37,38
 438 475 438 475 494.5 406 c 128,-1,39
 551 337 551 337 551 238 c 0,40,41
 551 173 551 173 530.5 123 c 128,-1,42
 510 73 510 73 476.5 45 c 128,-1,43
 443 17 443 17 406 3 c 128,-1,44
 369 -11 369 -11 332 -11 c 0,45,46
 225 -11 225 -11 168 82 c 1,47,48
 168 44 168 44 178 7 c 1,0,-1
475 236 m 0,49,50
 475 311 475 311 436.5 364.5 c 128,-1,51
 398 418 398 418 326 418 c 0,52,53
 256 418 256 418 210.5 371 c 128,-1,54
 165 324 165 324 165 285 c 2,55,-1
 165 176 l 1,56,57
 174 131 174 131 215 87.5 c 128,-1,58
 256 44 256 44 324 44 c 0,59,60
 398 44 398 44 436.5 100.5 c 128,-1,61
 475 157 475 157 475 236 c 0,49,50
EndSplineSet
Substitution2: "'salt' Stylistic Alternatives in Latin lookup 2 subtable" b.salt
Substitution2: "'aalt' Access All Alternates in Latin lookup 0 subtable" b.salt
EndChar
StartChar: c
Encoding: 99 99 70
Width: 507
GlyphClass: 2
Flags: W
LayerCount: 2
Back
Fore
SplineSet
446 353 m 1,0,-1
 425 353 l 1,1,-1
 421 356 l 1,2,3
 421 385 421 385 397.5 402.5 c 128,-1,4
 374 420 374 420 349 425 c 128,-1,5
 324 430 324 430 297 430 c 0,6,7
 211 430 211 430 165 373 c 128,-1,8
 119 316 119 316 119 234 c 128,-1,9
 119 152 119 152 168.5 96 c 128,-1,10
 218 40 218 40 312 40 c 0,11,12
 389 40 389 40 459 77 c 1,13,-1
 469 67 l 1,14,-1
 454 39 l 1,15,16
 429 21 429 21 382 5 c 128,-1,17
 335 -11 335 -11 288 -11 c 0,18,19
 187 -11 187 -11 115 57 c 128,-1,20
 43 125 43 125 43 230 c 0,21,22
 43 338 43 338 117 406.5 c 128,-1,23
 191 475 191 475 299 475 c 0,24,25
 389 475 389 475 454 439 c 1,26,-1
 457 430 l 1,27,-1
 446 353 l 1,0,-1
EndSplineSet
EndChar
StartChar: d
Encoding: 100 100 71
Width: 598
GlyphClass: 2
Flags: W
LayerCount: 2
Back
Fore
SplineSet
427 -3 m 1,0,-1
 420 7 l 1,1,2
 424 22 424 22 429 83 c 1,3,4
 367 -11 367 -11 266 -11 c 0,5,6
 159 -11 159 -11 103 57.5 c 128,-1,7
 47 126 47 126 47 226 c 0,8,9
 47 291 47 291 67.5 341 c 128,-1,10
 88 391 88 391 121 419 c 128,-1,11
 154 447 154 447 191 461 c 128,-1,12
 228 475 228 475 265 475 c 0,13,14
 375 475 375 475 432 381 c 1,15,-1
 432 474 l 2,16,17
 432 619 432 619 429 662 c 0,18,19
 428 678 428 678 416 693 c 0,20,21
 401 710 401 710 360 710 c 1,22,-1
 356 714 l 1,23,-1
 356 727 l 1,24,-1
 360 731 l 1,25,-1
 378 731 l 2,26,27
 441 731 441 731 466 735 c 2,28,-1
 501 740 l 1,29,-1
 507 731 l 1,30,31
 500 716 500 716 500 654 c 0,32,33
 500 641 500 641 499 591 c 128,-1,34
 498 541 498 541 498 476 c 2,35,-1
 498 258 l 2,36,37
 498 172 498 172 502 78 c 0,38,39
 506 38 506 38 516 29 c 0,40,41
 529 18 529 18 571 18 c 1,42,-1
 575 14 l 1,43,-1
 577 0 l 1,44,-1
 575 -4 l 1,45,46
 527 0 527 0 495 0 c 0,47,48
 458 0 458 0 427 -3 c 1,0,-1
123 228 m 0,49,50
 123 153 123 153 161.5 99.5 c 128,-1,51
 200 46 200 46 272 46 c 0,52,53
 339 46 339 46 384 90 c 128,-1,54
 429 134 429 134 432 174 c 2,55,-1
 432 285 l 1,56,57
 426 328 426 328 384.5 374 c 128,-1,58
 343 420 343 420 274 420 c 0,59,60
 200 420 200 420 161.5 363.5 c 128,-1,61
 123 307 123 307 123 228 c 0,49,50
EndSplineSet
EndChar
StartChar: f
Encoding: 102 102 119
Width: 333
Flags: W
LayerCount: 2
Back
Fore
SplineSet
305 413 m 1,0,-1
 178 413 l 1,1,-1
 178 258 l 2,2,3
 178 216 178 216 178 187.5 c 128,-1,4
 178 159 178 159 178.5 139.5 c 128,-1,5
 179 120 179 120 180 106 c 128,-1,6
 181 92 181 92 182 78 c 0,7,8
 184 63 184 63 186.5 49.5 c 128,-1,9
 189 36 189 36 197 29 c 0,10,11
 202 25 202 25 211.5 23 c 128,-1,12
 221 21 221 21 231.5 20 c 128,-1,13
 242 19 242 19 252 18.5 c 128,-1,14
 262 18 262 18 268 18 c 1,15,-1
 273 13 l 1,16,-1
 275 0 l 1,17,-1
 273 -4 l 1,18,19
 266 -4 266 -4 250.5 -3 c 128,-1,20
 235 -2 235 -2 218 -1.5 c 128,-1,21
 201 -1 201 -1 185.5 -0.5 c 128,-1,22
 170 0 170 0 163 0 c 2,23,-1
 139 0 l 2,24,25
 132 0 132 0 117.5 -0.5 c 128,-1,26
 103 -1 103 -1 87 -1.5 c 128,-1,27
 71 -2 71 -2 56.5 -3 c 128,-1,28
 42 -4 42 -4 35 -4 c 1,29,-1
 34 0 l 1,30,-1
 35 14 l 1,31,-1
 39 18 l 1,32,33
 55 18 55 18 70.5 19.5 c 128,-1,34
 86 21 86 21 94 29 c 0,35,36
 100 35 100 35 104 44.5 c 128,-1,37
 108 54 108 54 109.5 76 c 128,-1,38
 111 98 111 98 111.5 135 c 128,-1,39
 112 172 112 172 112 234 c 2,40,-1
 112 413 l 1,41,-1
 38 413 l 1,42,-1
 34 418 l 1,43,-1
 34 436 l 1,44,-1
 38 440 l 1,45,-1
 112 455 l 1,46,-1
 112 512 l 2,47,48
 112 619 112 619 152 682 c 128,-1,49
 192 745 192 745 269 745 c 0,50,51
 292 745 292 745 319 738 c 128,-1,52
 346 731 346 731 375 715 c 1,53,-1
 380 705 l 1,54,-1
 368 628 l 1,55,-1
 342 628 l 1,56,57
 338 660 338 660 312.5 678 c 128,-1,58
 287 696 287 696 255 696 c 0,59,60
 226 696 226 696 210.5 684.5 c 128,-1,61
 195 673 195 673 187.5 654 c 128,-1,62
 180 635 180 635 179 610.5 c 128,-1,63
 178 586 178 586 178 561 c 2,64,-1
 178 455 l 1,65,-1
 305 461 l 1,66,-1
 310 457 l 1,67,-1
 310 418 l 1,68,-1
 305 413 l 1,0,-1
EndSplineSet
EndChar
StartChar: g
Encoding: 103 103 126
Width: 506
Flags: W
LayerCount: 2
Back
Fore
SplineSet
151 136 m 1,0,1
 97 156 97 156 73 199 c 128,-1,2
 49 242 49 242 49 294 c 0,3,4
 49 331 49 331 62 364 c 128,-1,5
 75 397 75 397 99.5 421.5 c 128,-1,6
 124 446 124 446 158.5 460 c 128,-1,7
 193 474 193 474 237 474 c 0,8,9
 263 474 263 474 288.5 469 c 128,-1,10
 314 464 314 464 333 455 c 1,11,12
 375 456 375 456 411.5 460 c 128,-1,13
 448 464 448 464 480 473 c 1,14,-1
 485 469 l 1,15,-1
 478 414 l 1,16,-1
 473 409 l 1,17,-1
 382 413 l 1,18,-1
 381 410 l 1,19,20
 407 389 407 389 419 355 c 128,-1,21
 431 321 431 321 431 289 c 0,22,23
 431 256 431 256 418.5 226 c 128,-1,24
 406 196 406 196 382 173.5 c 128,-1,25
 358 151 358 151 322 137.5 c 128,-1,26
 286 124 286 124 239 124 c 0,27,28
 231 124 231 124 219 124.5 c 128,-1,29
 207 125 207 125 199 125 c 0,30,31
 182 118 182 118 173.5 106 c 128,-1,32
 165 94 165 94 165 86 c 0,33,34
 165 76 165 76 178.5 68.5 c 128,-1,35
 192 61 192 61 222 58 c 2,36,-1
 319 48 l 2,37,38
 352 44 352 44 380.5 34 c 128,-1,39
 409 24 409 24 430.5 7.5 c 128,-1,40
 452 -9 452 -9 464 -32.5 c 128,-1,41
 476 -56 476 -56 476 -87 c 0,42,43
 476 -116 476 -116 463 -145.5 c 128,-1,44
 450 -175 450 -175 424 -198 c 0,45,46
 398 -220 398 -220 352 -234 c 128,-1,47
 306 -248 306 -248 246 -248 c 0,48,49
 192 -248 192 -248 152.5 -236.5 c 128,-1,50
 113 -225 113 -225 86.5 -205.5 c 128,-1,51
 60 -186 60 -186 47 -161.5 c 128,-1,52
 34 -137 34 -137 34 -111 c 0,53,54
 34 -69 34 -69 61.5 -36.5 c 128,-1,55
 89 -4 89 -4 132 9 c 1,56,-1
 133 12 l 1,57,58
 111 21 111 21 98 34.5 c 128,-1,59
 85 48 85 48 85 68 c 0,60,61
 85 94 85 94 106 110 c 128,-1,62
 127 126 127 126 151 132 c 1,63,-1
 151 136 l 1,0,1
241 166 m 0,64,65
 269 166 269 166 290.5 176 c 128,-1,66
 312 186 312 186 327 203 c 128,-1,67
 342 220 342 220 350 242.5 c 128,-1,68
 358 265 358 265 358 289 c 0,69,70
 358 314 358 314 350 339 c 128,-1,71
 342 364 342 364 326.5 384 c 128,-1,72
 311 404 311 404 288 417 c 128,-1,73
 265 430 265 430 235 430 c 0,74,75
 206 430 206 430 184.5 418 c 128,-1,76
 163 406 163 406 148.5 387 c 128,-1,77
 134 368 134 368 127 344.5 c 128,-1,78
 120 321 120 321 120 298 c 0,79,80
 120 274 120 274 127.5 250.5 c 128,-1,81
 135 227 135 227 150.5 208 c 128,-1,82
 166 189 166 189 188.5 177.5 c 128,-1,83
 211 166 211 166 241 166 c 0,64,65
209 -5 m 2,84,85
 181 -6 181 -6 160 -15 c 128,-1,86
 139 -24 139 -24 124.5 -37.5 c 128,-1,87
 110 -51 110 -51 103 -67.5 c 128,-1,88
 96 -84 96 -84 96 -100 c 0,89,90
 96 -138 96 -138 138 -162 c 128,-1,91
 180 -186 180 -186 252 -186 c 0,92,93
 285 -186 285 -186 313 -180.5 c 128,-1,94
 341 -175 341 -175 361.5 -163.5 c 128,-1,95
 382 -152 382 -152 394 -135.5 c 128,-1,96
 406 -119 406 -119 406 -97 c 0,97,98
 406 -73 406 -73 394.5 -58 c 128,-1,99
 383 -43 383 -43 364.5 -33.5 c 128,-1,100
 346 -24 346 -24 322.5 -19.5 c 128,-1,101
 299 -15 299 -15 276 -12 c 2,102,-1
 209 -5 l 2,84,85
EndSplineSet
EndChar
StartChar: h
Encoding: 104 104 75
Width: 596
GlyphClass: 2
Flags: W
LayerCount: 2
Back
Fore
SplineSet
433 -3 m 1,0,-1
 426 7 l 1,1,2
 433 30 433 30 435 78 c 0,3,4
 439 151 439 151 439 228 c 0,5,6
 439 289 439 289 431 325 c 0,7,8
 422 370 422 370 391 394 c 128,-1,9
 360 418 360 418 318 418 c 0,10,11
 257 418 257 418 211 371.5 c 128,-1,12
 165 325 165 325 165 288 c 0,13,14
 165 172 165 172 169 78 c 0,15,16
 173 39 173 39 184 29 c 0,17,18
 197 18 197 18 236 18 c 1,19,-1
 241 13 l 1,20,-1
 243 0 l 1,21,-1
 241 -4 l 1,22,23
 165 0 165 0 139 0 c 2,24,-1
 125 0 l 2,25,26
 98 0 98 0 22 -4 c 1,27,-1
 21 0 l 1,28,-1
 22 14 l 1,29,-1
 26 18 l 1,30,31
 69 18 69 18 81 29 c 128,-1,32
 93 40 93 40 96 78 c 0,33,34
 99 129 99 129 99 234 c 2,35,-1
 99 474 l 2,36,37
 99 598 99 598 96 662 c 0,38,39
 95 678 95 678 83 693 c 0,40,41
 68 710 68 710 27 710 c 1,42,-1
 23 714 l 1,43,-1
 23 727 l 1,44,-1
 27 731 l 1,45,-1
 45 731 l 2,46,47
 108 731 108 731 133 735 c 2,48,-1
 168 740 l 1,49,-1
 174 731 l 1,50,51
 168 718 168 718 168 654 c 0,52,53
 168 641 168 641 166.5 591 c 128,-1,54
 165 541 165 541 165 476 c 2,55,-1
 165 370 l 1,56,57
 226 475 226 475 336 475 c 0,58,59
 398 475 398 475 446.5 439.5 c 128,-1,60
 495 404 495 404 503 337 c 0,61,62
 507 302 507 302 507 223 c 2,63,-1
 507 82 l 2,64,65
 507 42 507 42 522 29 c 0,66,67
 535 18 535 18 578 18 c 1,68,-1
 581 14 l 1,69,-1
 583 0 l 1,70,-1
 581 -4 l 1,71,72
 535 0 535 0 502 0 c 0,73,74
 464 0 464 0 433 -3 c 1,0,-1
EndSplineSet
EndChar
StartChar: j
Encoding: 106 106 77
Width: 250
GlyphClass: 2
Flags: W
LayerCount: 2
Back
Fore
SplineSet
23 438 m 1,0,-1
 23 452 l 1,1,-1
 27 455 l 1,2,-1
 45 455 l 2,3,4
 108 455 108 455 133 459 c 2,5,-1
 168 464 l 1,6,-1
 173 455 l 1,7,8
 171 449 171 449 167 378 c 0,9,10
 165 330 165 330 165 232 c 2,11,-1
 165 -4 l 2,12,13
 165 -101 165 -101 131 -170 c 128,-1,14
 97 -239 97 -239 35 -257 c 0,15,16
 22 -260 22 -260 -1 -260 c 1,17,-1
 -9 -258 l 1,18,-1
 -11 -239 l 1,19,-1
 -7 -234 l 1,20,21
 37 -234 37 -234 59 -210 c 0,22,23
 94 -172 94 -172 96 -62 c 0,24,25
 99 16 99 16 99 204 c 0,26,27
 99 339 99 339 96 385 c 0,28,29
 95 405 95 405 83 417 c 0,30,31
 69 434 69 434 27 434 c 1,32,-1
 23 438 l 1,0,-1
73 631 m 0,33,34
 73 651 73 651 87 665.5 c 128,-1,35
 101 680 101 680 120 680 c 0,36,37
 140 680 140 680 154.5 665 c 128,-1,38
 169 650 169 650 169 631 c 128,-1,39
 169 612 169 612 154.5 598 c 128,-1,40
 140 584 140 584 120 584 c 128,-1,41
 100 584 100 584 86.5 598 c 128,-1,42
 73 612 73 612 73 631 c 0,33,34
EndSplineSet
EndChar
StartChar: k
Encoding: 107 107 78
Width: 526
GlyphClass: 2
Flags: W
LayerCount: 2
Back
Fore
SplineSet
23 714 m 1,0,-1
 23 727 l 1,1,-1
 27 731 l 1,2,-1
 45 731 l 2,3,4
 108 731 108 731 133 735 c 2,5,-1
 168 740 l 1,6,-1
 174 731 l 1,7,8
 168 718 168 718 168 654 c 0,9,10
 168 641 168 641 166.5 591 c 128,-1,11
 165 541 165 541 165 476 c 2,12,-1
 165 238 l 1,13,-1
 284 348 l 2,14,15
 286 350 286 350 298 361 c 2,16,-1
 321 382 l 2,17,18
 332 393 332 393 335 397 c 0,19,20
 344 408 344 408 344 415 c 0,21,22
 344 432 344 432 298 439 c 1,23,-1
 294 443 l 1,24,-1
 294 455 l 1,25,-1
 298 459 l 1,26,27
 348 453 348 453 375 453 c 2,28,-1
 403 453 l 2,29,30
 429 453 429 453 481 459 c 1,31,-1
 484 455 l 1,32,-1
 484 441 l 1,33,-1
 479 436 l 1,34,35
 437 426 437 426 430 422 c 0,36,37
 378 390 378 390 305 319 c 2,38,-1
 264 281 l 1,39,40
 286 247 286 247 301 230 c 2,41,-1
 390 120 l 2,42,43
 393 117 393 117 406 101 c 2,44,-1
 422 80 l 2,45,46
 426 75 426 75 437.5 62.5 c 128,-1,47
 449 50 449 50 456 45 c 2,48,-1
 475 32 l 2,49,50
 486 25 486 25 497.5 22 c 128,-1,51
 509 19 509 19 521 18 c 1,52,-1
 524 14 l 1,53,-1
 526 0 l 1,54,-1
 524 -4 l 1,55,56
 501 -7 501 -7 444 -7 c 0,57,58
 416 -7 416 -7 391 18 c 0,59,60
 352 57 352 57 339 73 c 2,61,-1
 259 176 l 2,62,63
 229 215 229 215 211 233 c 1,64,-1
 165 187 l 1,65,66
 165 152 165 152 169 78 c 0,67,68
 170 41 170 41 184 29 c 0,69,70
 197 18 197 18 236 18 c 1,71,-1
 241 13 l 1,72,-1
 243 0 l 1,73,-1
 241 -4 l 1,74,75
 165 0 165 0 139 0 c 2,76,-1
 125 0 l 2,77,78
 98 0 98 0 22 -4 c 1,79,-1
 21 0 l 1,80,-1
 22 14 l 1,81,-1
 26 18 l 1,82,83
 69 18 69 18 81 29 c 128,-1,84
 93 40 93 40 96 78 c 0,85,86
 99 129 99 129 99 234 c 2,87,-1
 99 474 l 2,88,89
 99 598 99 598 96 662 c 0,90,91
 95 678 95 678 83 693 c 0,92,93
 68 710 68 710 27 710 c 1,94,-1
 23 714 l 1,0,-1
EndSplineSet
EndChar
StartChar: l
Encoding: 108 108 79
Width: 275
GlyphClass: 2
Flags: W
LayerCount: 2
Back
Fore
SplineSet
29 714 m 1,0,-1
 29 727 l 1,1,-1
 33 731 l 1,2,-1
 51 731 l 2,3,4
 114 731 114 731 139 735 c 2,5,-1
 175 740 l 1,6,-1
 181 731 l 1,7,8
 178 725 178 725 174 654 c 0,9,10
 171 611 171 611 171 476 c 2,11,-1
 171 258 l 2,12,13
 171 172 171 172 175 78 c 0,14,15
 179 39 179 39 190 29 c 0,16,17
 203 18 203 18 242 18 c 1,18,-1
 247 13 l 1,19,-1
 249 0 l 1,20,-1
 247 -4 l 1,21,22
 171 0 171 0 145 0 c 2,23,-1
 131 0 l 2,24,25
 104 0 104 0 28 -4 c 1,26,-1
 27 0 l 1,27,-1
 28 14 l 1,28,-1
 32 18 l 1,29,30
 75 18 75 18 87 29 c 128,-1,31
 99 40 99 40 102 78 c 0,32,33
 105 129 105 129 105 234 c 2,34,-1
 105 474 l 2,35,36
 105 619 105 619 102 662 c 0,37,38
 101 678 101 678 89 693 c 0,39,40
 74 710 74 710 33 710 c 1,41,-1
 29 714 l 1,0,-1
EndSplineSet
EndChar
StartChar: m
Encoding: 109 109 80
Width: 923
GlyphClass: 2
Flags: W
LayerCount: 2
Back
Fore
SplineSet
35 438 m 1,0,-1
 35 452 l 1,1,-1
 39 455 l 1,2,-1
 57 455 l 2,3,4
 120 455 120 455 145 459 c 2,5,-1
 180 464 l 1,6,-1
 186 455 l 1,7,8
 180 442 180 442 180 378 c 2,9,-1
 180 377 l 2,10,11
 179 376 179 376 179 375 c 1,12,13
 235 475 235 475 336 475 c 0,14,15
 392 475 392 475 436 447 c 128,-1,16
 480 419 480 419 497 362 c 1,17,18
 526 415 526 415 563 445 c 128,-1,19
 600 475 600 475 661 475 c 0,20,21
 723 475 723 475 770 440 c 128,-1,22
 817 405 817 405 829 336 c 0,23,24
 835 301 835 301 835 223 c 2,25,-1
 835 78 l 2,26,27
 835 41 835 41 850 29 c 0,28,29
 862 18 862 18 905 18 c 1,30,-1
 909 14 l 1,31,-1
 911 0 l 1,32,-1
 909 -4 l 1,33,34
 861 0 861 0 829 0 c 0,35,36
 792 0 792 0 761 -3 c 1,37,-1
 754 7 l 1,38,39
 761 30 761 30 763 78 c 0,40,41
 766 136 766 136 766 233 c 0,42,43
 766 298 766 298 758 335 c 0,44,45
 749 374 749 374 719 396 c 128,-1,46
 689 418 689 418 649 418 c 0,47,48
 598 418 598 418 559.5 384.5 c 128,-1,49
 521 351 521 351 507 311 c 1,50,51
 510 282 510 282 510 223 c 2,52,-1
 510 78 l 2,53,54
 510 42 510 42 526 29 c 0,55,56
 539 18 539 18 578 18 c 1,57,-1
 583 13 l 1,58,-1
 585 0 l 1,59,-1
 583 -4 l 1,60,61
 507 0 507 0 481 0 c 2,62,-1
 467 0 l 2,63,64
 440 0 440 0 364 -4 c 1,65,-1
 362 0 l 1,66,-1
 364 14 l 1,67,-1
 368 18 l 1,68,69
 411 18 411 18 423 29 c 0,70,71
 434 39 434 39 437 78 c 0,72,73
 441 156 441 156 441 233 c 0,74,75
 441 307 441 307 433 335 c 0,76,77
 422 375 422 375 392.5 396.5 c 128,-1,78
 363 418 363 418 324 418 c 0,79,80
 264 418 264 418 220.5 372 c 128,-1,81
 177 326 177 326 177 287 c 2,82,-1
 177 175 l 2,83,84
 177 134 177 134 181 78 c 0,85,86
 184 40 184 40 196 29 c 0,87,88
 209 18 209 18 248 18 c 1,89,-1
 253 13 l 1,90,-1
 255 0 l 1,91,-1
 253 -4 l 1,92,93
 177 0 177 0 151 0 c 2,94,-1
 137 0 l 2,95,96
 110 0 110 0 34 -4 c 1,97,-1
 33 0 l 1,98,-1
 34 14 l 1,99,-1
 38 18 l 1,100,101
 81 18 81 18 93 29 c 0,102,103
 104 39 104 39 108 78 c 0,104,105
 111 111 111 111 111 163 c 2,106,-1
 111 286 l 2,107,108
 111 346 111 346 108 386 c 0,109,110
 105 407 105 407 95 417 c 0,111,112
 81 434 81 434 39 434 c 1,113,-1
 35 438 l 1,0,-1
EndSplineSet
EndChar
StartChar: o
Encoding: 111 111 153
Width: 583
Flags: W
LayerCount: 2
Back
Fore
SplineSet
291 475 m 0,0,1
 350 475 350 475 396 454.5 c 128,-1,2
 442 434 442 434 473.5 399.5 c 128,-1,3
 505 365 505 365 521.5 320 c 128,-1,4
 538 275 538 275 538 227 c 0,5,6
 538 181 538 181 523 138 c 128,-1,7
 508 95 508 95 477 62 c 128,-1,8
 446 29 446 29 400 9 c 128,-1,9
 354 -11 354 -11 293 -11 c 0,10,11
 230 -11 230 -11 183 10 c 128,-1,12
 136 31 136 31 105.5 65 c 128,-1,13
 75 99 75 99 60 142.5 c 128,-1,14
 45 186 45 186 45 232 c 0,15,16
 45 281 45 281 62 325 c 128,-1,17
 79 369 79 369 110.5 402.5 c 128,-1,18
 142 436 142 436 187.5 455.5 c 128,-1,19
 233 475 233 475 291 475 c 0,0,1
292 28 m 0,20,21
 334 28 334 28 366 45 c 128,-1,22
 398 62 398 62 419 90 c 128,-1,23
 440 118 440 118 450.5 153.5 c 128,-1,24
 461 189 461 189 461 227 c 0,25,26
 461 263 461 263 449.5 300 c 128,-1,27
 438 337 438 337 416 366.5 c 128,-1,28
 394 396 394 396 362 414.5 c 128,-1,29
 330 433 330 433 288 433 c 0,30,31
 244 433 244 433 212.5 415.5 c 128,-1,32
 181 398 181 398 160.5 370 c 128,-1,33
 140 342 140 342 130 306 c 128,-1,34
 120 270 120 270 120 234 c 0,35,36
 120 197 120 197 131.5 160.5 c 128,-1,37
 143 124 143 124 165 94.5 c 128,-1,38
 187 65 187 65 219 46.5 c 128,-1,39
 251 28 251 28 292 28 c 0,20,21
EndSplineSet
Substitution2: "'ordn' Ordinals in Latin lookup 3 subtable" ordmasculine
Substitution2: "'aalt' Access All Alternates in Latin lookup 0 subtable" ordmasculine
EndChar
StartChar: p
Encoding: 112 112 167
Width: 598
Flags: W
LayerCount: 2
Back
Fore
SplineSet
168 384 m 1,0,1
 197 425 197 425 238.5 450 c 128,-1,2
 280 475 280 475 331 475 c 0,3,4
 388 475 388 475 429.5 455 c 128,-1,5
 471 435 471 435 498 402 c 128,-1,6
 525 369 525 369 538 326.5 c 128,-1,7
 551 284 551 284 551 238 c 0,8,9
 551 170 551 170 530 122.5 c 128,-1,10
 509 75 509 75 476.5 45.5 c 128,-1,11
 444 16 444 16 405.5 2.5 c 128,-1,12
 367 -11 367 -11 332 -11 c 0,13,14
 284 -11 284 -11 240 11.5 c 128,-1,15
 196 34 196 34 165 85 c 1,16,-1
 162 83 l 1,17,18
 163 69 163 69 164 50 c 128,-1,19
 165 31 165 31 165 -5 c 0,20,21
 165 -46 165 -46 165 -71.5 c 128,-1,22
 165 -97 165 -97 165.5 -115 c 128,-1,23
 166 -133 166 -133 166.5 -147.5 c 128,-1,24
 167 -162 167 -162 169 -179 c 0,25,26
 171 -199 171 -199 173.5 -210 c 128,-1,27
 176 -221 176 -221 184 -227 c 0,28,29
 192 -235 192 -235 206.5 -237 c 128,-1,30
 221 -239 221 -239 236 -239 c 1,31,-1
 241 -243 l 1,32,-1
 243 -257 l 1,33,-1
 241 -260 l 1,34,35
 234 -260 234 -260 220 -259.5 c 128,-1,36
 206 -259 206 -259 190 -258.5 c 128,-1,37
 174 -258 174 -258 160 -257.5 c 128,-1,38
 146 -257 146 -257 139 -257 c 2,39,-1
 125 -257 l 2,40,41
 118 -257 118 -257 103.5 -257.5 c 128,-1,42
 89 -258 89 -258 73.5 -258.5 c 128,-1,43
 58 -259 58 -259 43.5 -259.5 c 128,-1,44
 29 -260 29 -260 22 -260 c 1,45,-1
 21 -257 l 1,46,-1
 22 -242 l 1,47,-1
 26 -239 l 1,48,49
 42 -239 42 -239 57 -237 c 128,-1,50
 72 -235 72 -235 81 -227 c 0,51,52
 89 -220 89 -220 91.5 -209.5 c 128,-1,53
 94 -199 94 -199 96 -179 c 0,54,55
 97 -166 97 -166 97.5 -153.5 c 128,-1,56
 98 -141 98 -141 98.5 -124 c 128,-1,57
 99 -107 99 -107 99 -84 c 128,-1,58
 99 -61 99 -61 99 -28 c 2,59,-1
 99 205 l 2,60,61
 99 245 99 245 99 272 c 128,-1,62
 99 299 99 299 98.5 319 c 128,-1,63
 98 339 98 339 97.5 354.5 c 128,-1,64
 97 370 97 370 96 386 c 0,65,66
 95 397 95 397 90.5 405.5 c 128,-1,67
 86 414 86 414 83 417 c 0,68,69
 73 429 73 429 58 431.5 c 128,-1,70
 43 434 43 434 27 434 c 1,71,-1
 23 438 l 1,72,-1
 23 452 l 1,73,-1
 27 455 l 1,74,-1
 45 455 l 2,75,76
 62 455 62 455 88 455.5 c 128,-1,77
 114 456 114 456 133 459 c 2,78,-1
 168 464 l 1,79,-1
 174 455 l 2,80,81
 172 451 172 451 170.5 442.5 c 128,-1,82
 169 434 169 434 167.5 423.5 c 128,-1,83
 166 413 166 413 165.5 402.5 c 128,-1,84
 165 392 165 392 165 385 c 1,85,-1
 168 384 l 1,0,1
475 236 m 0,86,87
 475 270 475 270 466 303 c 128,-1,88
 457 336 457 336 438.5 361.5 c 128,-1,89
 420 387 420 387 392 402.5 c 128,-1,90
 364 418 364 418 326 418 c 256,91,92
 288 418 288 418 259 404 c 128,-1,93
 230 390 230 390 209.5 369.5 c 128,-1,94
 189 349 189 349 177.5 327 c 128,-1,95
 166 305 166 305 165 289 c 2,96,-1
 165 179 l 2,97,98
 168 163 168 163 178 140 c 128,-1,99
 188 117 188 117 207.5 95.5 c 128,-1,100
 227 74 227 74 256 59 c 128,-1,101
 285 44 285 44 324 44 c 256,102,103
 363 44 363 44 391.5 60.5 c 128,-1,104
 420 77 420 77 438.5 104 c 128,-1,105
 457 131 457 131 466 165.5 c 128,-1,106
 475 200 475 200 475 236 c 0,86,87
EndSplineSet
EndChar
StartChar: q
Encoding: 113 113 84
Width: 597
GlyphClass: 2
Flags: W
LayerCount: 2
Back
Fore
SplineSet
576 -257 m 1,0,-1
 574 -260 l 1,1,2
 564 -260 564 -260 523 -258.5 c 128,-1,3
 482 -257 482 -257 472 -257 c 2,4,-1
 458 -257 l 2,5,6
 448 -257 448 -257 406 -258.5 c 128,-1,7
 364 -260 364 -260 355 -260 c 1,8,-1
 354 -257 l 1,9,-1
 355 -242 l 1,10,-1
 359 -239 l 1,11,12
 402 -239 402 -239 414 -227 c 0,13,14
 426 -217 426 -217 429 -179 c 0,15,16
 432 -145 432 -145 432 -28 c 2,17,-1
 432 87 l 1,18,19
 368 -11 368 -11 266 -11 c 0,20,21
 159 -11 159 -11 103 57.5 c 128,-1,22
 47 126 47 126 47 226 c 0,23,24
 47 291 47 291 67.5 341 c 128,-1,25
 88 391 88 391 121 419 c 128,-1,26
 154 447 154 447 191 461 c 128,-1,27
 228 475 228 475 265 475 c 0,28,29
 372 475 372 475 430 386 c 1,30,31
 430 440 430 440 424 455 c 1,32,-1
 430 464 l 1,33,-1
 465 459 l 2,34,35
 489 455 489 455 552 455 c 2,36,-1
 570 455 l 1,37,-1
 574 452 l 1,38,-1
 574 438 l 1,39,-1
 570 434 l 1,40,41
 529 434 529 434 514 417 c 0,42,43
 503 406 503 406 502 386 c 0,44,45
 498 321 498 321 498 206 c 2,46,-1
 498 -5 l 2,47,48
 498 -87 498 -87 502 -179 c 0,49,50
 506 -219 506 -219 517 -227 c 0,51,52
 530 -239 530 -239 569 -239 c 1,53,-1
 574 -243 l 1,54,-1
 576 -257 l 1,0,-1
123 228 m 0,55,56
 123 153 123 153 161.5 99.5 c 128,-1,57
 200 46 200 46 272 46 c 0,58,59
 340 46 340 46 384.5 90.5 c 128,-1,60
 429 135 429 135 432 175 c 2,61,-1
 432 285 l 1,62,63
 426 328 426 328 384.5 374 c 128,-1,64
 343 420 343 420 274 420 c 0,65,66
 200 420 200 420 161.5 363.5 c 128,-1,67
 123 307 123 307 123 228 c 0,55,56
EndSplineSet
EndChar
StartChar: r
Encoding: 114 114 188
Width: 408
Flags: W
LayerCount: 2
Back
Fore
SplineSet
177 354 m 1,0,1
 187 373 187 373 199.5 394 c 128,-1,2
 212 415 212 415 228 433 c 128,-1,3
 244 451 244 451 264.5 463 c 128,-1,4
 285 475 285 475 311 475 c 0,5,6
 329 475 329 475 351.5 469.5 c 128,-1,7
 374 464 374 464 382 455 c 2,8,-1
 390 446 l 1,9,-1
 378 369 l 1,10,-1
 345 369 l 1,11,12
 342 383 342 383 329.5 394.5 c 128,-1,13
 317 406 317 406 291 406 c 0,14,15
 266 406 266 406 245 391.5 c 128,-1,16
 224 377 224 377 208.5 355 c 128,-1,17
 193 333 193 333 184.5 308.5 c 128,-1,18
 176 284 176 284 176 264 c 2,19,-1
 176 175 l 2,20,21
 176 153 176 153 176.5 139.5 c 128,-1,22
 177 126 177 126 177.5 116.5 c 128,-1,23
 178 107 178 107 178.5 100.5 c 128,-1,24
 179 94 179 94 179 87 c 2,25,-1
 180 78 l 2,26,27
 182 63 182 63 184.5 49.5 c 128,-1,28
 187 36 187 36 195 29 c 0,29,30
 200 25 200 25 209.5 23 c 128,-1,31
 219 21 219 21 229.5 20 c 128,-1,32
 240 19 240 19 250 18.5 c 128,-1,33
 260 18 260 18 266 18 c 1,34,-1
 271 13 l 1,35,-1
 273 0 l 1,36,-1
 271 -4 l 1,37,38
 264 -4 264 -4 248.5 -3 c 128,-1,39
 233 -2 233 -2 216 -1.5 c 128,-1,40
 199 -1 199 -1 183.5 -0.5 c 128,-1,41
 168 0 168 0 161 0 c 2,42,-1
 137 0 l 2,43,44
 130 0 130 0 115.5 -0.5 c 128,-1,45
 101 -1 101 -1 85 -1.5 c 128,-1,46
 69 -2 69 -2 54.5 -3 c 128,-1,47
 40 -4 40 -4 33 -4 c 1,48,-1
 32 0 l 1,49,-1
 33 14 l 1,50,-1
 37 18 l 1,51,52
 53 18 53 18 68.5 19.5 c 128,-1,53
 84 21 84 21 92 29 c 0,54,55
 100 36 100 36 102.5 47 c 128,-1,56
 105 58 105 58 107 78 c 2,57,-1
 108 87 l 2,58,59
 109 97 109 97 109.5 112 c 128,-1,60
 110 127 110 127 110 163 c 2,61,-1
 110 286 l 2,62,63
 110 307 110 307 110 321.5 c 128,-1,64
 110 336 110 336 109.5 347 c 128,-1,65
 109 358 109 358 108.5 367 c 128,-1,66
 108 376 108 376 107 386 c 0,67,68
 105 397 105 397 101 405.5 c 128,-1,69
 97 414 97 414 94 417 c 0,70,71
 84 429 84 429 69 431.5 c 128,-1,72
 54 434 54 434 38 434 c 1,73,-1
 34 438 l 1,74,-1
 34 452 l 1,75,-1
 38 455 l 1,76,-1
 56 455 l 2,77,78
 73 455 73 455 99 455.5 c 128,-1,79
 125 456 125 456 144 459 c 2,80,-1
 179 464 l 1,81,-1
 185 455 l 1,82,83
 179 434 179 434 176.5 407 c 128,-1,84
 174 380 174 380 174 355 c 1,85,-1
 177 354 l 1,0,1
EndSplineSet
EndChar
StartChar: s
Encoding: 115 115 86
Width: 439
GlyphClass: 2
Flags: W
LayerCount: 2
Back
Fore
SplineSet
199 281 m 2,0,-1
 270 265 l 2,1,2
 400 236 400 236 400 136 c 0,3,4
 400 71 400 71 348.5 30 c 128,-1,5
 297 -11 297 -11 211 -11 c 0,6,7
 122 -11 122 -11 52 25 c 1,8,-1
 50 34 l 1,9,-1
 65 137 l 1,10,-1
 88 137 l 1,11,-1
 91 133 l 1,12,13
 91 85 91 85 121.5 57.5 c 128,-1,14
 152 30 152 30 208 30 c 0,15,16
 270 30 270 30 298.5 56 c 128,-1,17
 327 82 327 82 327 116 c 0,18,19
 327 133 327 133 324.5 145 c 128,-1,20
 322 157 322 157 305.5 174 c 128,-1,21
 289 191 289 191 257 199 c 2,22,-1
 161 223 l 2,23,24
 52 251 52 251 52 341 c 0,25,26
 52 405 52 405 98.5 440 c 128,-1,27
 145 475 145 475 218 475 c 0,28,29
 301 475 301 475 366 439 c 1,30,-1
 369 430 l 1,31,-1
 358 353 l 1,32,-1
 337 353 l 1,33,-1
 333 356 l 1,34,35
 333 397 333 397 295 417 c 128,-1,36
 257 437 257 437 217 437 c 0,37,38
 170 437 170 437 146.5 413.5 c 128,-1,39
 123 390 123 390 123 356 c 0,40,41
 123 299 123 299 199 281 c 2,0,-1
EndSplineSet
EndChar
StartChar: t
Encoding: 116 116 87
Width: 328
GlyphClass: 2
Flags: W
LayerCount: 2
Back
Fore
SplineSet
303 418 m 1,0,-1
 298 413 l 1,1,-1
 168 413 l 1,2,3
 168 337 168 337 167.5 262.5 c 128,-1,4
 167 188 167 188 166.5 144.5 c 128,-1,5
 166 101 166 101 166 99 c 0,6,7
 166 34 166 34 216 34 c 0,8,9
 256 34 256 34 292 55 c 1,10,-1
 301 48 l 1,11,-1
 288 24 l 1,12,13
 246 -11 246 -11 190 -11 c 0,14,15
 97 -11 97 -11 97 89 c 0,16,17
 97 96 97 96 98.5 141.5 c 128,-1,18
 100 187 100 187 101.5 262.5 c 128,-1,19
 103 338 103 338 103 413 c 1,20,-1
 31 413 l 1,21,-1
 27 418 l 1,22,-1
 27 451 l 1,23,-1
 31 455 l 1,24,-1
 103 455 l 1,25,26
 103 521 103 521 98 598 c 1,27,-1
 105 604 l 1,28,-1
 119 605 l 2,29,30
 157 609 157 609 170 616 c 1,31,-1
 179 612 l 1,32,33
 168 555 168 555 168 455 c 1,34,-1
 298 455 l 1,35,-1
 303 451 l 1,36,-1
 303 418 l 1,0,-1
EndSplineSet
EndChar
StartChar: u
Encoding: 117 117 209
Width: 599
Flags: W
LayerCount: 2
Back
Fore
SplineSet
429 86 m 1,0,1
 403 44 403 44 362.5 16.5 c 128,-1,2
 322 -11 322 -11 263 -11 c 0,3,4
 234 -11 234 -11 207.5 -4.5 c 128,-1,5
 181 2 181 2 158.5 17 c 128,-1,6
 136 32 136 32 120 57 c 128,-1,7
 104 82 104 82 97 120 c 0,8,9
 92 146 92 146 92.5 174.5 c 128,-1,10
 93 203 93 203 92 232 c 0,11,12
 92 245 92 245 91.5 267.5 c 128,-1,13
 91 290 91 290 91 313.5 c 128,-1,14
 91 337 91 337 91 357 c 128,-1,15
 91 377 91 377 91 386 c 0,16,17
 91 397 91 397 86 405.5 c 128,-1,18
 81 414 81 414 78 418 c 0,19,20
 68 429 68 429 53 431.5 c 128,-1,21
 38 434 38 434 22 434 c 1,22,-1
 19 438 l 1,23,-1
 19 452 l 1,24,-1
 22 455 l 1,25,-1
 40 455 l 2,26,27
 57 455 57 455 83 455.5 c 128,-1,28
 109 456 109 456 128 459 c 2,29,-1
 163 464 l 1,30,-1
 169 455 l 2,31,32
 167 451 167 451 166 440.5 c 128,-1,33
 165 430 165 430 164 418 c 128,-1,34
 163 406 163 406 163 395 c 128,-1,35
 163 384 163 384 163 378 c 0,36,37
 163 361 163 361 162.5 340.5 c 128,-1,38
 162 320 162 320 161.5 299 c 128,-1,39
 161 278 161 278 160.5 259 c 128,-1,40
 160 240 160 240 160 227 c 0,41,42
 160 205 160 205 161.5 177.5 c 128,-1,43
 163 150 163 150 168 130 c 0,44,45
 178 83 178 83 209 60 c 128,-1,46
 240 37 240 37 281 37 c 0,47,48
 312 37 312 37 338 49.5 c 128,-1,49
 364 62 364 62 383.5 80 c 128,-1,50
 403 98 403 98 415.5 118.5 c 128,-1,51
 428 139 428 139 432 156 c 1,52,-1
 432 286 l 2,53,54
 432 307 432 307 431.5 321.5 c 128,-1,55
 431 336 431 336 430.5 347 c 128,-1,56
 430 358 430 358 429.5 367 c 128,-1,57
 429 376 429 376 428 386 c 0,58,59
 426 397 426 397 422.5 405.5 c 128,-1,60
 419 414 419 414 416 417 c 0,61,62
 406 429 406 429 391 431.5 c 128,-1,63
 376 434 376 434 360 434 c 1,64,-1
 356 438 l 1,65,-1
 356 452 l 1,66,-1
 360 455 l 1,67,-1
 378 455 l 2,68,69
 395 455 395 455 421 455.5 c 128,-1,70
 447 456 447 456 465 459 c 2,71,-1
 500 464 l 1,72,-1
 506 455 l 2,73,74
 504 451 504 451 503 440.5 c 128,-1,75
 502 430 502 430 501 418 c 128,-1,76
 500 406 500 406 500 395 c 128,-1,77
 500 384 500 384 500 378 c 0,78,79
 500 370 500 370 499.5 363 c 128,-1,80
 499 356 499 356 499 346 c 128,-1,81
 499 336 499 336 498.5 322.5 c 128,-1,82
 498 309 498 309 498 287 c 2,83,-1
 498 175 l 2,84,85
 498 153 498 153 498.5 139 c 128,-1,86
 499 125 499 125 499.5 115 c 128,-1,87
 500 105 500 105 500.5 96.5 c 128,-1,88
 501 88 501 88 501 78 c 0,89,90
 503 55 503 55 506 44.5 c 128,-1,91
 509 34 509 34 516 29 c 0,92,93
 524 21 524 21 539.5 19.5 c 128,-1,94
 555 18 555 18 571 18 c 1,95,-1
 575 14 l 1,96,-1
 577 0 l 1,97,-1
 575 -4 l 1,98,99
 557 -2 557 -2 536 -1 c 128,-1,100
 515 0 515 0 495 0 c 0,101,102
 457 0 457 0 426 -3 c 1,103,-1
 420 7 l 1,104,105
 423 20 423 20 426.5 41 c 128,-1,106
 430 62 430 62 432 84 c 1,107,-1
 429 86 l 1,0,1
EndSplineSet
EndChar
StartChar: v
Encoding: 118 118 216
Width: 515
Flags: W
LayerCount: 2
Back
Fore
SplineSet
230 -5 m 1,0,-1
 220 0 l 1,1,-1
 160 160 l 2,2,3
 157 169 157 169 147.5 193 c 128,-1,4
 138 217 138 217 126 246 c 128,-1,5
 114 275 114 275 101.5 306.5 c 128,-1,6
 89 338 89 338 79 362 c 256,7,8
 69 386 69 386 61 400 c 0,9,10
 51 416 51 416 38.5 425 c 128,-1,11
 26 434 26 434 5 436 c 1,12,-1
 -1 441 l 1,13,-1
 -1 455 l 1,14,-1
 3 459 l 1,15,16
 20 457 20 457 39 455 c 128,-1,17
 58 453 58 453 74 453 c 2,18,-1
 113 453 l 2,19,20
 129 453 129 453 151.5 455 c 128,-1,21
 174 457 174 457 194 459 c 1,22,-1
 198 455 l 1,23,-1
 198 443 l 1,24,-1
 194 439 l 1,25,26
 172 437 172 437 157.5 427.5 c 128,-1,27
 143 418 143 418 143 400 c 0,28,29
 143 388 143 388 152.5 357.5 c 128,-1,30
 162 327 162 327 174 292.5 c 128,-1,31
 186 258 186 258 197 228.5 c 128,-1,32
 208 199 208 199 212 189 c 2,33,-1
 261 59 l 1,34,-1
 309 174 l 2,35,36
 316 191 316 191 328 220 c 128,-1,37
 340 249 340 249 352 282 c 128,-1,38
 364 315 364 315 372.5 346.5 c 128,-1,39
 381 378 381 378 381 400 c 256,40,41
 381 422 381 422 365 429.5 c 128,-1,42
 349 437 349 437 329 439 c 1,43,-1
 325 443 l 1,44,-1
 325 455 l 1,45,-1
 329 459 l 1,46,47
 368 453 368 453 402 453 c 2,48,-1
 443 453 l 2,49,50
 460 453 460 453 476.5 455 c 128,-1,51
 493 457 493 457 512 459 c 1,52,-1
 516 455 l 1,53,-1
 516 441 l 1,54,-1
 510 436 l 1,55,56
 493 434 493 434 480.5 426 c 128,-1,57
 468 418 468 418 457 400 c 0,58,59
 448 384 448 384 436.5 360 c 128,-1,60
 425 336 425 336 413.5 308 c 128,-1,61
 402 280 402 280 390.5 251 c 128,-1,62
 379 222 379 222 369.5 197 c 128,-1,63
 360 172 360 172 353.5 153.5 c 128,-1,64
 347 135 347 135 344 128 c 2,65,-1
 293 0 l 1,66,-1
 230 -5 l 1,0,-1
EndSplineSet
EndChar
StartChar: w
Encoding: 119 119 217
Width: 819
Flags: W
LayerCount: 2
Back
Fore
SplineSet
527 0 m 1,0,-1
 409 304 l 1,1,2
 398 276 398 276 387.5 248 c 128,-1,3
 377 220 377 220 368 195.5 c 128,-1,4
 359 171 359 171 352 153 c 128,-1,5
 345 135 345 135 342 128 c 2,6,-1
 291 0 l 1,7,-1
 230 -5 l 1,8,-1
 220 0 l 1,9,-1
 160 160 l 2,10,11
 157 168 157 168 147.5 191.5 c 128,-1,12
 138 215 138 215 126 245 c 128,-1,13
 114 275 114 275 101.5 306.5 c 128,-1,14
 89 338 89 338 79 362 c 256,15,16
 69 386 69 386 61 400 c 0,17,18
 51 416 51 416 38.5 425 c 128,-1,19
 26 434 26 434 5 436 c 1,20,-1
 -1 441 l 1,21,-1
 -1 455 l 1,22,-1
 3 459 l 1,23,24
 20 457 20 457 39 455 c 128,-1,25
 58 453 58 453 74 453 c 2,26,-1
 113 453 l 2,27,28
 129 453 129 453 151.5 455 c 128,-1,29
 174 457 174 457 194 459 c 1,30,-1
 198 455 l 1,31,-1
 198 443 l 1,32,-1
 194 439 l 1,33,34
 172 437 172 437 157.5 427.5 c 128,-1,35
 143 418 143 418 143 400 c 0,36,37
 143 392 143 392 147.5 375 c 128,-1,38
 152 358 152 358 159 337 c 128,-1,39
 166 316 166 316 174 292.5 c 128,-1,40
 182 269 182 269 190 248 c 128,-1,41
 198 227 198 227 204 211 c 128,-1,42
 210 195 210 195 212 189 c 2,43,-1
 261 59 l 1,44,-1
 309 174 l 2,45,46
 315 189 315 189 325.5 213 c 128,-1,47
 336 237 336 237 346.5 265 c 128,-1,48
 357 293 357 293 366.5 322 c 128,-1,49
 376 351 376 351 380 375 c 1,50,51
 375 394 375 394 364.5 412.5 c 128,-1,52
 354 431 354 431 323 436 c 1,53,-1
 317 441 l 1,54,-1
 317 455 l 1,55,-1
 321 459 l 1,56,57
 338 457 338 457 352.5 455 c 128,-1,58
 367 453 367 453 383 453 c 2,59,-1
 422 453 l 2,60,61
 455 453 455 453 493 459 c 1,62,-1
 497 455 l 1,63,-1
 497 443 l 1,64,-1
 493 439 l 1,65,66
 449 434 449 434 449 400 c 0,67,68
 449 392 449 392 453.5 375 c 128,-1,69
 458 358 458 358 465 337 c 128,-1,70
 472 316 472 316 480 292.5 c 128,-1,71
 488 269 488 269 496 248 c 128,-1,72
 504 227 504 227 510 211 c 128,-1,73
 516 195 516 195 518 189 c 2,74,-1
 567 59 l 1,75,-1
 615 174 l 2,76,77
 622 191 622 191 634 220 c 128,-1,78
 646 249 646 249 658 282 c 128,-1,79
 670 315 670 315 678.5 346.5 c 128,-1,80
 687 378 687 378 687 400 c 256,81,82
 687 422 687 422 671 429.5 c 128,-1,83
 655 437 655 437 635 439 c 1,84,-1
 631 443 l 1,85,-1
 631 455 l 1,86,-1
 635 459 l 1,87,88
 675 453 675 453 708 453 c 2,89,-1
 749 453 l 2,90,91
 766 453 766 453 781.5 455 c 128,-1,92
 797 457 797 457 817 459 c 1,93,-1
 820 455 l 1,94,-1
 820 441 l 1,95,-1
 815 436 l 1,96,97
 797 434 797 434 784.5 426 c 128,-1,98
 772 418 772 418 761 400 c 0,99,100
 751 384 751 384 740 360 c 128,-1,101
 729 336 729 336 717.5 308 c 128,-1,102
 706 280 706 280 695 251 c 128,-1,103
 684 222 684 222 674.5 197 c 128,-1,104
 665 172 665 172 658 153.5 c 128,-1,105
 651 135 651 135 648 128 c 2,106,-1
 597 0 l 1,107,-1
 536 -5 l 1,108,-1
 527 0 l 1,0,-1
EndSplineSet
EndChar
StartChar: x
Encoding: 120 120 218
Width: 525
Flags: W
LayerCount: 2
Back
Fore
SplineSet
175 410 m 0,0,1
 175 406 175 406 182.5 393 c 128,-1,2
 190 380 190 380 203 361 c 128,-1,3
 216 342 216 342 233 318 c 128,-1,4
 250 294 250 294 270 269 c 1,5,6
 289 292 289 292 305 315 c 128,-1,7
 321 338 321 338 333 356.5 c 128,-1,8
 345 375 345 375 352 388.5 c 128,-1,9
 359 402 359 402 359 406 c 0,10,11
 359 426 359 426 351 430.5 c 128,-1,12
 343 435 343 435 320 439 c 1,13,-1
 316 443 l 1,14,-1
 316 455 l 1,15,-1
 320 459 l 1,16,17
 340 456 340 456 353.5 454.5 c 128,-1,18
 367 453 367 453 384 453 c 2,19,-1
 425 453 l 2,20,21
 442 453 442 453 458.5 455 c 128,-1,22
 475 457 475 457 495 459 c 1,23,-1
 499 455 l 1,24,-1
 499 441 l 1,25,-1
 493 436 l 1,26,27
 477 434 477 434 464.5 430.5 c 128,-1,28
 452 427 452 427 441.5 420.5 c 128,-1,29
 431 414 431 414 421.5 404.5 c 128,-1,30
 412 395 412 395 402 380 c 0,31,32
 384 356 384 356 370.5 337 c 128,-1,33
 357 318 357 318 344.5 301.5 c 128,-1,34
 332 285 332 285 320.5 269 c 128,-1,35
 309 253 309 253 296 234 c 1,36,37
 319 203 319 203 342 173.5 c 128,-1,38
 365 144 365 144 383 120.5 c 128,-1,39
 401 97 401 97 412.5 82.5 c 128,-1,40
 424 68 424 68 426 67 c 0,41,42
 440 48 440 48 457.5 35.5 c 128,-1,43
 475 23 475 23 507 18 c 1,44,-1
 513 13 l 1,45,-1
 513 -1 l 1,46,-1
 509 -5 l 1,47,48
 492 -3 492 -3 471 -1 c 128,-1,49
 450 1 450 1 434 1 c 2,50,-1
 395 1 l 2,51,52
 379 1 379 1 358 -1 c 128,-1,53
 337 -3 337 -3 317 -5 c 1,54,-1
 313 -1 l 1,55,-1
 313 11 l 1,56,-1
 317 15 l 1,57,58
 334 16 334 16 346 23 c 128,-1,59
 358 30 358 30 358 38 c 0,60,61
 358 43 358 43 354.5 52 c 128,-1,62
 351 61 351 61 339.5 78.5 c 128,-1,63
 328 96 328 96 307.5 125 c 128,-1,64
 287 154 287 154 254 199 c 1,65,66
 234 175 234 175 214.5 150 c 128,-1,67
 195 125 195 125 179 104 c 128,-1,68
 163 83 163 83 153.5 68 c 128,-1,69
 144 53 144 53 144 49 c 0,70,71
 144 32 144 32 156.5 26 c 128,-1,72
 169 20 169 20 192 16 c 1,73,-1
 196 12 l 1,74,-1
 196 0 l 1,75,-1
 192 -4 l 1,76,77
 172 -1 172 -1 159 -0.5 c 128,-1,78
 146 0 146 0 129 0 c 2,79,-1
 88 0 l 2,80,81
 71 0 71 0 54 -1 c 128,-1,82
 37 -2 37 -2 18 -4 c 1,83,-1
 14 0 l 1,84,-1
 14 14 l 1,85,-1
 20 19 l 1,86,87
 36 22 36 22 46.5 25 c 128,-1,88
 57 28 57 28 66 33.5 c 128,-1,89
 75 39 75 39 83.5 47.5 c 128,-1,90
 92 56 92 56 103 70 c 0,91,92
 120 92 120 92 153.5 136.5 c 128,-1,93
 187 181 187 181 225 236 c 1,94,95
 201 268 201 268 170.5 309.5 c 128,-1,96
 140 351 140 351 101 400 c 0,97,98
 89 415 89 415 73.5 424.5 c 128,-1,99
 58 434 58 434 35 436 c 1,100,-1
 29 441 l 1,101,-1
 29 455 l 1,102,-1
 33 459 l 1,103,104
 50 457 50 457 71 455 c 128,-1,105
 92 453 92 453 108 453 c 2,106,-1
 147 453 l 2,107,108
 163 453 163 453 183.5 455 c 128,-1,109
 204 457 204 457 224 459 c 1,110,-1
 228 455 l 1,111,-1
 228 443 l 1,112,-1
 224 439 l 1,113,114
 204 437 204 437 189.5 432 c 128,-1,115
 175 427 175 427 175 410 c 0,0,1
EndSplineSet
EndChar
StartChar: y
Encoding: 121 121 92
Width: 514
GlyphClass: 2
Flags: W
LayerCount: 2
Back
Fore
SplineSet
41 -229 m 1,0,1
 74 -229 74 -229 95 -222 c 128,-1,2
 116 -215 116 -215 141 -190 c 0,3,4
 178 -152 178 -152 197 -102 c 2,5,-1
 229 -21 l 1,6,-1
 160 160 l 1,7,-1
 79 362 l 2,8,9
 69 386 69 386 61 400 c 0,10,11
 41 432 41 432 5 436 c 1,12,-1
 -1 441 l 1,13,-1
 -1 455 l 1,14,-1
 3 459 l 1,15,16
 47 453 47 453 74 453 c 2,17,-1
 113 453 l 2,18,19
 142 453 142 453 194 459 c 1,20,-1
 198 455 l 1,21,-1
 198 443 l 1,22,-1
 194 439 l 1,23,24
 143 434 143 434 143 400 c 0,25,26
 143 362 143 362 212 189 c 2,27,-1
 262 59 l 1,28,-1
 309 174 l 2,29,30
 311 178 311 178 320 202 c 2,31,-1
 336 240 l 2,32,33
 342 255 342 255 351.5 281.5 c 128,-1,34
 361 308 361 308 366.5 326.5 c 128,-1,35
 372 345 372 345 376.5 365.5 c 128,-1,36
 381 386 381 386 381 400 c 0,37,38
 381 433 381 433 329 439 c 1,39,-1
 325 443 l 1,40,-1
 325 455 l 1,41,-1
 329 459 l 1,42,43
 368 453 368 453 402 453 c 2,44,-1
 443 453 l 2,45,46
 460 453 460 453 510 459 c 1,47,-1
 514 455 l 1,48,-1
 514 441 l 1,49,-1
 509 436 l 1,50,51
 491 434 491 434 481.5 426.5 c 128,-1,52
 472 419 472 419 461 400 c 0,53,54
 448 378 448 378 429 334 c 2,55,-1
 396 252 l 1,56,-1
 365 172 l 2,57,58
 349 130 349 130 348 128 c 2,59,-1
 250 -116 l 2,60,61
 206 -225 206 -225 83 -257 c 0,62,63
 70 -260 70 -260 47 -260 c 1,64,-1
 39 -258 l 1,65,-1
 37 -234 l 1,66,-1
 41 -229 l 1,0,1
EndSplineSet
EndChar
StartChar: z
Encoding: 122 122 223
Width: 488
Flags: W
LayerCount: 2
Back
Fore
SplineSet
50 350 m 1,0,-1
 58 455 l 1,1,-1
 61 461 l 1,2,3
 105 459 105 459 148.5 457.5 c 128,-1,4
 192 456 192 456 228.5 455.5 c 128,-1,5
 265 455 265 455 291.5 455 c 128,-1,6
 318 455 318 455 327 455 c 2,7,-1
 372 455 l 2,8,9
 381 455 381 455 399.5 456.5 c 128,-1,10
 418 458 418 458 430 461 c 1,11,-1
 436 453 l 1,12,-1
 433 437 l 1,13,14
 420 424 420 424 399.5 397.5 c 128,-1,15
 379 371 379 371 354.5 336.5 c 128,-1,16
 330 302 330 302 303 262.5 c 128,-1,17
 276 223 276 223 251.5 184 c 128,-1,18
 227 145 227 145 205.5 109.5 c 128,-1,19
 184 74 184 74 171 48 c 1,20,-1
 175 44 l 1,21,-1
 226 44 l 2,22,23
 286 44 286 44 320.5 46 c 128,-1,24
 355 48 355 48 374 55.5 c 128,-1,25
 393 63 393 63 402 78.5 c 128,-1,26
 411 94 411 94 421 121 c 1,27,-1
 424 125 l 1,28,-1
 446 125 l 1,29,-1
 430 6 l 1,30,-1
 425 -4 l 2,31,32
 422 -4 422 -4 404.5 -3.5 c 128,-1,33
 387 -3 387 -3 362 -3 c 128,-1,34
 337 -3 337 -3 307.5 -2 c 128,-1,35
 278 -1 278 -1 252 -1 c 128,-1,36
 226 -1 226 -1 206 -0.5 c 128,-1,37
 186 0 186 0 180 0 c 2,38,-1
 148 0 l 2,39,40
 140 0 140 0 126.5 -0.5 c 128,-1,41
 113 -1 113 -1 98 -1.5 c 128,-1,42
 83 -2 83 -2 69 -2.5 c 128,-1,43
 55 -3 55 -3 46 -4 c 1,44,-1
 39 4 l 1,45,-1
 39 18 l 1,46,47
 53 32 53 32 75.5 60 c 128,-1,48
 98 88 98 88 124 123.5 c 128,-1,49
 150 159 150 159 177 199.5 c 128,-1,50
 204 240 204 240 228.5 279.5 c 128,-1,51
 253 319 253 319 272 354 c 128,-1,52
 291 389 291 389 301 414 c 1,53,-1
 297 418 l 1,54,-1
 202 418 l 2,55,56
 163 418 163 418 140 414.5 c 128,-1,57
 117 411 117 411 104.5 402.5 c 128,-1,58
 92 394 92 394 87 381 c 128,-1,59
 82 368 82 368 78 349 c 1,60,-1
 74 345 l 1,61,-1
 57 345 l 1,62,-1
 50 350 l 1,0,-1
EndSplineSet
EndChar
StartChar: braceleft
Encoding: 123 123 82
Width: 254
Flags: W
LayerCount: 2
Back
Fore
SplineSet
227 749 m 1,0,1
 201 746 201 746 186.5 736.5 c 128,-1,2
 172 727 172 727 164 712 c 128,-1,3
 156 697 156 697 154 677.5 c 128,-1,4
 152 658 152 658 152 637 c 0,5,6
 152 628 152 628 152.5 609 c 128,-1,7
 153 590 153 590 153 569 c 128,-1,8
 153 548 153 548 153.5 527.5 c 128,-1,9
 154 507 154 507 154 494 c 0,10,11
 154 463 154 463 149.5 435.5 c 128,-1,12
 145 408 145 408 134.5 386 c 128,-1,13
 124 364 124 364 106 348.5 c 128,-1,14
 88 333 88 333 60 327 c 1,15,16
 88 321 88 321 106 305.5 c 128,-1,17
 124 290 124 290 134.5 268 c 128,-1,18
 145 246 145 246 149.5 218.5 c 128,-1,19
 154 191 154 191 154 160 c 0,20,21
 154 147 154 147 153.5 126.5 c 128,-1,22
 153 106 153 106 153 85 c 128,-1,23
 153 64 153 64 152.5 45 c 128,-1,24
 152 26 152 26 152 17 c 0,25,26
 152 -4 152 -4 154 -23.5 c 128,-1,27
 156 -43 156 -43 164 -58 c 128,-1,28
 172 -73 172 -73 186.5 -82.5 c 128,-1,29
 201 -92 201 -92 227 -95 c 1,30,-1
 225 -106 l 1,31,32
 182 -106 182 -106 155.5 -95.5 c 128,-1,33
 129 -85 129 -85 115 -66.5 c 128,-1,34
 101 -48 101 -48 96 -22 c 128,-1,35
 91 4 91 4 91 36 c 0,36,37
 91 47 91 47 91.5 66 c 128,-1,38
 92 85 92 85 92 106.5 c 128,-1,39
 92 128 92 128 92.5 149 c 128,-1,40
 93 170 93 170 93 184 c 0,41,42
 93 204 93 204 91.5 227.5 c 128,-1,43
 90 251 90 251 83.5 271.5 c 128,-1,44
 77 292 77 292 62.5 306.5 c 128,-1,45
 48 321 48 321 21 322 c 1,46,-1
 21 332 l 1,47,48
 48 333 48 333 62.5 348 c 128,-1,49
 77 363 77 363 84 384.5 c 128,-1,50
 91 406 91 406 92 430 c 128,-1,51
 93 454 93 454 93 473 c 0,52,53
 93 488 93 488 92.5 508.5 c 128,-1,54
 92 529 92 529 92 550 c 128,-1,55
 92 571 92 571 91.5 589 c 128,-1,56
 91 607 91 607 91 618 c 0,57,58
 91 649 91 649 96 675.5 c 128,-1,59
 101 702 101 702 115 720.5 c 128,-1,60
 129 739 129 739 155.5 749.5 c 128,-1,61
 182 760 182 760 225 760 c 1,62,-1
 227 749 l 1,0,1
EndSplineSet
EndChar
StartChar: bar
Encoding: 124 124 81
Width: 237
Flags: W
LayerCount: 2
Back
Fore
SplineSet
79 -110 m 1,0,1
 87 -43 87 -43 89 37.5 c 128,-1,2
 91 118 91 118 91 192 c 2,3,-1
 91 500 l 2,4,5
 91 525 91 525 91 557.5 c 128,-1,6
 91 590 91 590 89.5 626 c 128,-1,7
 88 662 88 662 85.5 697.5 c 128,-1,8
 83 733 83 733 79 764 c 1,9,-1
 80 768 l 1,10,-1
 156 768 l 1,11,-1
 158 764 l 1,12,13
 153 733 153 733 151 697.5 c 128,-1,14
 149 662 149 662 147.5 626 c 128,-1,15
 146 590 146 590 146 557.5 c 128,-1,16
 146 525 146 525 146 500 c 2,17,-1
 146 192 l 2,18,19
 146 118 146 118 148 37.5 c 128,-1,20
 150 -43 150 -43 158 -110 c 1,21,-1
 156 -114 l 1,22,-1
 80 -114 l 1,23,-1
 79 -110 l 1,0,1
EndSplineSet
EndChar
StartChar: braceright
Encoding: 125 125 96
Width: 269
GlyphClass: 2
Flags: W
LayerCount: 2
Back
Fore
SplineSet
35 749 m 1,0,-1
 37 760 l 1,1,2
 117 760 117 760 144 724.5 c 128,-1,3
 171 689 171 689 171 618 c 0,4,5
 171 606 171 606 170.5 550 c 128,-1,6
 170 494 170 494 170 473 c 0,7,8
 170 451 170 451 170.5 438 c 128,-1,9
 171 425 171 425 174.5 402.5 c 128,-1,10
 178 380 178 380 185 367 c 128,-1,11
 192 354 192 354 206.5 343.5 c 128,-1,12
 221 333 221 333 241 332 c 1,13,-1
 241 322 l 1,14,15
 221 321 221 321 206.5 311 c 128,-1,16
 192 301 192 301 185 288.5 c 128,-1,17
 178 276 178 276 174.5 254 c 128,-1,18
 171 232 171 232 170.5 219 c 128,-1,19
 170 206 170 206 170 184 c 0,20,21
 170 164 170 164 170.5 106.5 c 128,-1,22
 171 49 171 49 171 36 c 0,23,24
 171 -35 171 -35 144 -70.5 c 128,-1,25
 117 -106 117 -106 37 -106 c 1,26,-1
 35 -95 l 1,27,28
 81 -90 81 -90 96 -62 c 128,-1,29
 111 -34 111 -34 111 17 c 0,30,31
 111 28 111 28 110 84.5 c 128,-1,32
 109 141 109 141 109 160 c 0,33,34
 109 305 109 305 203 327 c 1,35,36
 109 349 109 349 109 494 c 0,37,38
 109 513 109 513 110 569.5 c 128,-1,39
 111 626 111 626 111 637 c 0,40,41
 111 688 111 688 96 716 c 128,-1,42
 81 744 81 744 35 749 c 1,0,-1
EndSplineSet
EndChar
StartChar: asciitilde
Encoding: 126 126 97
Width: 479
GlyphClass: 2
Flags: W
LayerCount: 2
Back
Fore
SplineSet
413 288 m 1,0,1
 413 281 413 281 405 264 c 128,-1,2
 397 247 397 247 375 229 c 128,-1,3
 353 211 353 211 325 211 c 0,4,5
 313 211 313 211 235 215.5 c 128,-1,6
 157 220 157 220 134 220 c 128,-1,7
 111 220 111 220 100.5 214.5 c 128,-1,8
 90 209 90 209 79 195 c 1,9,-1
 66 202 l 1,10,11
 66 222 66 222 92.5 250.5 c 128,-1,12
 119 279 119 279 157 279 c 0,13,14
 171 279 171 279 237.5 274.5 c 128,-1,15
 304 270 304 270 336 270 c 0,16,17
 383 270 383 270 401 296 c 1,18,-1
 413 288 l 1,0,1
EndSplineSet
EndChar
StartChar: exclamdown
Encoding: 161 161 118
Width: 225
Flags: W
LayerCount: 2
Back
Fore
SplineSet
65 429 m 256,0,1
 65 448 65 448 78.5 461.5 c 128,-1,2
 92 475 92 475 112 475 c 0,3,4
 130 475 130 475 144.5 461.5 c 128,-1,5
 159 448 159 448 159 429 c 256,6,7
 159 410 159 410 144.5 395.5 c 128,-1,8
 130 381 130 381 112 381 c 0,9,10
 92 381 92 381 78.5 395.5 c 128,-1,11
 65 410 65 410 65 429 c 256,0,1
153 -222 m 1,12,-1
 71 -196 l 1,13,-1
 67 -187 l 1,14,15
 68 -177 68 -177 69 -163.5 c 128,-1,16
 70 -150 70 -150 72 -127.5 c 128,-1,17
 74 -105 74 -105 76 -70.5 c 128,-1,18
 78 -36 78 -36 80 15.5 c 128,-1,19
 82 67 82 67 84.5 139.5 c 128,-1,20
 87 212 87 212 89 311 c 1,21,-1
 95 315 l 1,22,-1
 130 298 l 1,23,-1
 135 292 l 1,24,25
 137 188 137 188 139.5 114.5 c 128,-1,26
 142 41 142 41 144.5 -9 c 128,-1,27
 147 -59 147 -59 149 -89.5 c 128,-1,28
 151 -120 151 -120 152.5 -138.5 c 128,-1,29
 154 -157 154 -157 155 -168 c 128,-1,30
 156 -179 156 -179 157 -190 c 0,31,32
 157 -195 157 -195 157.5 -202.5 c 128,-1,33
 158 -210 158 -210 158 -219 c 1,34,-1
 153 -222 l 1,12,-1
EndSplineSet
EndChar
StartChar: cent
Encoding: 162 162 92
Width: 515
Flags: W
LayerCount: 2
Back
Fore
SplineSet
245 -133 m 1,0,1
 249 -106 249 -106 251 -74.5 c 128,-1,2
 253 -43 253 -43 255 -9 c 1,3,4
 212 -5 212 -5 173.5 11.5 c 128,-1,5
 135 28 135 28 106 55.5 c 128,-1,6
 77 83 77 83 60 122.5 c 128,-1,7
 43 162 43 162 43 212 c 0,8,9
 43 261 43 261 59.5 300 c 128,-1,10
 76 339 76 339 105 367.5 c 128,-1,11
 134 396 134 396 172.5 413 c 128,-1,12
 211 430 211 430 255 435 c 1,13,14
 254 473 254 473 251.5 509 c 128,-1,15
 249 545 249 545 245 573 c 1,16,-1
 247 577 l 1,17,-1
 323 577 l 1,18,-1
 325 573 l 1,19,20
 320 546 320 546 318 510.5 c 128,-1,21
 316 475 316 475 314 437 c 1,22,23
 359 435 359 435 396.5 424 c 128,-1,24
 434 413 434 413 454 402 c 1,25,-1
 457 393 l 1,26,-1
 446 316 l 1,27,-1
 425 316 l 1,28,-1
 421 319 l 1,29,30
 421 340 421 340 410.5 353.5 c 128,-1,31
 400 367 400 367 384 375 c 128,-1,32
 368 383 368 383 349 387 c 128,-1,33
 330 391 330 391 313 392 c 1,34,35
 312 356 312 356 312 323.5 c 128,-1,36
 312 291 312 291 312 271 c 2,37,-1
 312 188 l 2,38,39
 312 155 312 155 312 117 c 128,-1,40
 312 79 312 79 313 41 c 1,41,42
 356 42 356 42 394 53 c 128,-1,43
 432 64 432 64 459 78 c 1,44,-1
 469 68 l 1,45,-1
 454 40 l 1,46,47
 434 26 434 26 398 11 c 128,-1,48
 362 -4 362 -4 315 -9 c 1,49,50
 317 -42 317 -42 319 -74 c 128,-1,51
 321 -106 321 -106 325 -133 c 1,52,-1
 323 -137 l 1,53,-1
 247 -137 l 1,54,-1
 245 -133 l 1,0,1
119 218 m 0,55,56
 119 151 119 151 153 105 c 128,-1,57
 187 59 187 59 255 45 c 1,58,59
 256 83 256 83 256.5 119.5 c 128,-1,60
 257 156 257 156 257 188 c 2,61,-1
 257 271 l 2,62,63
 257 291 257 291 257 322.5 c 128,-1,64
 257 354 257 354 256 390 c 1,65,66
 221 384 221 384 195.5 368.5 c 128,-1,67
 170 353 170 353 153 330.5 c 128,-1,68
 136 308 136 308 127.5 279 c 128,-1,69
 119 250 119 250 119 218 c 0,55,56
EndSplineSet
EndChar
StartChar: sterling
Encoding: 163 163 199
Width: 531
Flags: W
LayerCount: 2
Back
Fore
SplineSet
148 312 m 1,0,1
 143 348 143 348 138.5 385 c 128,-1,2
 134 422 134 422 134 457 c 0,3,4
 134 553 134 553 180 609 c 128,-1,5
 226 665 226 665 311 665 c 0,6,7
 332 665 332 665 356 660 c 128,-1,8
 380 655 380 655 402.5 643.5 c 128,-1,9
 425 632 425 632 444.5 612.5 c 128,-1,10
 464 593 464 593 476 565 c 1,11,-1
 463 474 l 1,12,-1
 436 474 l 1,13,-1
 432 478 l 1,14,15
 426 545 426 545 401.5 578.5 c 128,-1,16
 377 612 377 612 323 612 c 0,17,18
 291 612 291 612 270.5 601 c 128,-1,19
 250 590 250 590 237 570.5 c 128,-1,20
 224 551 224 551 219 524.5 c 128,-1,21
 214 498 214 498 214 466 c 256,22,23
 214 434 214 434 217.5 394.5 c 128,-1,24
 221 355 221 355 223 312 c 1,25,-1
 372 312 l 1,26,-1
 362 270 l 1,27,-1
 225 270 l 1,28,-1
 225 259 l 2,29,30
 225 224 225 224 221 191.5 c 128,-1,31
 217 159 217 159 207.5 131 c 128,-1,32
 198 103 198 103 181 81.5 c 128,-1,33
 164 60 164 60 137 48 c 1,34,-1
 139 45 l 1,35,36
 228 38 228 38 273.5 33.5 c 128,-1,37
 319 29 319 29 333 29 c 0,38,39
 363 29 363 29 381 33 c 128,-1,40
 399 37 399 37 409.5 45 c 128,-1,41
 420 53 420 53 425 66.5 c 128,-1,42
 430 80 430 80 436 99 c 1,43,-1
 441 105 l 1,44,-1
 468 105 l 1,45,-1
 431 -34 l 1,46,-1
 422 -44 l 1,47,48
 400 -32 400 -32 357 -23 c 128,-1,49
 314 -14 314 -14 261.5 -9 c 128,-1,50
 209 -4 209 -4 154 -1.5 c 128,-1,51
 99 1 99 1 53 1 c 1,52,-1
 43 11 l 1,53,-1
 43 34 l 1,54,55
 76 60 76 60 97.5 85 c 128,-1,56
 119 110 119 110 131 135.5 c 128,-1,57
 143 161 143 161 148 186.5 c 128,-1,58
 153 212 153 212 153 239 c 0,59,60
 153 247 153 247 153 254.5 c 128,-1,61
 153 262 153 262 152 270 c 1,62,-1
 50 270 l 1,63,-1
 70 312 l 1,64,-1
 148 312 l 1,0,1
EndSplineSet
EndChar
StartChar: currency
Encoding: 164 164 102
Width: 592
GlyphClass: 2
Flags: W
LayerCount: 2
Back
Fore
SplineSet
64 27 m 1,0,-1
 142 107 l 1,1,2
 98 161 98 161 98 230 c 0,3,4
 98 295 98 295 143 351 c 1,5,-1
 61 431 l 1,6,-1
 91 461 l 1,7,-1
 171 382 l 1,8,9
 231 426 231 426 295 426 c 0,10,11
 363 426 363 426 418 382 c 1,12,-1
 499 460 l 1,13,-1
 529 431 l 1,14,-1
 450 351 l 1,15,16
 494 293 494 293 494 228 c 0,17,18
 494 164 494 164 451 107 c 1,19,-1
 531 27 l 1,20,-1
 500 -3 l 1,21,-1
 419 76 l 1,22,23
 360 31 360 31 297 31 c 0,24,25
 237 31 237 31 173 76 c 1,26,-1
 93 -3 l 1,27,-1
 64 27 l 1,0,-1
296 378 m 0,28,29
 235 378 235 378 191.5 335 c 128,-1,30
 148 292 148 292 148 229 c 0,31,32
 148 167 148 167 191.5 123.5 c 128,-1,33
 235 80 235 80 297 80 c 0,34,35
 358 80 358 80 401 123.5 c 128,-1,36
 444 167 444 167 444 229 c 128,-1,37
 444 291 444 291 401 334.5 c 128,-1,38
 358 378 358 378 296 378 c 0,28,29
EndSplineSet
EndChar
StartChar: yen
Encoding: 165 165 103
Width: 696
GlyphClass: 2
Flags: W
LayerCount: 2
Back
Fore
SplineSet
550 307 m 1,0,-1
 390 307 l 1,1,2
 380 287 380 287 380 254 c 1,3,-1
 550 254 l 1,4,-1
 550 210 l 1,5,-1
 380 210 l 1,6,7
 380 129 380 129 383 87 c 0,8,9
 386 48 386 48 408 30 c 0,10,11
 420 20 420 20 461 20 c 1,12,-1
 466 16 l 1,13,-1
 469 -2 l 1,14,-1
 467 -6 l 1,15,16
 462 -6 462 -6 435.5 -4 c 128,-1,17
 409 -2 409 -2 386 -1 c 128,-1,18
 363 0 363 0 355 0 c 2,19,-1
 336 0 l 2,20,21
 328 0 328 0 304.5 -1 c 128,-1,22
 281 -2 281 -2 254 -4 c 128,-1,23
 227 -6 227 -6 223 -6 c 2,24,-1
 222 -2 l 1,25,-1
 224 16 l 1,26,-1
 229 20 l 1,27,28
 270 20 270 20 282 30 c 0,29,30
 304 48 304 48 307 87 c 0,31,32
 310 117 310 117 310 210 c 1,33,-1
 140 210 l 1,34,-1
 140 254 l 1,35,-1
 310 254 l 1,36,37
 309 278 309 278 298 307 c 1,38,-1
 140 307 l 1,39,-1
 140 351 l 1,40,-1
 273 351 l 1,41,42
 196 481 196 481 133 577 c 0,43,44
 119 599 119 599 101 615 c 0,45,46
 83 629 83 629 39 634 c 1,47,-1
 31 638 l 1,48,-1
 31 656 l 1,49,-1
 36 660 l 1,50,51
 100 652 100 652 125 652 c 2,52,-1
 167 652 l 2,53,54
 205 652 205 652 279 660 c 1,55,-1
 283 656 l 1,56,-1
 283 638 l 1,57,-1
 279 634 l 1,58,59
 236 632 236 632 220 622 c 0,60,61
 208 613 208 613 208 605 c 0,62,63
 208 596 208 596 218 581 c 2,64,-1
 356 332 l 1,65,66
 455 501 455 501 480 564 c 0,67,68
 490 584 490 584 490 599 c 0,69,70
 490 611 490 611 482.5 617.5 c 128,-1,71
 475 624 475 624 466.5 626 c 128,-1,72
 458 628 458 628 442 630 c 128,-1,73
 426 632 426 632 419 634 c 2,74,-1
 415 638 l 1,75,-1
 415 656 l 1,76,-1
 419 660 l 1,77,78
 458 654 458 654 511 654 c 2,79,-1
 569 654 l 2,80,81
 617 654 617 654 661 660 c 1,82,-1
 665 656 l 1,83,-1
 665 638 l 1,84,-1
 661 634 l 1,85,86
 615 627 615 627 592 612 c 128,-1,87
 569 597 569 597 540 554 c 0,88,89
 469 448 469 448 415 351 c 1,90,-1
 550 351 l 1,91,-1
 550 307 l 1,0,-1
EndSplineSet
EndChar
StartChar: brokenbar
Encoding: 166 166 86
Width: 241
Flags: W
LayerCount: 2
Back
Fore
SplineSet
81 384 m 1,0,1
 85 417 85 417 87.5 441 c 128,-1,2
 90 465 90 465 91 485.5 c 128,-1,3
 92 506 92 506 92.5 526 c 128,-1,4
 93 546 93 546 93 572 c 2,5,-1
 93 605 l 2,6,7
 93 619 93 619 93 634 c 128,-1,8
 93 649 93 649 91.5 667.5 c 128,-1,9
 90 686 90 686 87.5 709.5 c 128,-1,10
 85 733 85 733 81 764 c 1,11,-1
 82 768 l 1,12,-1
 158 768 l 1,13,-1
 160 764 l 1,14,15
 155 733 155 733 153 709.5 c 128,-1,16
 151 686 151 686 149.5 667.5 c 128,-1,17
 148 649 148 649 148 634 c 128,-1,18
 148 619 148 619 148 605 c 2,19,-1
 148 572 l 2,20,21
 148 546 148 546 148.5 526 c 128,-1,22
 149 506 149 506 150 485.5 c 128,-1,23
 151 465 151 465 153.5 441 c 128,-1,24
 156 417 156 417 160 384 c 1,25,-1
 158 380 l 1,26,-1
 82 380 l 1,27,-1
 81 384 l 1,0,1
81 -110 m 1,28,29
 85 -77 85 -77 87.5 -53 c 128,-1,30
 90 -29 90 -29 91 -8.5 c 128,-1,31
 92 12 92 12 92.5 32 c 128,-1,32
 93 52 93 52 93 78 c 2,33,-1
 93 110 l 2,34,35
 93 124 93 124 93 139 c 128,-1,36
 93 154 93 154 91.5 172.5 c 128,-1,37
 90 191 90 191 87.5 215 c 128,-1,38
 85 239 85 239 81 270 c 1,39,-1
 82 274 l 1,40,-1
 158 274 l 1,41,-1
 160 270 l 1,42,43
 155 239 155 239 153 215 c 128,-1,44
 151 191 151 191 149.5 172.5 c 128,-1,45
 148 154 148 154 148 139 c 128,-1,46
 148 124 148 124 148 110 c 2,47,-1
 148 78 l 2,48,49
 148 52 148 52 148.5 32 c 128,-1,50
 149 12 149 12 150 -8.5 c 128,-1,51
 151 -29 151 -29 153.5 -53 c 128,-1,52
 156 -77 156 -77 160 -110 c 1,53,-1
 158 -114 l 1,54,-1
 82 -114 l 1,55,-1
 81 -110 l 1,28,29
EndSplineSet
EndChar
StartChar: section
Encoding: 167 167 193
Width: 422
Flags: W
LayerCount: 2
Back
Fore
SplineSet
321 249 m 0,0,1
 321 263 321 263 316.5 275 c 128,-1,2
 312 287 312 287 293.5 306.5 c 128,-1,3
 275 326 275 326 236.5 358 c 128,-1,4
 198 390 198 390 131 445 c 1,5,6
 111 426 111 426 104 413.5 c 128,-1,7
 97 401 97 401 97 388 c 0,8,9
 97 377 97 377 103.5 363.5 c 128,-1,10
 110 350 110 350 130.5 328.5 c 128,-1,11
 151 307 151 307 189 273.5 c 128,-1,12
 227 240 227 240 290 188 c 1,13,14
 310 204 310 204 315.5 216.5 c 128,-1,15
 321 229 321 229 321 249 c 0,0,1
286 591 m 1,16,17
 274 619 274 619 250.5 633.5 c 128,-1,18
 227 648 227 648 204 648 c 0,19,20
 180 648 180 648 162.5 633.5 c 128,-1,21
 145 619 145 619 145 588 c 0,22,23
 145 566 145 566 158 546.5 c 128,-1,24
 171 527 171 527 189.5 509.5 c 128,-1,25
 208 492 208 492 228.5 476.5 c 128,-1,26
 249 461 249 461 265 447 c 0,27,28
 322 396 322 396 349 356.5 c 128,-1,29
 376 317 376 317 376 280 c 0,30,31
 376 251 376 251 359 221.5 c 128,-1,32
 342 192 342 192 310 158 c 1,33,34
 318 141 318 141 319.5 130 c 128,-1,35
 321 119 321 119 321 106 c 0,36,37
 321 69 321 69 309.5 38.5 c 128,-1,38
 298 8 298 8 278.5 -14 c 128,-1,39
 259 -36 259 -36 232.5 -48 c 128,-1,40
 206 -60 206 -60 176 -60 c 0,41,42
 150 -60 150 -60 130 -50.5 c 128,-1,43
 110 -41 110 -41 86 -19 c 1,44,-1
 85 -13 l 1,45,-1
 135 54 l 1,46,-1
 138 53 l 1,47,48
 146 24 146 24 166.5 10.5 c 128,-1,49
 187 -3 187 -3 209 -3 c 0,50,51
 235 -3 235 -3 255 12 c 128,-1,52
 275 27 275 27 275 55 c 0,53,54
 275 73 275 73 264 89 c 128,-1,55
 253 105 253 105 236 121 c 128,-1,56
 219 137 219 137 197.5 152.5 c 128,-1,57
 176 168 176 168 154 184 c 0,58,59
 121 209 121 209 100.5 229.5 c 128,-1,60
 80 250 80 250 68.5 268 c 128,-1,61
 57 286 57 286 53.5 302.5 c 128,-1,62
 50 319 50 319 50 337 c 0,63,64
 50 356 50 356 53 371.5 c 128,-1,65
 56 387 56 387 63.5 402.5 c 128,-1,66
 71 418 71 418 82 434.5 c 128,-1,67
 93 451 93 451 110 471 c 1,68,69
 99 488 99 488 94 507 c 128,-1,70
 89 526 89 526 89 545 c 0,71,72
 89 576 89 576 102 605 c 128,-1,73
 115 634 115 634 137 657 c 128,-1,74
 159 680 159 680 188.5 694 c 128,-1,75
 218 708 218 708 251 708 c 0,76,77
 274 708 274 708 293.5 701.5 c 128,-1,78
 313 695 313 695 332 680 c 1,79,-1
 334 672 l 1,80,-1
 291 591 l 1,81,-1
 286 591 l 1,16,17
EndSplineSet
EndChar
StartChar: dieresis
Encoding: 168 168 102
Width: 220
Flags: W
LayerCount: 2
Back
Fore
SplineSet
0 631 m 0,0,1
 0 649 0 649 12 662.5 c 128,-1,2
 24 676 24 676 41 676 c 256,3,4
 58 676 58 676 70.5 662.5 c 128,-1,5
 83 649 83 649 83 631 c 0,6,7
 83 612 83 612 70.5 599.5 c 128,-1,8
 58 587 58 587 41 587 c 256,9,10
 24 587 24 587 12 599.5 c 128,-1,11
 0 612 0 612 0 631 c 0,0,1
137 631 m 0,12,13
 137 649 137 649 149 662.5 c 128,-1,14
 161 676 161 676 178 676 c 256,15,16
 195 676 195 676 207.5 662.5 c 128,-1,17
 220 649 220 649 220 631 c 0,18,19
 220 612 220 612 207.5 599.5 c 128,-1,20
 195 587 195 587 178 587 c 256,21,22
 161 587 161 587 149 599.5 c 128,-1,23
 137 612 137 612 137 631 c 0,12,13
EndSplineSet
EndChar
StartChar: copyright
Encoding: 169 169 96
Width: 725
Flags: W
LayerCount: 2
Back
Fore
SplineSet
435 455 m 1,0,1
 432 475 432 475 409.5 482.5 c 128,-1,2
 387 490 387 490 364 490 c 0,3,4
 319 490 319 490 292 469 c 0,5,6
 272 451 272 451 261 420.5 c 128,-1,7
 250 390 250 390 250 355 c 0,8,9
 250 289 250 289 285 254.5 c 128,-1,10
 320 220 320 220 372 220 c 0,11,12
 392 220 392 220 419 226.5 c 128,-1,13
 446 233 446 233 473 253 c 1,14,-1
 482 239 l 1,15,-1
 470 211 l 1,16,17
 445 197 445 197 418.5 190.5 c 128,-1,18
 392 184 392 184 365 184 c 0,19,20
 326 184 326 184 294 196.5 c 128,-1,21
 262 209 262 209 239.5 231 c 128,-1,22
 217 253 217 253 204.5 284 c 128,-1,23
 192 315 192 315 192 353 c 0,24,25
 192 389 192 389 203 420.5 c 128,-1,26
 214 452 214 452 236 475.5 c 128,-1,27
 258 499 258 499 291 512.5 c 128,-1,28
 324 526 324 526 367 526 c 0,29,30
 385 526 385 526 416 522 c 128,-1,31
 447 518 447 518 475 507 c 1,32,-1
 476 500 l 1,33,-1
 468 450 l 1,34,-1
 441 450 l 1,35,-1
 435 455 l 1,0,1
362 654 m 256,36,37
 425 654 425 654 480.5 630.5 c 128,-1,38
 536 607 536 607 577 566 c 128,-1,39
 618 525 618 525 642 470.5 c 128,-1,40
 666 416 666 416 666 354 c 0,41,42
 666 291 666 291 642 235.5 c 128,-1,43
 618 180 618 180 576.5 139.5 c 128,-1,44
 535 99 535 99 478.5 75.5 c 128,-1,45
 422 52 422 52 357 52 c 0,46,47
 296 52 296 52 241.5 76 c 128,-1,48
 187 100 187 100 146.5 141 c 128,-1,49
 106 182 106 182 82.5 237 c 128,-1,50
 59 292 59 292 59 354 c 256,51,52
 59 416 59 416 82.5 470.5 c 128,-1,53
 106 525 106 525 147.5 566 c 128,-1,54
 189 607 189 607 244 630.5 c 128,-1,55
 299 654 299 654 362 654 c 256,36,37
362 625 m 0,56,57
 306 625 306 625 257.5 603.5 c 128,-1,58
 209 582 209 582 172.5 545.5 c 128,-1,59
 136 509 136 509 115 459.5 c 128,-1,60
 94 410 94 410 94 354 c 256,61,62
 94 298 94 298 115 248 c 128,-1,63
 136 198 136 198 172 161 c 128,-1,64
 208 124 208 124 256 102.5 c 128,-1,65
 304 81 304 81 358 81 c 0,66,67
 415 81 415 81 465 102 c 128,-1,68
 515 123 515 123 552 160 c 128,-1,69
 589 197 589 197 610 247 c 128,-1,70
 631 297 631 297 631 354 c 0,71,72
 631 410 631 410 610 459.5 c 128,-1,73
 589 509 589 509 552 545.5 c 128,-1,74
 515 582 515 582 466 603.5 c 128,-1,75
 417 625 417 625 362 625 c 0,56,57
EndSplineSet
EndChar
StartChar: ordfeminine
Encoding: 170 170 108
Width: 342
GlyphClass: 2
Flags: W
LayerCount: 2
Back
Fore
SplineSet
204 375 m 1,0,-1
 200 380 l 1,1,2
 203 389 203 389 205 426 c 1,3,4
 166 369 166 369 123 369 c 0,5,6
 87 369 87 369 64.5 392.5 c 128,-1,7
 42 416 42 416 42 451 c 0,8,9
 42 482 42 482 62 502.5 c 128,-1,10
 82 523 82 523 114 531 c 128,-1,11
 146 539 146 539 167.5 541.5 c 128,-1,12
 189 544 189 544 210 544 c 1,13,14
 209 594 209 594 196.5 610 c 128,-1,15
 184 626 184 626 157 626 c 0,16,17
 96 626 96 626 92 585 c 1,18,-1
 90 582 l 1,19,-1
 74 582 l 1,20,-1
 69 628 l 1,21,-1
 71 632 l 2,22,23
 78 640 78 640 108.5 649 c 128,-1,24
 139 658 139 658 169 658 c 0,25,26
 255 658 255 658 255 567 c 0,27,28
 255 530 255 530 254 487 c 128,-1,29
 253 444 253 444 253 423 c 0,30,31
 253 403 253 403 263 397.5 c 128,-1,32
 273 392 273 392 294 392 c 1,33,-1
 296 374 l 1,34,35
 268 376 268 376 248 376 c 0,36,37
 241 376 241 376 225.5 375.5 c 128,-1,38
 210 375 210 375 204 375 c 1,0,-1
200 445 m 0,39,40
 207 454 207 454 207 462 c 2,41,-1
 210 516 l 1,42,43
 181 516 181 516 162.5 514 c 128,-1,44
 144 512 144 512 125.5 506 c 128,-1,45
 107 500 107 500 98 487.5 c 128,-1,46
 89 475 89 475 89 455 c 0,47,48
 89 408 89 408 134 408 c 0,49,50
 175 408 175 408 200 445 c 0,39,40
EndSplineSet
EndChar
StartChar: guillemotleft
Encoding: 171 171 109
Width: 466
GlyphClass: 2
Flags: W
LayerCount: 2
Back
Fore
SplineSet
238 421 m 1,0,-1
 243 411 l 1,1,2
 174 341 174 341 103 240 c 1,3,4
 176 138 176 138 243 70 c 1,5,-1
 238 60 l 1,6,-1
 180 60 l 1,7,-1
 173 64 l 1,8,9
 134 124 134 124 41 240 c 1,10,11
 136 359 136 359 173 417 c 1,12,-1
 180 421 l 1,13,-1
 238 421 l 1,0,-1
400 421 m 1,14,-1
 405 411 l 1,15,16
 336 341 336 341 265 240 c 1,17,18
 338 138 338 138 405 70 c 1,19,-1
 400 60 l 1,20,-1
 342 60 l 1,21,-1
 334 64 l 1,22,23
 296 125 296 125 202 240 c 1,24,25
 297 357 297 357 334 417 c 1,26,-1
 342 421 l 1,27,-1
 400 421 l 1,14,-1
EndSplineSet
EndChar
StartChar: logicalnot
Encoding: 172 172 145
Width: 632
Flags: W
LayerCount: 2
Back
Fore
SplineSet
557 341 m 1,0,-1
 557 117 l 1,1,-1
 504 117 l 1,2,-1
 504 289 l 1,3,-1
 77 289 l 1,4,-1
 77 341 l 1,5,-1
 557 341 l 1,0,-1
EndSplineSet
EndChar
StartChar: uni00AD
Encoding: 173 173 111
Width: 471
GlyphClass: 2
Flags: W
LayerCount: 2
Back
Fore
SplineSet
76 265 m 1,0,-1
 405 265 l 1,1,-1
 395 213 l 1,2,-1
 67 213 l 1,3,-1
 76 265 l 1,0,-1
EndSplineSet
EndChar
StartChar: registered
Encoding: 174 174 189
Width: 725
Flags: W
LayerCount: 2
Back
Fore
SplineSet
225 201 m 1,0,-1
 226 217 l 1,1,2
 242 218 242 218 250.5 223.5 c 128,-1,3
 259 229 259 229 263 240.5 c 128,-1,4
 267 252 267 252 267.5 269.5 c 128,-1,5
 268 287 268 287 268 311 c 2,6,-1
 268 444 l 2,7,8
 268 471 268 471 261 490.5 c 128,-1,9
 254 510 254 510 226 512 c 1,10,-1
 226 532 l 1,11,-1
 346 532 l 2,12,13
 415 532 415 532 441.5 507.5 c 128,-1,14
 468 483 468 483 468 446 c 0,15,16
 468 426 468 426 461 410.5 c 128,-1,17
 454 395 454 395 442.5 383.5 c 128,-1,18
 431 372 431 372 416.5 364.5 c 128,-1,19
 402 357 402 357 387 353 c 1,20,21
 403 331 403 331 421 307 c 128,-1,22
 439 283 439 283 457 263 c 128,-1,23
 475 243 475 243 493 230 c 128,-1,24
 511 217 511 217 526 217 c 1,25,-1
 526 201 l 1,26,27
 510 201 510 201 505.5 200 c 128,-1,28
 501 199 501 199 493 199 c 0,29,30
 472 199 472 199 457.5 205 c 128,-1,31
 443 211 443 211 427.5 227.5 c 128,-1,32
 412 244 412 244 392 273 c 128,-1,33
 372 302 372 302 341 347 c 1,34,-1
 310 347 l 1,35,36
 310 308 310 308 311.5 282.5 c 128,-1,37
 313 257 313 257 317.5 242.5 c 128,-1,38
 322 228 322 228 330.5 222 c 128,-1,39
 339 216 339 216 352 216 c 1,40,-1
 354 201 l 1,41,-1
 225 201 l 1,0,-1
355 377 m 2,42,43
 390 377 390 377 407 394.5 c 128,-1,44
 424 412 424 412 424 443 c 0,45,46
 424 470 424 470 406 486 c 128,-1,47
 388 502 388 502 356 502 c 2,48,-1
 310 502 l 1,49,-1
 310 391 l 2,50,51
 310 380 310 380 315.5 378.5 c 128,-1,52
 321 377 321 377 328 377 c 2,53,-1
 355 377 l 2,42,43
362 654 m 256,54,55
 425 654 425 654 480.5 630.5 c 128,-1,56
 536 607 536 607 577 566 c 128,-1,57
 618 525 618 525 642 470.5 c 128,-1,58
 666 416 666 416 666 354 c 0,59,60
 666 291 666 291 642 235.5 c 128,-1,61
 618 180 618 180 576.5 139.5 c 128,-1,62
 535 99 535 99 478.5 75.5 c 128,-1,63
 422 52 422 52 357 52 c 0,64,65
 296 52 296 52 241.5 76 c 128,-1,66
 187 100 187 100 146.5 141 c 128,-1,67
 106 182 106 182 82.5 237 c 128,-1,68
 59 292 59 292 59 354 c 256,69,70
 59 416 59 416 82.5 470.5 c 128,-1,71
 106 525 106 525 147.5 566 c 128,-1,72
 189 607 189 607 244 630.5 c 128,-1,73
 299 654 299 654 362 654 c 256,54,55
362 625 m 0,74,75
 306 625 306 625 257.5 603.5 c 128,-1,76
 209 582 209 582 172.5 545.5 c 128,-1,77
 136 509 136 509 115 459.5 c 128,-1,78
 94 410 94 410 94 354 c 256,79,80
 94 298 94 298 115 248 c 128,-1,81
 136 198 136 198 172 161 c 128,-1,82
 208 124 208 124 256 102.5 c 128,-1,83
 304 81 304 81 358 81 c 0,84,85
 415 81 415 81 465 102 c 128,-1,86
 515 123 515 123 552 160 c 128,-1,87
 589 197 589 197 610 247 c 128,-1,88
 631 297 631 297 631 354 c 0,89,90
 631 410 631 410 610 459.5 c 128,-1,91
 589 509 589 509 552 545.5 c 128,-1,92
 515 582 515 582 466 603.5 c 128,-1,93
 417 625 417 625 362 625 c 0,74,75
EndSplineSet
EndChar
StartChar: degree
Encoding: 176 176 113
Width: 326
GlyphClass: 2
Flags: W
LayerCount: 2
Back
Fore
SplineSet
162 658 m 0,0,1
 220 658 220 658 252.5 624.5 c 128,-1,2
 285 591 285 591 285 540 c 0,3,4
 285 493 285 493 253.5 461 c 128,-1,5
 222 429 222 429 162 429 c 128,-1,6
 102 429 102 429 71.5 462 c 128,-1,7
 41 495 41 495 41 543 c 0,8,9
 41 592 41 592 73.5 625 c 128,-1,10
 106 658 106 658 162 658 c 0,0,1
162 459 m 0,11,12
 200 459 200 459 220.5 481.5 c 128,-1,13
 241 504 241 504 241 540 c 128,-1,14
 241 576 241 576 220.5 600.5 c 128,-1,15
 200 625 200 625 161 625 c 128,-1,16
 122 625 122 625 102.5 602 c 128,-1,17
 83 579 83 579 83 544 c 0,18,19
 83 508 83 508 104 483.5 c 128,-1,20
 125 459 125 459 162 459 c 0,11,12
EndSplineSet
EndChar
StartChar: plusminus
Encoding: 177 177 176
Width: 480
Flags: W
LayerCount: 2
Back
Fore
SplineSet
266 351 m 1,0,-1
 400 351 l 1,1,-1
 390 298 l 1,2,-1
 266 298 l 1,3,-1
 266 183 l 1,4,-1
 214 183 l 1,5,-1
 214 298 l 1,6,-1
 81 298 l 1,7,-1
 90 351 l 1,8,-1
 214 351 l 1,9,-1
 214 455 l 1,10,-1
 266 455 l 1,11,-1
 266 351 l 1,0,-1
400 123 m 1,12,-1
 390 70 l 1,13,-1
 81 70 l 1,14,-1
 90 123 l 1,15,-1
 400 123 l 1,12,-1
EndSplineSet
EndChar
StartChar: twosuperior
Encoding: 178 178 208
Width: 355
Flags: W
LayerCount: 2
Back
Fore
SplineSet
68 606 m 1,0,1
 81 629 81 629 107.5 647 c 128,-1,2
 134 665 134 665 179 665 c 0,3,4
 236 665 236 665 261 640 c 128,-1,5
 286 615 286 615 286 572 c 0,6,7
 286 537 286 537 262.5 501 c 128,-1,8
 239 465 239 465 211 433.5 c 128,-1,9
 183 402 183 402 159.5 377.5 c 128,-1,10
 136 353 136 353 136 341 c 1,11,-1
 169 341 l 2,12,13
 202 341 202 341 221 342 c 128,-1,14
 240 343 240 343 251.5 347.5 c 128,-1,15
 263 352 263 352 268.5 361.5 c 128,-1,16
 274 371 274 371 279 388 c 1,17,-1
 293 388 l 1,18,-1
 284 308 l 1,19,-1
 279 303 l 2,20,21
 276 303 276 303 261.5 303.5 c 128,-1,22
 247 304 247 304 230 304.5 c 128,-1,23
 213 305 213 305 197 305.5 c 128,-1,24
 181 306 181 306 174 306 c 2,25,-1
 120 306 l 2,26,27
 108 306 108 306 93 305 c 128,-1,28
 78 304 78 304 64 303 c 1,29,-1
 59 309 l 1,30,-1
 59 321 l 1,31,32
 78 345 78 345 108.5 378 c 128,-1,33
 139 411 139 411 168 445.5 c 128,-1,34
 197 480 197 480 218 513 c 128,-1,35
 239 546 239 546 239 571 c 0,36,37
 239 593 239 593 226.5 610 c 128,-1,38
 214 627 214 627 176 627 c 0,39,40
 103 627 103 627 97 552 c 1,41,-1
 74 552 l 1,42,-1
 68 606 l 1,0,1
EndSplineSet
EndChar
StartChar: uni00B2
Encoding: 178 178 115
Width: 342
GlyphClass: 2
Flags: W
LayerCount: 2
Back
Fore
SplineSet
69 552 m 1,0,-1
 63 606 l 1,1,2
 96 665 96 665 174 665 c 0,3,4
 281 665 281 665 281 572 c 0,5,6
 281 531 281 531 243.5 480.5 c 128,-1,7
 206 430 206 430 168.5 391.5 c 128,-1,8
 131 353 131 353 131 341 c 1,9,-1
 164 341 l 2,10,11
 231 341 231 341 247.5 348 c 128,-1,12
 264 355 264 355 274 388 c 1,13,-1
 288 388 l 1,14,-1
 279 308 l 1,15,-1
 274 303 l 2,16,17
 271 303 271 303 225.5 304.5 c 128,-1,18
 180 306 180 306 169 306 c 2,19,-1
 115 306 l 2,20,21
 108 306 108 306 98.5 305.5 c 128,-1,22
 89 305 89 305 77 304 c 128,-1,23
 65 303 65 303 59 303 c 1,24,-1
 54 309 l 1,25,-1
 54 321 l 1,26,27
 65 335 65 335 118.5 393.5 c 128,-1,28
 172 452 172 452 203 496.5 c 128,-1,29
 234 541 234 541 234 571 c 0,30,31
 234 627 234 627 171 627 c 0,32,33
 98 627 98 627 92 552 c 1,34,-1
 69 552 l 1,0,-1
EndSplineSet
EndChar
StartChar: threesuperior
Encoding: 179 179 204
Width: 338
Flags: W
LayerCount: 2
Back
Fore
SplineSet
80 403 m 1,0,1
 85 361 85 361 108 345.5 c 128,-1,2
 131 330 131 330 160 330 c 0,3,4
 193 330 193 330 219 349.5 c 128,-1,5
 245 369 245 369 245 409 c 0,6,7
 245 438 245 438 227 461.5 c 128,-1,8
 209 485 209 485 172 485 c 2,9,-1
 157 485 l 1,10,-1
 163 506 l 1,11,12
 194 507 194 507 210.5 528.5 c 128,-1,13
 227 550 227 550 227 575 c 0,14,15
 227 605 227 605 206 619.5 c 128,-1,16
 185 634 185 634 159 634 c 256,17,18
 133 634 133 634 111.5 619 c 128,-1,19
 90 604 90 604 90 572 c 0,20,21
 90 565 90 565 91 562 c 2,22,-1
 69 562 l 1,23,-1
 64 606 l 1,24,25
 69 616 69 616 76.5 627 c 128,-1,26
 84 638 84 638 95.5 646 c 128,-1,27
 107 654 107 654 123.5 659.5 c 128,-1,28
 140 665 140 665 163 665 c 0,29,30
 214 665 214 665 242 638.5 c 128,-1,31
 270 612 270 612 270 577 c 0,32,33
 270 555 270 555 257.5 534.5 c 128,-1,34
 245 514 245 514 217 500 c 1,35,36
 254 492 254 492 271 468 c 128,-1,37
 288 444 288 444 288 415 c 0,38,39
 288 394 288 394 279 373 c 128,-1,40
 270 352 270 352 253.5 335 c 128,-1,41
 237 318 237 318 213.5 307.5 c 128,-1,42
 190 297 190 297 160 297 c 0,43,44
 122 297 122 297 96.5 313.5 c 128,-1,45
 71 330 71 330 53 359 c 1,46,-1
 59 403 l 1,47,-1
 80 403 l 1,0,1
EndSplineSet
EndChar
StartChar: uni00B3
Encoding: 179 179 116
Width: 326
GlyphClass: 2
Flags: W
LayerCount: 2
Back
Fore
SplineSet
75 403 m 1,0,1
 79 365 79 365 101 347.5 c 128,-1,2
 123 330 123 330 155 330 c 0,3,4
 190 330 190 330 215 350.5 c 128,-1,5
 240 371 240 371 240 409 c 0,6,7
 240 440 240 440 221 462.5 c 128,-1,8
 202 485 202 485 167 485 c 2,9,-1
 152 485 l 1,10,-1
 158 506 l 1,11,12
 187 507 187 507 204.5 527.5 c 128,-1,13
 222 548 222 548 222 575 c 0,14,15
 222 603 222 603 202 618.5 c 128,-1,16
 182 634 182 634 154 634 c 128,-1,17
 126 634 126 634 105.5 618 c 128,-1,18
 85 602 85 602 85 572 c 0,19,20
 85 566 85 566 86 562 c 1,21,-1
 64 562 l 1,22,-1
 59 606 l 1,23,24
 88 665 88 665 158 665 c 0,25,26
 206 665 206 665 235.5 639 c 128,-1,27
 265 613 265 613 265 577 c 0,28,29
 265 527 265 527 212 500 c 1,30,31
 247 492 247 492 265 468.5 c 128,-1,32
 283 445 283 445 283 415 c 0,33,34
 283 370 283 370 247 333.5 c 128,-1,35
 211 297 211 297 155 297 c 0,36,37
 87 297 87 297 48 359 c 1,38,-1
 54 403 l 1,39,-1
 75 403 l 1,0,1
EndSplineSet
EndChar
StartChar: acute
Encoding: 180 180 68
Width: 219
Flags: W
LayerCount: 2
Back
Fore
SplineSet
6 552 m 1,0,-1
 0 572 l 1,1,-1
 3 579 l 1,2,-1
 183 680 l 1,3,4
 200 679 200 679 209.5 669 c 128,-1,5
 219 659 219 659 219 645 c 0,6,7
 219 635 219 635 215 626 c 1,8,-1
 13 549 l 1,9,-1
 6 552 l 1,0,-1
EndSplineSet
EndChar
StartChar: mu
Encoding: 181 181 147
Width: 642
Flags: W
LayerCount: 2
Back
Fore
SplineSet
139 -131 m 1,0,-1
 130 -131 l 2,1,2
 83 -131 83 -131 66 -106 c 1,3,-1
 66 -100 l 1,4,5
 79 -74 79 -74 89.5 -41 c 128,-1,6
 100 -8 100 -8 107 25.5 c 128,-1,7
 114 59 114 59 117.5 89 c 128,-1,8
 121 119 121 119 121 139 c 2,9,-1
 121 237 l 2,10,11
 121 256 121 256 120.5 279.5 c 128,-1,12
 120 303 120 303 119.5 324.5 c 128,-1,13
 119 346 119 346 118.5 362.5 c 128,-1,14
 118 379 118 379 118 386 c 0,15,16
 117 397 117 397 113.5 405.5 c 128,-1,17
 110 414 110 414 107 418 c 0,18,19
 97 429 97 429 82 431.5 c 128,-1,20
 67 434 67 434 51 434 c 1,21,-1
 48 438 l 1,22,-1
 48 452 l 1,23,-1
 51 455 l 1,24,-1
 69 455 l 2,25,26
 86 455 86 455 112 455.5 c 128,-1,27
 138 456 138 456 157 459 c 2,28,-1
 192 464 l 1,29,-1
 198 455 l 2,30,31
 196 451 196 451 195 440.5 c 128,-1,32
 194 430 194 430 193 418 c 128,-1,33
 192 406 192 406 192 395 c 128,-1,34
 192 384 192 384 192 378 c 0,35,36
 192 361 192 361 191.5 340.5 c 128,-1,37
 191 320 191 320 190.5 299 c 128,-1,38
 190 278 190 278 189.5 259 c 128,-1,39
 189 240 189 240 189 227 c 0,40,41
 189 205 189 205 190.5 177.5 c 128,-1,42
 192 150 192 150 197 130 c 0,43,44
 207 83 207 83 238 60 c 128,-1,45
 269 37 269 37 310 37 c 0,46,47
 341 37 341 37 367 49.5 c 128,-1,48
 393 62 393 62 412.5 80 c 128,-1,49
 432 98 432 98 444.5 118.5 c 128,-1,50
 457 139 457 139 461 156 c 1,51,-1
 461 286 l 2,52,53
 461 307 461 307 461 321.5 c 128,-1,54
 461 336 461 336 460.5 347 c 128,-1,55
 460 358 460 358 459 367 c 128,-1,56
 458 376 458 376 457 386 c 0,57,58
 455 397 455 397 451.5 405.5 c 128,-1,59
 448 414 448 414 445 417 c 0,60,61
 435 429 435 429 420 431.5 c 128,-1,62
 405 434 405 434 389 434 c 1,63,-1
 385 438 l 1,64,-1
 385 452 l 1,65,-1
 389 455 l 1,66,-1
 407 455 l 2,67,68
 424 455 424 455 450 455.5 c 128,-1,69
 476 456 476 456 494 459 c 2,70,-1
 529 464 l 1,71,-1
 535 455 l 2,72,73
 533 451 533 451 532 440.5 c 128,-1,74
 531 430 531 430 530 418 c 128,-1,75
 529 406 529 406 529 395 c 128,-1,76
 529 384 529 384 529 378 c 0,77,78
 529 370 529 370 528.5 363 c 128,-1,79
 528 356 528 356 528 346 c 128,-1,80
 528 336 528 336 527.5 322.5 c 128,-1,81
 527 309 527 309 527 287 c 2,82,-1
 527 175 l 2,83,84
 527 153 527 153 527.5 139 c 128,-1,85
 528 125 528 125 528.5 115 c 128,-1,86
 529 105 529 105 529.5 96.5 c 128,-1,87
 530 88 530 88 530 78 c 0,88,89
 532 55 532 55 535 44.5 c 128,-1,90
 538 34 538 34 545 29 c 0,91,92
 553 21 553 21 568.5 19.5 c 128,-1,93
 584 18 584 18 600 18 c 1,94,-1
 604 14 l 1,95,-1
 606 0 l 1,96,-1
 604 -4 l 1,97,98
 586 -2 586 -2 565 -1 c 128,-1,99
 544 0 544 0 524 0 c 0,100,101
 486 0 486 0 455 -3 c 1,102,-1
 449 7 l 1,103,104
 452 20 452 20 454 42 c 128,-1,105
 456 64 456 64 458 86 c 1,106,107
 432 44 432 44 391.5 16.5 c 128,-1,108
 351 -11 351 -11 292 -11 c 0,109,110
 278 -11 278 -11 259.5 -8.5 c 128,-1,111
 241 -6 241 -6 223 0.5 c 128,-1,112
 205 7 205 7 190.5 17.5 c 128,-1,113
 176 28 176 28 170 43 c 1,114,-1
 167 41 l 1,115,116
 161 -22 161 -22 156.5 -58.5 c 128,-1,117
 152 -95 152 -95 144 -125 c 1,118,-1
 139 -131 l 1,0,-1
EndSplineSet
EndChar
StartChar: uni00B5
Encoding: 181 181 118
Width: 638
GlyphClass: 2
Flags: W
LayerCount: 2
Back
Fore
SplineSet
141 -125 m 1,0,-1
 136 -131 l 1,1,-1
 127 -131 l 2,2,3
 80 -131 80 -131 63 -106 c 1,4,-1
 63 -100 l 1,5,6
 87 -52 87 -52 102.5 21 c 128,-1,7
 118 94 118 94 118 139 c 2,8,-1
 118 237 l 2,9,10
 118 332 118 332 115 386 c 0,11,12
 114 406 114 406 104 418 c 0,13,14
 90 434 90 434 48 434 c 1,15,-1
 45 438 l 1,16,-1
 45 452 l 1,17,-1
 48 455 l 1,18,-1
 66 455 l 2,19,20
 129 455 129 455 154 459 c 2,21,-1
 189 464 l 1,22,-1
 195 455 l 1,23,24
 189 442 189 442 189 378 c 0,25,26
 189 354 189 354 187.5 299 c 128,-1,27
 186 244 186 244 186 227 c 0,28,29
 186 166 186 166 194 130 c 0,30,31
 203 85 203 85 234 61 c 128,-1,32
 265 37 265 37 307 37 c 0,33,34
 363 37 363 37 405.5 76.5 c 128,-1,35
 448 116 448 116 458 156 c 1,36,-1
 458 286 l 2,37,38
 458 350 458 350 454 386 c 0,39,40
 451 408 451 408 442 417 c 0,41,42
 428 434 428 434 386 434 c 1,43,-1
 382 438 l 1,44,-1
 382 452 l 1,45,-1
 386 455 l 1,46,-1
 404 455 l 2,47,48
 467 455 467 455 491 459 c 2,49,-1
 526 464 l 1,50,-1
 532 455 l 1,51,52
 526 442 526 442 526 378 c 0,53,54
 526 372 526 372 525 346 c 128,-1,55
 524 320 524 320 524 287 c 2,56,-1
 524 175 l 2,57,58
 524 162 524 162 527 78 c 0,59,60
 531 38 531 38 542 29 c 0,61,62
 554 18 554 18 597 18 c 1,63,-1
 601 14 l 1,64,-1
 603 0 l 1,65,-1
 601 -4 l 1,66,67
 553 0 553 0 521 0 c 0,68,69
 484 0 484 0 452 -3 c 1,70,-1
 446 7 l 2,71,72
 447 13 447 13 455 86 c 1,73,74
 394 -11 394 -11 289 -11 c 0,75,76
 253 -11 253 -11 215.5 2 c 128,-1,77
 178 15 178 15 167 43 c 1,78,-1
 164 41 l 1,79,80
 153 -79 153 -79 141 -125 c 1,0,-1
EndSplineSet
EndChar
StartChar: paragraph
Encoding: 182 182 168
Width: 530
Flags: W
LayerCount: 2
Back
Fore
SplineSet
171 -125 m 1,0,-1
 174 -107 l 1,1,-1
 179 -104 l 1,2,3
 204 -104 204 -104 213.5 -101.5 c 128,-1,4
 223 -99 223 -99 232 -93 c 0,5,6
 238 -88 238 -88 246.5 -76.5 c 128,-1,7
 255 -65 255 -65 257 -36 c 0,8,9
 257 -29 257 -29 257.5 -2.5 c 128,-1,10
 258 24 258 24 258.5 57 c 128,-1,11
 259 90 259 90 259 123 c 128,-1,12
 259 156 259 156 259 177 c 2,13,-1
 259 282 l 1,14,15
 224 282 224 282 185 290.5 c 128,-1,16
 146 299 146 299 113 322 c 128,-1,17
 80 345 80 345 58.5 386.5 c 128,-1,18
 37 428 37 428 37 493 c 0,19,20
 37 526 37 526 49 555.5 c 128,-1,21
 61 585 61 585 81 607 c 128,-1,22
 101 629 101 629 128.5 642 c 128,-1,23
 156 655 156 655 188 655 c 0,24,25
 195 655 195 655 207.5 655 c 128,-1,26
 220 655 220 655 234.5 654.5 c 128,-1,27
 249 654 249 654 263 654 c 128,-1,28
 277 654 277 654 288 654 c 2,29,-1
 391 654 l 2,30,31
 401 654 401 654 414.5 655 c 128,-1,32
 428 656 428 656 440.5 657 c 128,-1,33
 453 658 453 658 464.5 659 c 128,-1,34
 476 660 476 660 483 660 c 1,35,-1
 485 656 l 1,36,-1
 482 638 l 1,37,-1
 477 634 l 1,38,39
 452 634 452 634 442 631.5 c 128,-1,40
 432 629 432 629 424 624 c 0,41,42
 416 617 416 617 409 606.5 c 128,-1,43
 402 596 402 596 399 567 c 0,44,45
 397 542 397 542 396.5 516.5 c 128,-1,46
 396 491 396 491 396 471 c 2,47,-1
 396 211 l 2,48,49
 396 181 396 181 396 141.5 c 128,-1,50
 396 102 396 102 396.5 65 c 128,-1,51
 397 28 397 28 397.5 -0.5 c 128,-1,52
 398 -29 398 -29 399 -36 c 0,53,54
 402 -62 402 -62 409 -75.5 c 128,-1,55
 416 -89 416 -89 424 -94 c 0,56,57
 433 -101 433 -101 449 -102.5 c 128,-1,58
 465 -104 465 -104 477 -104 c 1,59,-1
 482 -107 l 1,60,-1
 485 -125 l 1,61,-1
 483 -129 l 1,62,63
 476 -128 476 -128 460 -127.5 c 128,-1,64
 444 -127 444 -127 427 -126 c 128,-1,65
 410 -125 410 -125 394 -124.5 c 128,-1,66
 378 -124 378 -124 371 -124 c 2,67,-1
 285 -124 l 2,68,69
 278 -124 278 -124 262 -124.5 c 128,-1,70
 246 -125 246 -125 229 -126 c 128,-1,71
 212 -127 212 -127 196 -127.5 c 128,-1,72
 180 -128 180 -128 173 -129 c 1,73,-1
 171 -125 l 1,0,-1
291 -86 m 1,74,-1
 370 -86 l 1,75,-1
 372 -82 l 1,76,77
 367 -48 367 -48 364.5 -22 c 128,-1,78
 362 4 362 4 361 28.5 c 128,-1,79
 360 53 360 53 359.5 80.5 c 128,-1,80
 359 108 359 108 359 144 c 2,81,-1
 359 367 l 2,82,83
 359 417 359 417 360.5 483 c 128,-1,84
 362 549 362 549 372 612 c 1,85,-1
 370 616 l 1,86,-1
 291 616 l 1,87,-1
 289 612 l 1,88,89
 298 549 298 549 299.5 483 c 128,-1,90
 301 417 301 417 301 367 c 2,91,-1
 301 144 l 2,92,93
 301 108 301 108 300.5 80.5 c 128,-1,94
 300 53 300 53 299 28.5 c 128,-1,95
 298 4 298 4 295.5 -22 c 128,-1,96
 293 -48 293 -48 289 -82 c 1,97,-1
 291 -86 l 1,74,-1
EndSplineSet
EndChar
StartChar: periodcentered
Encoding: 183 183 173
Width: 227
Flags: W
LayerCount: 2
Back
Fore
SplineSet
67 243 m 256,0,1
 67 262 67 262 80.5 276.5 c 128,-1,2
 94 291 94 291 114 291 c 0,3,4
 132 291 132 291 146.5 276.5 c 128,-1,5
 161 262 161 262 161 243 c 256,6,7
 161 224 161 224 146.5 210.5 c 128,-1,8
 132 197 132 197 114 197 c 0,9,10
 94 197 94 197 80.5 210.5 c 128,-1,11
 67 224 67 224 67 243 c 256,0,1
EndSplineSet
EndChar
StartChar: cedilla
Encoding: 184 184 91
Width: 202
Flags: W
LayerCount: 2
Back
Fore
SplineSet
0 -178 m 1,0,-1
 13 -155 l 1,1,-1
 20 -155 l 1,2,3
 32 -160 32 -160 51 -163.5 c 128,-1,4
 70 -167 70 -167 89 -167 c 0,5,6
 111 -167 111 -167 127 -158.5 c 128,-1,7
 143 -150 143 -150 143 -127 c 0,8,9
 143 -100 143 -100 127.5 -90.5 c 128,-1,10
 112 -81 112 -81 91 -81 c 0,11,12
 79 -81 79 -81 66.5 -83 c 128,-1,13
 54 -85 54 -85 43 -88 c 1,14,-1
 34 -77 l 1,15,-1
 85 0 l 1,16,-1
 119 0 l 1,17,-1
 89 -51 l 1,18,19
 106 -47 106 -47 123 -47 c 0,20,21
 158 -47 158 -47 180 -67.5 c 128,-1,22
 202 -88 202 -88 202 -119 c 0,23,24
 202 -136 202 -136 193.5 -151 c 128,-1,25
 185 -166 185 -166 170.5 -177.5 c 128,-1,26
 156 -189 156 -189 136 -196 c 128,-1,27
 116 -203 116 -203 92 -203 c 256,28,29
 68 -203 68 -203 44.5 -197.5 c 128,-1,30
 21 -192 21 -192 1 -184 c 1,31,-1
 0 -178 l 1,0,-1
EndSplineSet
EndChar
StartChar: onesuperior
Encoding: 185 185 162
Width: 269
Flags: W
LayerCount: 2
Back
Fore
SplineSet
55 600 m 1,0,-1
 56 604 l 1,1,2
 82 617 82 617 105 630.5 c 128,-1,3
 128 644 128 644 151 665 c 1,4,-1
 155 665 l 1,5,-1
 169 660 l 1,6,7
 166 628 166 628 165.5 592.5 c 128,-1,8
 165 557 165 557 165 508 c 2,9,-1
 165 453 l 2,10,11
 165 428 165 428 165 412.5 c 128,-1,12
 165 397 165 397 165 386 c 128,-1,13
 165 375 165 375 165.5 366.5 c 128,-1,14
 166 358 166 358 167 348 c 0,15,16
 168 336 168 336 172.5 329.5 c 128,-1,17
 177 323 177 323 182 319 c 256,18,19
 187 315 187 315 198.5 312.5 c 128,-1,20
 210 310 210 310 219 310 c 1,21,-1
 222 297 l 1,22,23
 217 297 217 297 208.5 297.5 c 128,-1,24
 200 298 200 298 191 298.5 c 128,-1,25
 182 299 182 299 173.5 299 c 128,-1,26
 165 299 165 299 161 299 c 2,27,-1
 127 299 l 2,28,29
 122 299 122 299 113.5 299 c 128,-1,30
 105 299 105 299 95.5 298.5 c 128,-1,31
 86 298 86 298 77.5 297.5 c 128,-1,32
 69 297 69 297 65 297 c 2,33,-1
 68 310 l 1,34,35
 77 310 77 310 89 312 c 128,-1,36
 101 314 101 314 107 319 c 0,37,38
 112 323 112 323 115.5 329.5 c 128,-1,39
 119 336 119 336 121 348 c 0,40,41
 122 356 122 356 122.5 363.5 c 128,-1,42
 123 371 123 371 123 381 c 128,-1,43
 123 391 123 391 123 404.5 c 128,-1,44
 123 418 123 418 123 439 c 2,45,-1
 123 506 l 2,46,47
 123 530 123 530 123 545 c 128,-1,48
 123 560 123 560 123 570.5 c 128,-1,49
 123 581 123 581 122.5 588.5 c 128,-1,50
 122 596 122 596 121 606 c 1,51,-1
 55 589 l 1,52,-1
 55 600 l 1,0,-1
EndSplineSet
EndChar
StartChar: uni00B9
Encoding: 185 185 122
Width: 263
GlyphClass: 2
Flags: W
LayerCount: 2
Back
Fore
SplineSet
49 589 m 1,0,-1
 49 600 l 1,1,-1
 50 604 l 1,2,3
 112 634 112 634 145 665 c 1,4,-1
 149 665 l 1,5,-1
 163 660 l 1,6,7
 159 618 159 618 159 508 c 2,8,-1
 159 453 l 2,9,10
 159 376 159 376 161 348 c 0,11,12
 162 329 162 329 176 319 c 0,13,14
 189 310 189 310 213 310 c 1,15,-1
 216 297 l 1,16,17
 192 299 192 299 155 299 c 2,18,-1
 121 299 l 2,19,20
 81 299 81 299 59 297 c 1,21,-1
 62 310 l 1,22,23
 89 310 89 310 101 319 c 0,24,25
 113 329 113 329 115 348 c 0,26,27
 117 369 117 369 117 439 c 2,28,-1
 117 506 l 2,29,30
 117 580 117 580 115 606 c 1,31,-1
 49 589 l 1,0,-1
EndSplineSet
EndChar
StartChar: ordmasculine
Encoding: 186 186 123
Width: 360
GlyphClass: 2
Flags: W
LayerCount: 2
Back
Fore
SplineSet
179 658 m 0,0,1
 244 658 244 658 281.5 615 c 128,-1,2
 319 572 319 572 319 510 c 0,3,4
 319 451 319 451 282.5 410 c 128,-1,5
 246 369 246 369 180 369 c 0,6,7
 113 369 113 369 77 411 c 128,-1,8
 41 453 41 453 41 513 c 0,9,10
 41 574 41 574 78.5 616 c 128,-1,11
 116 658 116 658 179 658 c 0,0,1
180 399 m 0,12,13
 224 399 224 399 249 431.5 c 128,-1,14
 274 464 274 464 274 510 c 128,-1,15
 274 556 274 556 247.5 590.5 c 128,-1,16
 221 625 221 625 177 625 c 0,17,18
 132 625 132 625 108 592.5 c 128,-1,19
 84 560 84 560 84 514 c 128,-1,20
 84 468 84 468 110.5 433.5 c 128,-1,21
 137 399 137 399 180 399 c 0,12,13
EndSplineSet
EndChar
StartChar: guillemotright
Encoding: 187 187 124
Width: 466
GlyphClass: 2
Flags: W
LayerCount: 2
Back
Fore
SplineSet
61 411 m 1,0,-1
 65 421 l 1,1,-1
 123 421 l 1,2,-1
 131 417 l 1,3,4
 163 365 163 365 263 240 c 1,5,6
 164 118 164 118 131 64 c 1,7,-1
 123 60 l 1,8,-1
 65 60 l 1,9,-1
 61 70 l 1,10,11
 124 134 124 134 200 240 c 1,12,13
 126 345 126 345 61 411 c 1,0,-1
222 411 m 1,14,-1
 227 421 l 1,15,-1
 285 421 l 1,16,-1
 292 417 l 1,17,18
 331 356 331 356 425 240 c 1,19,20
 332 126 332 126 292 64 c 1,21,-1
 285 60 l 1,22,-1
 227 60 l 1,23,-1
 222 70 l 1,24,25
 289 138 289 138 362 240 c 1,26,27
 291 341 291 341 222 411 c 1,14,-1
EndSplineSet
EndChar
StartChar: onequarter
Encoding: 188 188 125
Width: 669
GlyphClass: 2
Flags: W
LayerCount: 2
Back
Fore
SplineSet
56 19 m 1,0,-1
 56 23 l 1,1,2
 117 93 117 93 253 278 c 2,3,-1
 374 443 l 2,4,5
 478 585 478 585 526 669 c 1,6,-1
 531 673 l 1,7,-1
 607 673 l 1,8,-1
 606 669 l 1,9,10
 533 588 533 588 429 443 c 2,11,-1
 309 278 l 2,12,13
 203 131 203 131 136 23 c 1,14,-1
 132 19 l 1,15,-1
 56 19 l 1,0,-1
60 589 m 1,16,-1
 60 600 l 1,17,-1
 62 604 l 1,18,19
 126 636 126 636 157 665 c 1,20,-1
 161 665 l 1,21,-1
 174 660 l 1,22,23
 171 618 171 618 171 508 c 2,24,-1
 171 453 l 2,25,26
 171 359 171 359 177.5 334.5 c 128,-1,27
 184 310 184 310 215 310 c 1,28,-1
 218 297 l 1,29,30
 196 299 196 299 167 299 c 2,31,-1
 133 299 l 2,32,33
 93 299 93 299 71 297 c 1,34,-1
 74 310 l 1,35,36
 101 310 101 310 113 319 c 0,37,38
 124 330 124 330 126.5 348.5 c 128,-1,39
 129 367 129 367 129 439 c 2,40,-1
 129 506 l 2,41,42
 129 580 129 580 127 606 c 1,43,-1
 60 589 l 1,16,-1
392 113 m 1,44,-1
 387 116 l 1,45,-1
 381 131 l 1,46,-1
 515 350 l 1,47,-1
 574 358 l 1,48,-1
 580 353 l 1,49,50
 576 311 576 311 576 144 c 1,51,-1
 612 144 l 1,52,-1
 604 113 l 1,53,-1
 576 113 l 1,54,55
 576 44 576 44 583.5 24 c 128,-1,56
 591 4 591 4 626 4 c 1,57,-1
 628 -8 l 1,58,59
 623 -8 623 -8 600.5 -7 c 128,-1,60
 578 -6 578 -6 574 -6 c 2,61,-1
 536 -6 l 2,62,63
 530 -6 530 -6 505 -7 c 128,-1,64
 480 -8 480 -8 475 -8 c 1,65,-1
 479 4 l 1,66,67
 516 4 516 4 524 24.5 c 128,-1,68
 532 45 532 45 532 113 c 1,69,-1
 392 113 l 1,44,-1
530 313 m 1,70,-1
 431 144 l 1,71,-1
 532 144 l 1,72,73
 532 259 532 259 530 313 c 1,70,-1
EndSplineSet
EndChar
StartChar: onehalf
Encoding: 189 189 160
Width: 700
Flags: W
LayerCount: 2
Back
Fore
SplineSet
62 23 m 1,0,1
 91 56 91 56 115 86.5 c 128,-1,2
 139 117 139 117 162 147 c 128,-1,3
 185 177 185 177 208.5 209 c 128,-1,4
 232 241 232 241 259 278 c 2,5,-1
 380 443 l 2,6,7
 417 494 417 494 457 550.5 c 128,-1,8
 497 607 497 607 532 669 c 1,9,-1
 537 673 l 1,10,-1
 613 673 l 1,11,-1
 612 669 l 1,12,13
 558 607 558 607 514.5 550.5 c 128,-1,14
 471 494 471 494 435 443 c 2,15,-1
 315 278 l 2,16,17
 288 240 288 240 265 208 c 128,-1,18
 242 176 242 176 221.5 146 c 128,-1,19
 201 116 201 116 182 86 c 128,-1,20
 163 56 163 56 142 23 c 1,21,-1
 138 19 l 1,22,-1
 62 19 l 1,23,-1
 62 23 l 1,0,1
62 600 m 1,24,-1
 64 604 l 1,25,26
 90 617 90 617 113 630.5 c 128,-1,27
 136 644 136 644 159 665 c 1,28,-1
 163 665 l 1,29,-1
 177 660 l 1,30,31
 174 628 174 628 173.5 592.5 c 128,-1,32
 173 557 173 557 173 508 c 2,33,-1
 173 453 l 2,34,35
 173 428 173 428 173 412.5 c 128,-1,36
 173 397 173 397 173 386 c 128,-1,37
 173 375 173 375 173.5 366.5 c 128,-1,38
 174 358 174 358 175 348 c 0,39,40
 176 336 176 336 180.5 329.5 c 128,-1,41
 185 323 185 323 190 319 c 256,42,43
 195 315 195 315 201.5 312.5 c 128,-1,44
 208 310 208 310 217 310 c 1,45,-1
 220 297 l 1,46,47
 212 298 212 298 194.5 298.5 c 128,-1,48
 177 299 177 299 169 299 c 2,49,-1
 135 299 l 2,50,51
 130 299 130 299 121.5 299 c 128,-1,52
 113 299 113 299 103.5 298.5 c 128,-1,53
 94 298 94 298 85.5 297.5 c 128,-1,54
 77 297 77 297 73 297 c 2,55,-1
 76 310 l 1,56,57
 85 310 85 310 97 312 c 128,-1,58
 109 314 109 314 115 319 c 0,59,60
 119 323 119 323 123 329.5 c 128,-1,61
 127 336 127 336 129 348 c 0,62,63
 130 356 130 356 130.5 363.5 c 128,-1,64
 131 371 131 371 131 381 c 128,-1,65
 131 391 131 391 131 404.5 c 128,-1,66
 131 418 131 418 131 439 c 2,67,-1
 131 506 l 2,68,69
 131 530 131 530 131 545 c 128,-1,70
 131 560 131 560 131 570.5 c 128,-1,71
 131 581 131 581 130.5 588.5 c 128,-1,72
 130 596 130 596 129 606 c 1,73,-1
 62 589 l 1,74,-1
 62 600 l 1,24,-1
423 299 m 1,75,76
 436 322 436 322 462.5 340 c 128,-1,77
 489 358 489 358 534 358 c 0,78,79
 591 358 591 358 616 333 c 128,-1,80
 641 308 641 308 641 265 c 0,81,82
 641 232 641 232 621.5 199.5 c 128,-1,83
 602 167 602 167 576.5 138 c 128,-1,84
 551 109 551 109 525 83.5 c 128,-1,85
 499 58 499 58 486 38 c 1,86,-1
 488 34 l 1,87,-1
 524 34 l 2,88,89
 557 34 557 34 576 35 c 128,-1,90
 595 36 595 36 606.5 40.5 c 128,-1,91
 618 45 618 45 623.5 54.5 c 128,-1,92
 629 64 629 64 634 81 c 1,93,-1
 648 81 l 1,94,-1
 639 1 l 1,95,-1
 634 -4 l 2,96,97
 631 -4 631 -4 616.5 -3.5 c 128,-1,98
 602 -3 602 -3 585 -2.5 c 128,-1,99
 568 -2 568 -2 552 -1.5 c 128,-1,100
 536 -1 536 -1 529 -1 c 2,101,-1
 475 -1 l 2,102,103
 463 -1 463 -1 448 -2 c 128,-1,104
 433 -3 433 -3 419 -4 c 1,105,-1
 414 2 l 1,106,-1
 414 14 l 1,107,108
 433 38 433 38 463.5 71 c 128,-1,109
 494 104 494 104 523 138.5 c 128,-1,110
 552 173 552 173 573 206 c 128,-1,111
 594 239 594 239 594 264 c 0,112,113
 594 286 594 286 581.5 303 c 128,-1,114
 569 320 569 320 531 320 c 0,115,116
 458 320 458 320 452 245 c 1,117,-1
 429 245 l 1,118,-1
 423 299 l 1,75,76
EndSplineSet
Ligature2: "'frac' Diagonal Fractions in Latin lookup 5 subtable" one slash two
EndChar
StartChar: threequarters
Encoding: 190 190 203
Width: 719
Flags: W
LayerCount: 2
Back
Fore
SplineSet
100 23 m 1,0,1
 128 56 128 56 152.5 86.5 c 128,-1,2
 177 117 177 117 200 147 c 128,-1,3
 223 177 223 177 246.5 209 c 128,-1,4
 270 241 270 241 297 278 c 2,5,-1
 418 443 l 2,6,7
 455 494 455 494 494.5 550.5 c 128,-1,8
 534 607 534 607 570 669 c 1,9,-1
 574 673 l 1,10,-1
 650 673 l 1,11,-1
 649 669 l 1,12,13
 594 608 594 608 551.5 550.5 c 128,-1,14
 509 493 509 493 473 443 c 2,15,-1
 353 278 l 2,16,17
 326 240 326 240 303 208 c 128,-1,18
 280 176 280 176 259.5 146 c 128,-1,19
 239 116 239 116 219.5 86 c 128,-1,20
 200 56 200 56 180 23 c 1,21,-1
 175 19 l 1,22,-1
 99 19 l 1,23,-1
 100 23 l 1,0,1
79 403 m 1,24,25
 84 362 84 362 107 346 c 128,-1,26
 130 330 130 330 159 330 c 0,27,28
 175 330 175 330 190.5 335 c 128,-1,29
 206 340 206 340 218 349.5 c 128,-1,30
 230 359 230 359 237.5 374 c 128,-1,31
 245 389 245 389 245 409 c 0,32,33
 245 438 245 438 226.5 461.5 c 128,-1,34
 208 485 208 485 171 485 c 2,35,-1
 156 485 l 1,36,-1
 162 506 l 1,37,38
 193 507 193 507 209.5 528.5 c 128,-1,39
 226 550 226 550 226 575 c 0,40,41
 226 605 226 605 205 619.5 c 128,-1,42
 184 634 184 634 158 634 c 256,43,44
 132 634 132 634 110.5 619 c 128,-1,45
 89 604 89 604 89 572 c 0,46,47
 89 566 89 566 90 562 c 1,48,-1
 68 562 l 1,49,-1
 63 606 l 1,50,51
 68 616 68 616 75.5 627 c 128,-1,52
 83 638 83 638 94.5 646 c 128,-1,53
 106 654 106 654 122.5 659.5 c 128,-1,54
 139 665 139 665 162 665 c 0,55,56
 213 665 213 665 241 638.5 c 128,-1,57
 269 612 269 612 269 577 c 0,58,59
 269 555 269 555 256.5 534.5 c 128,-1,60
 244 514 244 514 216 500 c 1,61,62
 253 492 253 492 270 468 c 128,-1,63
 287 444 287 444 287 415 c 0,64,65
 287 394 287 394 278 373 c 128,-1,66
 269 352 269 352 252.5 335 c 128,-1,67
 236 318 236 318 212.5 307.5 c 128,-1,68
 189 297 189 297 159 297 c 0,69,70
 121 297 121 297 95.5 313.5 c 128,-1,71
 70 330 70 330 53 359 c 1,72,-1
 58 403 l 1,73,-1
 79 403 l 1,24,25
430 116 m 1,74,-1
 424 131 l 1,75,-1
 558 350 l 1,76,-1
 616 358 l 1,77,-1
 623 353 l 1,78,79
 622 345 622 345 621.5 335 c 128,-1,80
 621 325 621 325 620.5 303.5 c 128,-1,81
 620 282 620 282 619.5 244.5 c 128,-1,82
 619 207 619 207 619 145 c 1,83,-1
 667 145 l 1,84,-1
 670 142 l 1,85,-1
 662 116 l 1,86,-1
 658 113 l 1,87,-1
 619 113 l 1,88,89
 619 81 619 81 620 60.5 c 128,-1,90
 621 40 621 40 625.5 27 c 128,-1,91
 630 14 630 14 640.5 9 c 128,-1,92
 651 4 651 4 669 4 c 1,93,-1
 671 -8 l 1,94,95
 663 -8 663 -8 643.5 -7 c 128,-1,96
 624 -6 624 -6 616 -6 c 2,97,-1
 578 -6 l 2,98,99
 574 -6 574 -6 565.5 -6.5 c 128,-1,100
 557 -7 557 -7 548 -7 c 128,-1,101
 539 -7 539 -7 530.5 -7.5 c 128,-1,102
 522 -8 522 -8 518 -8 c 2,103,-1
 521 4 l 1,104,105
 541 4 541 4 552 9.5 c 128,-1,106
 563 15 563 15 568 27.5 c 128,-1,107
 573 40 573 40 574 61 c 128,-1,108
 575 82 575 82 575 113 c 1,109,-1
 435 113 l 1,110,-1
 430 116 l 1,74,-1
474 145 m 1,111,-1
 575 145 l 1,112,113
 575 218 575 218 574.5 255.5 c 128,-1,114
 574 293 574 293 573 313 c 1,115,-1
 474 145 l 1,111,-1
EndSplineSet
Ligature2: "'frac' Diagonal Fractions in Latin lookup 5 subtable" three slash four
EndChar
StartChar: questiondown
Encoding: 191 191 179
Width: 415
Flags: W
LayerCount: 2
Back
Fore
SplineSet
198 292 m 1,0,-1
 204 298 l 1,1,-1
 239 315 l 1,2,-1
 245 311 l 1,3,4
 246 285 246 285 247.5 256.5 c 128,-1,5
 249 228 249 228 249 214 c 0,6,7
 249 173 249 173 228 138.5 c 128,-1,8
 207 104 207 104 182 70.5 c 128,-1,9
 157 37 157 37 136 0.5 c 128,-1,10
 115 -36 115 -36 115 -79 c 0,11,12
 115 -105 115 -105 124 -124 c 128,-1,13
 133 -143 133 -143 147.5 -156 c 128,-1,14
 162 -169 162 -169 179.5 -175 c 128,-1,15
 197 -181 197 -181 214 -181 c 0,16,17
 241 -181 241 -181 263 -172 c 128,-1,18
 285 -163 285 -163 301 -147 c 128,-1,19
 317 -131 317 -131 327 -111 c 128,-1,20
 337 -91 337 -91 340 -68 c 1,21,-1
 343 -65 l 1,22,-1
 360 -65 l 1,23,-1
 372 -158 l 1,24,-1
 370 -167 l 1,25,26
 361 -181 361 -181 341.5 -191.5 c 128,-1,27
 322 -202 322 -202 298.5 -209 c 128,-1,28
 275 -216 275 -216 251.5 -219 c 128,-1,29
 228 -222 228 -222 211 -222 c 0,30,31
 190 -222 190 -222 161.5 -215 c 128,-1,32
 133 -208 133 -208 107.5 -190 c 128,-1,33
 82 -172 82 -172 64.5 -141 c 128,-1,34
 47 -110 47 -110 47 -62 c 0,35,36
 47 -16 47 -16 69.5 25.5 c 128,-1,37
 92 67 92 67 119 103.5 c 128,-1,38
 146 140 146 140 169 171.5 c 128,-1,39
 192 203 192 203 194 230 c 2,40,-1
 198 292 l 1,0,-1
174 429 m 256,41,42
 174 448 174 448 187.5 461.5 c 128,-1,43
 201 475 201 475 221 475 c 0,44,45
 240 475 240 475 254.5 461.5 c 128,-1,46
 269 448 269 448 269 429 c 256,47,48
 269 410 269 410 254.5 395.5 c 128,-1,49
 240 381 240 381 221 381 c 0,50,51
 201 381 201 381 187.5 395.5 c 128,-1,52
 174 410 174 410 174 429 c 256,41,42
EndSplineSet
EndChar
StartChar: Agrave
Encoding: 192 192 6
Width: 675
Flags: W
LayerCount: 2
Back
Fore
SplineSet
429 718 m 1,0,-1
 228 795 l 1,1,2
 224 804 224 804 224 814 c 0,3,4
 224 828 224 828 233 837.5 c 128,-1,5
 242 847 242 847 259 848 c 1,6,-1
 440 748 l 1,7,-1
 442 741 l 1,8,-1
 437 721 l 1,9,-1
 429 718 l 1,0,-1
372 665 m 1,10,-1
 536 211 l 2,11,12
 546 181 546 181 553.5 161 c 128,-1,13
 561 141 561 141 566.5 127 c 128,-1,14
 572 113 572 113 576 103.5 c 128,-1,15
 580 94 580 94 583 87 c 0,16,17
 594 62 594 62 605.5 48.5 c 128,-1,18
 617 35 617 35 629 28.5 c 128,-1,19
 641 22 641 22 653.5 21 c 128,-1,20
 666 20 666 20 679 20 c 1,21,-1
 684 16 l 1,22,-1
 687 -2 l 1,23,-1
 685 -6 l 1,24,25
 678 -6 678 -6 664 -5 c 128,-1,26
 650 -4 650 -4 635 -3 c 128,-1,27
 620 -2 620 -2 606.5 -1 c 128,-1,28
 593 0 593 0 586 0 c 2,29,-1
 553 0 l 2,30,31
 546 0 546 0 530 -1 c 128,-1,32
 514 -2 514 -2 496.5 -3 c 128,-1,33
 479 -4 479 -4 463 -5 c 128,-1,34
 447 -6 447 -6 440 -6 c 1,35,-1
 438 -2 l 1,36,-1
 441 16 l 1,37,-1
 445 20 l 1,38,39
 474 20 474 20 490 26.5 c 128,-1,40
 506 33 506 33 506 62 c 0,41,42
 506 85 506 85 490.5 126.5 c 128,-1,43
 475 168 475 168 452 231 c 2,44,-1
 435 279 l 1,45,-1
 211 279 l 1,46,-1
 194 231 l 2,47,48
 171 168 171 168 155.5 126.5 c 128,-1,49
 140 85 140 85 140 62 c 0,50,51
 140 33 140 33 156 26.5 c 128,-1,52
 172 20 172 20 201 20 c 1,53,-1
 206 16 l 1,54,-1
 209 -2 l 1,55,-1
 207 -6 l 1,56,57
 200 -6 200 -6 185 -5 c 128,-1,58
 170 -4 170 -4 153.5 -3 c 128,-1,59
 137 -2 137 -2 122 -1 c 128,-1,60
 107 0 107 0 100 0 c 2,61,-1
 81 0 l 2,62,63
 74 0 74 0 60 -1 c 128,-1,64
 46 -2 46 -2 31 -3 c 128,-1,65
 16 -4 16 -4 2.5 -5 c 128,-1,66
 -11 -6 -11 -6 -18 -6 c 1,67,-1
 -19 -2 l 1,68,-1
 -17 16 l 1,69,-1
 -12 20 l 1,70,71
 1 20 1 20 13 21 c 128,-1,72
 25 22 25 22 37 28.5 c 128,-1,73
 49 35 49 35 60.5 48.5 c 128,-1,74
 72 62 72 62 84 87 c 0,75,76
 87 92 87 92 89.5 98.5 c 128,-1,77
 92 105 92 105 97.5 118 c 128,-1,78
 103 131 103 131 111.5 152.5 c 128,-1,79
 120 174 120 174 133.5 208.5 c 128,-1,80
 147 243 147 243 166.5 293 c 128,-1,81
 186 343 186 343 214 414 c 0,82,83
 227 449 227 449 241 483.5 c 128,-1,84
 255 518 255 518 267 548 c 128,-1,85
 279 578 279 578 288.5 601 c 128,-1,86
 298 624 298 624 302 635 c 1,87,-1
 361 665 l 1,88,-1
 372 665 l 1,10,-1
228 322 m 1,89,-1
 419 322 l 1,90,-1
 324 579 l 1,91,-1
 228 322 l 1,89,-1
EndSplineSet
EndChar
StartChar: Aacute
Encoding: 193 193 130
Width: 675
GlyphClass: 2
Flags: W
LayerCount: 2
Back
Fore
SplineSet
237 748 m 1,0,-1
 230 751 l 1,1,-1
 224 771 l 1,2,-1
 227 778 l 1,3,-1
 407 878 l 1,4,5
 442 876 442 876 442 844 c 0,6,7
 442 832 442 832 439 825 c 1,8,-1
 237 748 l 1,0,-1
361 665 m 1,9,-1
 372 665 l 1,10,-1
 536 211 l 2,11,12
 569 119 569 119 583 87 c 0,13,14
 597 56 597 56 614.5 40.5 c 128,-1,15
 632 25 632 25 644.5 22.5 c 128,-1,16
 657 20 657 20 679 20 c 1,17,-1
 684 16 l 1,18,-1
 687 -2 l 1,19,-1
 685 -6 l 2,20,21
 683 -6 683 -6 640 -3 c 128,-1,22
 597 0 597 0 586 0 c 2,23,-1
 553 0 l 2,24,25
 545 0 545 0 521.5 -1 c 128,-1,26
 498 -2 498 -2 471 -4 c 128,-1,27
 444 -6 444 -6 440 -6 c 2,28,-1
 438 -2 l 1,29,-1
 441 16 l 1,30,-1
 445 20 l 1,31,32
 477 20 477 20 491.5 28 c 128,-1,33
 506 36 506 36 506 62 c 0,34,35
 506 71 506 71 503.5 82.5 c 128,-1,36
 501 94 501 94 496 112 c 0,37,38
 490 130 490 130 484 144 c 2,39,-1
 469 186 l 1,40,-1
 452 231 l 1,41,-1
 435 279 l 1,42,-1
 211 279 l 1,43,-1
 194 231 l 1,44,-1
 177 186 l 1,45,-1
 162 144 l 2,46,47
 156 130 156 130 150.5 112 c 128,-1,48
 145 94 145 94 142.5 82.5 c 128,-1,49
 140 71 140 71 140 62 c 0,50,51
 140 36 140 36 154.5 28 c 128,-1,52
 169 20 169 20 201 20 c 1,53,-1
 206 16 l 1,54,-1
 209 -2 l 1,55,-1
 207 -6 l 1,56,57
 201 -6 201 -6 176.5 -4 c 128,-1,58
 152 -2 152 -2 130 -1 c 128,-1,59
 108 0 108 0 100 0 c 2,60,-1
 81 0 l 2,61,62
 70 0 70 0 27 -3 c 128,-1,63
 -16 -6 -16 -6 -18 -6 c 2,64,-1
 -19 -2 l 1,65,-1
 -17 16 l 1,66,-1
 -12 20 l 1,67,68
 4 20 4 20 13.5 21.5 c 128,-1,69
 23 23 23 23 36.5 28.5 c 128,-1,70
 50 34 50 34 61.5 48.5 c 128,-1,71
 73 63 73 63 84 87 c 0,72,73
 95 109 95 109 214 414 c 2,74,-1
 265 543 l 1,75,-1
 302 635 l 1,76,-1
 361 665 l 1,9,-1
324 579 m 1,77,-1
 228 322 l 1,78,-1
 419 322 l 1,79,-1
 324 579 l 1,77,-1
EndSplineSet
EndChar
StartChar: Acircumflex
Encoding: 194 194 131
Width: 675
GlyphClass: 2
Flags: W
LayerCount: 2
Back
Fore
SplineSet
332 872 m 1,0,-1
 340 872 l 1,1,-1
 450 773 l 1,2,-1
 453 766 l 1,3,-1
 447 746 l 1,4,-1
 440 743 l 1,5,-1
 336 805 l 1,6,-1
 232 743 l 1,7,-1
 225 746 l 1,8,-1
 219 766 l 1,9,-1
 222 773 l 1,10,-1
 332 872 l 1,0,-1
361 665 m 1,11,-1
 372 665 l 1,12,-1
 536 211 l 2,13,14
 569 119 569 119 583 87 c 0,15,16
 597 56 597 56 614.5 40.5 c 128,-1,17
 632 25 632 25 644.5 22.5 c 128,-1,18
 657 20 657 20 679 20 c 1,19,-1
 684 16 l 1,20,-1
 687 -2 l 1,21,-1
 685 -6 l 2,22,23
 683 -6 683 -6 640 -3 c 128,-1,24
 597 0 597 0 586 0 c 2,25,-1
 553 0 l 2,26,27
 545 0 545 0 521.5 -1 c 128,-1,28
 498 -2 498 -2 471 -4 c 128,-1,29
 444 -6 444 -6 440 -6 c 2,30,-1
 438 -2 l 1,31,-1
 441 16 l 1,32,-1
 445 20 l 1,33,34
 477 20 477 20 491.5 28 c 128,-1,35
 506 36 506 36 506 62 c 0,36,37
 506 71 506 71 503.5 82.5 c 128,-1,38
 501 94 501 94 496 112 c 0,39,40
 490 130 490 130 484 144 c 2,41,-1
 469 186 l 1,42,-1
 452 231 l 1,43,-1
 435 279 l 1,44,-1
 211 279 l 1,45,-1
 194 231 l 1,46,-1
 177 186 l 1,47,-1
 162 144 l 2,48,49
 156 130 156 130 150.5 112 c 128,-1,50
 145 94 145 94 142.5 82.5 c 128,-1,51
 140 71 140 71 140 62 c 0,52,53
 140 36 140 36 154.5 28 c 128,-1,54
 169 20 169 20 201 20 c 1,55,-1
 206 16 l 1,56,-1
 209 -2 l 1,57,-1
 207 -6 l 1,58,59
 201 -6 201 -6 176.5 -4 c 128,-1,60
 152 -2 152 -2 130 -1 c 128,-1,61
 108 0 108 0 100 0 c 2,62,-1
 81 0 l 2,63,64
 70 0 70 0 27 -3 c 128,-1,65
 -16 -6 -16 -6 -18 -6 c 2,66,-1
 -19 -2 l 1,67,-1
 -17 16 l 1,68,-1
 -12 20 l 1,69,70
 4 20 4 20 13.5 21.5 c 128,-1,71
 23 23 23 23 36.5 28.5 c 128,-1,72
 50 34 50 34 61.5 48.5 c 128,-1,73
 73 63 73 63 84 87 c 0,74,75
 95 109 95 109 214 414 c 2,76,-1
 265 543 l 1,77,-1
 302 635 l 1,78,-1
 361 665 l 1,11,-1
324 579 m 1,79,-1
 228 322 l 1,80,-1
 419 322 l 1,81,-1
 324 579 l 1,79,-1
EndSplineSet
EndChar
StartChar: Atilde
Encoding: 195 195 132
Width: 675
GlyphClass: 2
Flags: W
LayerCount: 2
Back
Fore
SplineSet
507 867 m 1,0,1
 507 860 507 860 499 843 c 128,-1,2
 491 826 491 826 469 808 c 128,-1,3
 447 790 447 790 419 790 c 0,4,5
 407 790 407 790 329 794 c 128,-1,6
 251 798 251 798 229 798 c 0,7,8
 205 798 205 798 194.5 792.5 c 128,-1,9
 184 787 184 787 173 774 c 1,10,-1
 160 781 l 1,11,12
 160 801 160 801 186.5 829 c 128,-1,13
 213 857 213 857 251 857 c 0,14,15
 265 857 265 857 331.5 853 c 128,-1,16
 398 849 398 849 430 849 c 0,17,18
 477 849 477 849 495 875 c 1,19,-1
 507 867 l 1,0,1
361 665 m 1,20,-1
 372 665 l 1,21,-1
 536 211 l 2,22,23
 569 119 569 119 583 87 c 0,24,25
 597 56 597 56 614.5 40.5 c 128,-1,26
 632 25 632 25 644.5 22.5 c 128,-1,27
 657 20 657 20 679 20 c 1,28,-1
 684 16 l 1,29,-1
 687 -2 l 1,30,-1
 685 -6 l 2,31,32
 683 -6 683 -6 640 -3 c 128,-1,33
 597 0 597 0 586 0 c 2,34,-1
 553 0 l 2,35,36
 545 0 545 0 521.5 -1 c 128,-1,37
 498 -2 498 -2 471 -4 c 128,-1,38
 444 -6 444 -6 440 -6 c 2,39,-1
 438 -2 l 1,40,-1
 441 16 l 1,41,-1
 445 20 l 1,42,43
 477 20 477 20 491.5 28 c 128,-1,44
 506 36 506 36 506 62 c 0,45,46
 506 71 506 71 503.5 82.5 c 128,-1,47
 501 94 501 94 496 112 c 0,48,49
 490 130 490 130 484 144 c 2,50,-1
 469 186 l 1,51,-1
 452 231 l 1,52,-1
 435 279 l 1,53,-1
 211 279 l 1,54,-1
 194 231 l 1,55,-1
 177 186 l 1,56,-1
 162 144 l 2,57,58
 156 130 156 130 150.5 112 c 128,-1,59
 145 94 145 94 142.5 82.5 c 128,-1,60
 140 71 140 71 140 62 c 0,61,62
 140 36 140 36 154.5 28 c 128,-1,63
 169 20 169 20 201 20 c 1,64,-1
 206 16 l 1,65,-1
 209 -2 l 1,66,-1
 207 -6 l 1,67,68
 201 -6 201 -6 176.5 -4 c 128,-1,69
 152 -2 152 -2 130 -1 c 128,-1,70
 108 0 108 0 100 0 c 2,71,-1
 81 0 l 2,72,73
 70 0 70 0 27 -3 c 128,-1,74
 -16 -6 -16 -6 -18 -6 c 2,75,-1
 -19 -2 l 1,76,-1
 -17 16 l 1,77,-1
 -12 20 l 1,78,79
 4 20 4 20 13.5 21.5 c 128,-1,80
 23 23 23 23 36.5 28.5 c 128,-1,81
 50 34 50 34 61.5 48.5 c 128,-1,82
 73 63 73 63 84 87 c 0,83,84
 95 109 95 109 214 414 c 2,85,-1
 265 543 l 1,86,-1
 302 635 l 1,87,-1
 361 665 l 1,20,-1
324 579 m 1,88,-1
 228 322 l 1,89,-1
 419 322 l 1,90,-1
 324 579 l 1,88,-1
EndSplineSet
EndChar
StartChar: Adieresis
Encoding: 196 196 5
Width: 675
Flags: W
LayerCount: 2
Back
Fore
SplineSet
372 665 m 1,0,-1
 536 211 l 2,1,2
 546 181 546 181 553.5 161 c 128,-1,3
 561 141 561 141 566.5 127 c 128,-1,4
 572 113 572 113 576 103.5 c 128,-1,5
 580 94 580 94 583 87 c 0,6,7
 594 62 594 62 605.5 48.5 c 128,-1,8
 617 35 617 35 629 28.5 c 128,-1,9
 641 22 641 22 653.5 21 c 128,-1,10
 666 20 666 20 679 20 c 1,11,-1
 684 16 l 1,12,-1
 687 -2 l 1,13,-1
 685 -6 l 1,14,15
 678 -6 678 -6 664 -5 c 128,-1,16
 650 -4 650 -4 635 -3 c 128,-1,17
 620 -2 620 -2 606.5 -1 c 128,-1,18
 593 0 593 0 586 0 c 2,19,-1
 553 0 l 2,20,21
 546 0 546 0 530 -1 c 128,-1,22
 514 -2 514 -2 496.5 -3 c 128,-1,23
 479 -4 479 -4 463 -5 c 128,-1,24
 447 -6 447 -6 440 -6 c 1,25,-1
 438 -2 l 1,26,-1
 441 16 l 1,27,-1
 445 20 l 1,28,29
 474 20 474 20 490 26.5 c 128,-1,30
 506 33 506 33 506 62 c 0,31,32
 506 85 506 85 490.5 126.5 c 128,-1,33
 475 168 475 168 452 231 c 2,34,-1
 435 279 l 1,35,-1
 211 279 l 1,36,-1
 194 231 l 2,37,38
 171 168 171 168 155.5 126.5 c 128,-1,39
 140 85 140 85 140 62 c 0,40,41
 140 33 140 33 156 26.5 c 128,-1,42
 172 20 172 20 201 20 c 1,43,-1
 206 16 l 1,44,-1
 209 -2 l 1,45,-1
 207 -6 l 1,46,47
 200 -6 200 -6 185 -5 c 128,-1,48
 170 -4 170 -4 153.5 -3 c 128,-1,49
 137 -2 137 -2 122 -1 c 128,-1,50
 107 0 107 0 100 0 c 2,51,-1
 81 0 l 2,52,53
 74 0 74 0 60 -1 c 128,-1,54
 46 -2 46 -2 31 -3 c 128,-1,55
 16 -4 16 -4 2.5 -5 c 128,-1,56
 -11 -6 -11 -6 -18 -6 c 1,57,-1
 -19 -2 l 1,58,-1
 -17 16 l 1,59,-1
 -12 20 l 1,60,61
 1 20 1 20 13 21 c 128,-1,62
 25 22 25 22 37 28.5 c 128,-1,63
 49 35 49 35 60.5 48.5 c 128,-1,64
 72 62 72 62 84 87 c 0,65,66
 87 92 87 92 89.5 98.5 c 128,-1,67
 92 105 92 105 97.5 118 c 128,-1,68
 103 131 103 131 111.5 152.5 c 128,-1,69
 120 174 120 174 133.5 208.5 c 128,-1,70
 147 243 147 243 166.5 293 c 128,-1,71
 186 343 186 343 214 414 c 0,72,73
 227 449 227 449 241 483.5 c 128,-1,74
 255 518 255 518 267 548 c 128,-1,75
 279 578 279 578 288.5 601 c 128,-1,76
 298 624 298 624 302 635 c 1,77,-1
 361 665 l 1,78,-1
 372 665 l 1,0,-1
228 322 m 1,79,-1
 419 322 l 1,80,-1
 324 579 l 1,81,-1
 228 322 l 1,79,-1
214 794 m 0,82,83
 214 812 214 812 226 825.5 c 128,-1,84
 238 839 238 839 255 839 c 256,85,86
 272 839 272 839 284.5 825.5 c 128,-1,87
 297 812 297 812 297 794 c 0,88,89
 297 775 297 775 284.5 762.5 c 128,-1,90
 272 750 272 750 255 750 c 256,91,92
 238 750 238 750 226 762.5 c 128,-1,93
 214 775 214 775 214 794 c 0,82,83
371 794 m 0,94,95
 371 812 371 812 383 825.5 c 128,-1,96
 395 839 395 839 412 839 c 0,97,98
 428 839 428 839 440.5 825.5 c 128,-1,99
 453 812 453 812 453 794 c 0,100,101
 453 775 453 775 440.5 762.5 c 128,-1,102
 428 750 428 750 412 750 c 0,103,104
 395 750 395 750 383 762.5 c 128,-1,105
 371 775 371 775 371 794 c 0,94,95
EndSplineSet
EndChar
StartChar: Aring
Encoding: 197 197 7
Width: 676
Flags: W
LayerCount: 2
Back
Fore
SplineSet
333 778 m 0,0,1
 372 778 372 778 394 754.5 c 128,-1,2
 416 731 416 731 416 703 c 0,3,4
 416 686 416 686 406.5 670 c 128,-1,5
 397 654 397 654 379 644 c 1,6,-1
 536 211 l 2,7,8
 546 181 546 181 553.5 161 c 128,-1,9
 561 141 561 141 566.5 127 c 128,-1,10
 572 113 572 113 576 103.5 c 128,-1,11
 580 94 580 94 583 87 c 0,12,13
 594 62 594 62 605.5 48.5 c 128,-1,14
 617 35 617 35 629 28.5 c 128,-1,15
 641 22 641 22 653.5 21 c 128,-1,16
 666 20 666 20 679 20 c 1,17,-1
 684 16 l 1,18,-1
 687 -2 l 1,19,-1
 685 -6 l 1,20,21
 678 -6 678 -6 664 -5 c 128,-1,22
 650 -4 650 -4 635 -3 c 128,-1,23
 620 -2 620 -2 606.5 -1 c 128,-1,24
 593 0 593 0 586 0 c 2,25,-1
 553 0 l 2,26,27
 546 0 546 0 530 -1 c 128,-1,28
 514 -2 514 -2 496.5 -3 c 128,-1,29
 479 -4 479 -4 463 -5 c 128,-1,30
 447 -6 447 -6 440 -6 c 1,31,-1
 438 -2 l 1,32,-1
 441 16 l 1,33,-1
 445 20 l 1,34,35
 474 20 474 20 490 26.5 c 128,-1,36
 506 33 506 33 506 62 c 0,37,38
 506 85 506 85 490.5 126.5 c 128,-1,39
 475 168 475 168 452 231 c 2,40,-1
 435 279 l 1,41,-1
 211 279 l 1,42,-1
 194 231 l 2,43,44
 171 168 171 168 155.5 126.5 c 128,-1,45
 140 85 140 85 140 62 c 0,46,47
 140 33 140 33 156 26.5 c 128,-1,48
 172 20 172 20 201 20 c 1,49,-1
 206 16 l 1,50,-1
 209 -2 l 1,51,-1
 207 -6 l 1,52,53
 200 -6 200 -6 185 -5 c 128,-1,54
 170 -4 170 -4 153.5 -3 c 128,-1,55
 137 -2 137 -2 122 -1 c 128,-1,56
 107 0 107 0 100 0 c 2,57,-1
 81 0 l 2,58,59
 74 0 74 0 60 -1 c 128,-1,60
 46 -2 46 -2 31 -3 c 128,-1,61
 16 -4 16 -4 2.5 -5 c 128,-1,62
 -11 -6 -11 -6 -18 -6 c 1,63,-1
 -19 -2 l 1,64,-1
 -17 16 l 1,65,-1
 -12 20 l 1,66,67
 1 20 1 20 13 21 c 128,-1,68
 25 22 25 22 37 28.5 c 128,-1,69
 49 35 49 35 60.5 48.5 c 128,-1,70
 72 62 72 62 84 87 c 0,71,72
 87 92 87 92 89.5 98.5 c 128,-1,73
 92 105 92 105 97.5 118 c 128,-1,74
 103 131 103 131 111.5 152.5 c 128,-1,75
 120 174 120 174 133.5 208.5 c 128,-1,76
 147 243 147 243 166.5 293 c 128,-1,77
 186 343 186 343 214 414 c 0,78,79
 226 446 226 446 239.5 480 c 128,-1,80
 253 514 253 514 265 544 c 128,-1,81
 277 574 277 574 287 598.5 c 128,-1,82
 297 623 297 623 303 637 c 1,83,84
 277 645 277 645 264 665 c 128,-1,85
 251 685 251 685 251 705 c 0,86,87
 251 733 251 733 273 755.5 c 128,-1,88
 295 778 295 778 333 778 c 0,0,1
228 322 m 1,89,-1
 419 322 l 1,90,-1
 324 579 l 1,91,-1
 228 322 l 1,89,-1
334 656 m 256,92,93
 354 656 354 656 366 671 c 128,-1,94
 378 686 378 686 378 703 c 0,95,96
 378 721 378 721 365.5 737 c 128,-1,97
 353 753 353 753 332 753 c 256,98,99
 311 753 311 753 299.5 738 c 128,-1,100
 288 723 288 723 288 706 c 0,101,102
 288 687 288 687 301 671.5 c 128,-1,103
 314 656 314 656 334 656 c 256,92,93
EndSplineSet
EndChar
StartChar: AE
Encoding: 198 198 135
Width: 853
GlyphClass: 2
Flags: W
LayerCount: 2
Back
Fore
SplineSet
354 520 m 2,0,1
 393 586 393 586 393 602 c 0,2,3
 393 617 393 617 385 623.5 c 128,-1,4
 377 630 377 630 350 634 c 1,5,-1
 346 638 l 1,6,-1
 343 656 l 1,7,-1
 345 660 l 1,8,9
 399 654 399 654 487 654 c 2,10,-1
 623 654 l 2,11,12
 643 654 643 654 715.5 656 c 128,-1,13
 788 658 788 658 792 658 c 2,14,-1
 796 648 l 1,15,-1
 792 539 l 1,16,-1
 767 539 l 1,17,-1
 763 543 l 1,18,19
 760 589 760 589 737.5 597.5 c 128,-1,20
 715 606 715 606 595 606 c 2,21,-1
 528 606 l 1,22,23
 522 528 522 528 522 366 c 1,24,25
 538 366 538 366 566.5 366.5 c 128,-1,26
 595 367 595 367 607 367.5 c 128,-1,27
 619 368 619 368 635.5 369.5 c 128,-1,28
 652 371 652 371 660 374 c 128,-1,29
 668 377 668 377 673 383 c 0,30,31
 693 407 693 407 693 432 c 1,32,-1
 697 436 l 1,33,-1
 715 438 l 1,34,-1
 718 436 l 1,35,36
 714 378 714 378 714 348 c 0,37,38
 714 323 714 323 718 259 c 1,39,-1
 715 257 l 1,40,-1
 696 259 l 1,41,-1
 693 262 l 1,42,43
 693 290 693 290 673 314 c 0,44,45
 670 318 670 318 664.5 320.5 c 128,-1,46
 659 323 659 323 650.5 324.5 c 128,-1,47
 642 326 642 326 634 326.5 c 128,-1,48
 626 327 626 327 612 327.5 c 128,-1,49
 598 328 598 328 586 328 c 2,50,-1
 556 328 l 1,51,-1
 522 328 l 1,52,53
 522 118 522 118 527 67 c 0,54,55
 528 48 528 48 548 48 c 2,56,-1
 604 48 l 2,57,58
 688 48 688 48 722 54 c 128,-1,59
 756 60 756 60 769 74.5 c 128,-1,60
 782 89 782 89 792 129 c 1,61,-1
 795 133 l 1,62,-1
 821 133 l 1,63,-1
 803 6 l 1,64,-1
 795 -4 l 2,65,66
 792 -4 792 -4 731.5 -2 c 128,-1,67
 671 0 671 0 651 0 c 2,68,-1
 478 0 l 2,69,70
 470 0 470 0 447 -1 c 128,-1,71
 424 -2 424 -2 397.5 -4 c 128,-1,72
 371 -6 371 -6 366 -6 c 1,73,-1
 364 -2 l 1,74,-1
 367 16 l 1,75,-1
 371 20 l 1,76,77
 412 20 412 20 425 30 c 0,78,79
 446 49 446 49 449 87 c 0,80,81
 452 117 452 117 452 328 c 1,82,-1
 293 328 l 1,83,84
 198 170 198 170 171.5 119 c 128,-1,85
 145 68 145 68 145 49 c 0,86,87
 145 31 145 31 159.5 25.5 c 128,-1,88
 174 20 174 20 202 20 c 1,89,-1
 207 16 l 1,90,-1
 210 -2 l 1,91,-1
 207 -6 l 1,92,93
 93 0 93 0 84 0 c 2,94,-1
 65 0 l 2,95,96
 54 0 54 0 10 -3 c 128,-1,97
 -34 -6 -34 -6 -35 -6 c 2,98,-1
 -35 -2 l 1,99,-1
 -33 16 l 1,100,-1
 -28 20 l 1,101,102
 32 25 32 25 51 39 c 0,103,104
 70 52 70 52 93 87 c 0,105,106
 105 104 105 104 198 258 c 2,107,-1
 354 520 l 2,0,1
451 593 m 1,108,-1
 317 366 l 1,109,-1
 452 366 l 1,110,111
 452 561 452 561 451 593 c 1,108,-1
EndSplineSet
EndChar
StartChar: Ccedilla
Encoding: 199 199 136
Width: 654
GlyphClass: 2
Flags: W
LayerCount: 2
Back
Fore
SplineSet
277 -184 m 1,0,-1
 276 -178 l 1,1,-1
 289 -155 l 1,2,-1
 296 -155 l 1,3,4
 328 -167 328 -167 365 -167 c 0,5,6
 419 -167 419 -167 419 -127 c 0,7,8
 419 -81 419 -81 367 -81 c 0,9,10
 344 -81 344 -81 319 -88 c 1,11,-1
 310 -77 l 1,12,-1
 354 -10 l 1,13,14
 218 0 218 0 136.5 91 c 128,-1,15
 55 182 55 182 55 324 c 0,16,17
 55 472 55 472 143.5 568.5 c 128,-1,18
 232 665 232 665 391 665 c 0,19,20
 508 665 508 665 594 631 c 1,21,-1
 597 622 l 1,22,-1
 584 531 l 1,23,-1
 555 531 l 1,24,-1
 552 535 l 1,25,26
 548 563 548 563 521 581 c 128,-1,27
 494 599 494 599 460 605.5 c 128,-1,28
 426 612 426 612 385 612 c 0,29,30
 286 612 286 612 229 567 c 0,31,32
 183 529 183 529 159 466.5 c 128,-1,33
 135 404 135 404 135 328 c 0,34,35
 135 191 135 191 210 116 c 128,-1,36
 285 41 285 41 405 41 c 0,37,38
 521 41 521 41 601 97 c 1,39,-1
 611 86 l 1,40,-1
 589 41 l 1,41,42
 497 -9 497 -9 394 -11 c 1,43,-1
 371 -51 l 1,44,45
 382 -47 382 -47 399 -47 c 0,46,47
 433 -47 433 -47 455.5 -67.5 c 128,-1,48
 478 -88 478 -88 478 -119 c 0,49,50
 478 -153 478 -153 446 -178 c 128,-1,51
 414 -203 414 -203 368 -203 c 128,-1,52
 322 -203 322 -203 277 -184 c 1,0,-1
EndSplineSet
EndChar
StartChar: Egrave
Encoding: 200 200 137
Width: 561
GlyphClass: 2
Flags: W
LayerCount: 2
Back
Fore
SplineSet
389 751 m 1,0,-1
 381 748 l 1,1,-1
 180 825 l 1,2,3
 176 834 176 834 176 844 c 0,4,5
 176 876 176 876 211 878 c 1,6,-1
 392 778 l 1,7,-1
 395 771 l 1,8,-1
 389 751 l 1,0,-1
167 654 m 2,9,-1
 331 654 l 2,10,11
 351 654 351 654 423.5 656 c 128,-1,12
 496 658 496 658 499 658 c 2,13,-1
 504 648 l 1,14,-1
 500 539 l 1,15,-1
 475 539 l 1,16,-1
 471 543 l 1,17,18
 468 589 468 589 445.5 597.5 c 128,-1,19
 423 606 423 606 303 606 c 2,20,-1
 207 606 l 1,21,-1
 205 567 l 2,22,23
 202 512 202 512 202 415 c 2,24,-1
 202 366 l 1,25,26
 218 366 218 366 249 366.5 c 128,-1,27
 280 367 280 367 296.5 367.5 c 128,-1,28
 313 368 313 368 333.5 369.5 c 128,-1,29
 354 371 354 371 365.5 374.5 c 128,-1,30
 377 378 377 378 381 383 c 0,31,32
 401 405 401 405 401 422 c 1,33,-1
 406 427 l 1,34,-1
 423 429 l 1,35,-1
 427 427 l 1,36,37
 422 352 422 352 422 348 c 0,38,39
 422 339 422 339 427 259 c 1,40,-1
 423 257 l 1,41,-1
 405 259 l 1,42,-1
 401 262 l 1,43,44
 401 292 401 292 381 314 c 0,45,46
 376 319 376 319 365.5 322 c 128,-1,47
 355 325 355 325 334.5 326 c 128,-1,48
 314 327 314 327 298 327.5 c 128,-1,49
 282 328 282 328 250 328 c 2,50,-1
 202 328 l 1,51,-1
 202 231 l 2,52,53
 202 118 202 118 207 67 c 0,54,55
 207 48 207 48 227 48 c 2,56,-1
 312 48 l 2,57,58
 396 48 396 48 430 54 c 128,-1,59
 464 60 464 60 476.5 74.5 c 128,-1,60
 489 89 489 89 499 129 c 1,61,-1
 503 133 l 1,62,-1
 529 133 l 1,63,-1
 511 6 l 1,64,-1
 503 -4 l 2,65,66
 500 -4 500 -4 439.5 -2 c 128,-1,67
 379 0 379 0 359 0 c 2,68,-1
 157 0 l 2,69,70
 149 0 149 0 126 -1 c 128,-1,71
 103 -2 103 -2 76.5 -4 c 128,-1,72
 50 -6 50 -6 45 -6 c 1,73,-1
 43 -2 l 1,74,-1
 46 16 l 1,75,-1
 51 20 l 1,76,77
 91 20 91 20 104 30 c 0,78,79
 126 50 126 50 129 87 c 0,80,81
 131 127 131 127 131 211 c 2,82,-1
 131 414 l 2,83,84
 131 536 131 536 129 567 c 0,85,86
 127 603 127 603 104 624 c 0,87,88
 91 634 91 634 51 634 c 1,89,-1
 46 638 l 1,90,-1
 43 656 l 1,91,-1
 45 660 l 1,92,93
 159 654 159 654 167 654 c 2,9,-1
EndSplineSet
EndChar
StartChar: Eacute
Encoding: 201 201 138
Width: 561
GlyphClass: 2
Flags: W
LayerCount: 2
Back
Fore
SplineSet
189 748 m 1,0,-1
 182 751 l 1,1,-1
 176 771 l 1,2,-1
 179 778 l 1,3,-1
 360 878 l 1,4,5
 376 877 376 877 385.5 867.5 c 128,-1,6
 395 858 395 858 395 844 c 0,7,8
 395 834 395 834 391 825 c 1,9,-1
 189 748 l 1,0,-1
167 654 m 2,10,-1
 331 654 l 2,11,12
 351 654 351 654 423.5 656 c 128,-1,13
 496 658 496 658 499 658 c 2,14,-1
 504 648 l 1,15,-1
 500 539 l 1,16,-1
 475 539 l 1,17,-1
 471 543 l 1,18,19
 468 589 468 589 445.5 597.5 c 128,-1,20
 423 606 423 606 303 606 c 2,21,-1
 207 606 l 1,22,-1
 205 567 l 2,23,24
 202 512 202 512 202 415 c 2,25,-1
 202 366 l 1,26,27
 218 366 218 366 249 366.5 c 128,-1,28
 280 367 280 367 296.5 367.5 c 128,-1,29
 313 368 313 368 333.5 369.5 c 128,-1,30
 354 371 354 371 365.5 374.5 c 128,-1,31
 377 378 377 378 381 383 c 0,32,33
 401 405 401 405 401 422 c 1,34,-1
 406 427 l 1,35,-1
 423 429 l 1,36,-1
 427 427 l 1,37,38
 422 352 422 352 422 348 c 0,39,40
 422 339 422 339 427 259 c 1,41,-1
 423 257 l 1,42,-1
 405 259 l 1,43,-1
 401 262 l 1,44,45
 401 292 401 292 381 314 c 0,46,47
 376 319 376 319 365.5 322 c 128,-1,48
 355 325 355 325 334.5 326 c 128,-1,49
 314 327 314 327 298 327.5 c 128,-1,50
 282 328 282 328 250 328 c 2,51,-1
 202 328 l 1,52,-1
 202 231 l 2,53,54
 202 118 202 118 207 67 c 0,55,56
 207 48 207 48 227 48 c 2,57,-1
 312 48 l 2,58,59
 396 48 396 48 430 54 c 128,-1,60
 464 60 464 60 476.5 74.5 c 128,-1,61
 489 89 489 89 499 129 c 1,62,-1
 503 133 l 1,63,-1
 529 133 l 1,64,-1
 511 6 l 1,65,-1
 503 -4 l 2,66,67
 500 -4 500 -4 439.5 -2 c 128,-1,68
 379 0 379 0 359 0 c 2,69,-1
 157 0 l 2,70,71
 149 0 149 0 126 -1 c 128,-1,72
 103 -2 103 -2 76.5 -4 c 128,-1,73
 50 -6 50 -6 45 -6 c 1,74,-1
 43 -2 l 1,75,-1
 46 16 l 1,76,-1
 51 20 l 1,77,78
 91 20 91 20 104 30 c 0,79,80
 126 50 126 50 129 87 c 0,81,82
 131 127 131 127 131 211 c 2,83,-1
 131 414 l 2,84,85
 131 536 131 536 129 567 c 0,86,87
 127 603 127 603 104 624 c 0,88,89
 91 634 91 634 51 634 c 1,90,-1
 46 638 l 1,91,-1
 43 656 l 1,92,-1
 45 660 l 1,93,94
 159 654 159 654 167 654 c 2,10,-1
EndSplineSet
EndChar
